<?xml version="1.0" encoding="UTF-8"?>
<svg id="Layer_1" xmlns="http://www.w3.org/2000/svg" version="1.1" viewBox="0 0 24 24">
  <!-- Generator: Adobe Illustrator 29.8.2, SVG Export Plug-In . SVG Version: 2.1.1 Build 3)  -->
  <defs>
    <style>
      .st0 {
        stroke: #000;
        stroke-linecap: round;
        stroke-linejoin: round;
      }

      .st0, .st1 {
        fill: none;
        stroke-width: 2px;
      }

      .st2 {
        display: none;
      }

      .st1 {
        stroke: #2b3674;
        stroke-miterlimit: 10;
      }
    </style>
  </defs>
  <g id="Layer_11" data-name="Layer_1" class="st2">
    <path class="st0" d="M23,3c-1,.7-2,1.2-3.1,1.5-1.6-1.9-4.5-2.1-6.3-.4-1.1.9-1.6,2.1-1.6,3.4v1c-3.6.1-6.9-1.6-9-4.5,0,0-4,9,5,13-2.1,1.4-4.5,2.1-7,2,9,5,20,0,20-11.5s0-.6-.1-.8c1-1,1.8-2.3,2.1-3.7Z"/>
  </g>
  <g id="Layer_2">
    <path class="st1" d="M5.8,4.3c2.5,1.8,5.2,5.6,6.2,7.7,1-2,3.7-5.8,6.2-7.7,1.8-1.3,4.7-2.4,4.7.9s-.4,5.6-.6,6.4c-.8,2.8-3.6,3.5-6.1,3.1,4.4.7,5.5,3.2,3.1,5.7-4.6,4.7-6.6-1.2-7.1-2.7-.2-.3-.2-.5-.2-.3,0-.1,0,0-.1.3-.5,1.5-2.5,7.4-7.1,2.7-2.4-2.5-1.3-5,3.1-5.7-2.5.4-5.3-.3-6.1-3.1-.2-.8-.6-5.7-.6-6.4,0-3.3,2.8-2.3,4.6-.9h0Z"/>
  </g>
</svg>