<?xml version="1.0" encoding="utf-8"?>
<!-- Generator: Adobe Illustrator 27.9.0, SVG Export Plug-In . SVG Version: 6.00 Build 0)  -->
<svg version="1.1" xmlns="http://www.w3.org/2000/svg" xmlns:xlink="http://www.w3.org/1999/xlink" x="0px" y="0px"
	 viewBox="0 0 24 24" style="enable-background:new 0 0 24 24;" xml:space="preserve">
<style type="text/css">
	.st0{display:none;}
	.st1{display:inline;fill:none;stroke:#000000;stroke-width:2;stroke-linecap:round;stroke-linejoin:round;}
	.st2{fill:none;stroke:#000000;stroke-width:2;stroke-miterlimit:10;}
</style>
<g id="Layer_1" class="st0">
	<path class="st1" d="M23,3c-1,0.7-2,1.2-3.1,1.5c-1.6-1.9-4.5-2.1-6.3-0.4C12.5,5,12,6.2,12,7.5v1C8.4,8.6,5.1,6.9,3,4
		c0,0-4,9,5,13c-2.1,1.4-4.5,2.1-7,2c9,5,20,0,20-11.5c0-0.3,0-0.6-0.1-0.8C21.9,5.7,22.7,4.4,23,3z"/>
</g>
<g id="Layer_2">
	<path class="st2" d="M5.8,4.3C8.3,6.1,11,9.9,12,12c1-2,3.7-5.8,6.2-7.7c1.8-1.3,4.7-2.4,4.7,0.9c0,0.7-0.4,5.6-0.6,6.4
		c-0.8,2.8-3.6,3.5-6.1,3.1c4.4,0.7,5.5,3.2,3.1,5.7c-4.6,4.7-6.6-1.2-7.1-2.7C12,17.4,12,17.2,12,17.4c0-0.1,0,0-0.1,0.3
		c-0.5,1.5-2.5,7.4-7.1,2.7c-2.4-2.5-1.3-5,3.1-5.7c-2.5,0.4-5.3-0.3-6.1-3.1c-0.2-0.8-0.6-5.7-0.6-6.4C1.1,1.9,4,2.9,5.8,4.3
		L5.8,4.3z"/>
</g>
</svg>
