<?xml version="1.0" encoding="UTF-8"?>
<svg xmlns="http://www.w3.org/2000/svg" version="1.1" viewBox="0 0 287.3 195.5">
  <!-- Generator: Adobe Illustrator 29.8.2, SVG Export Plug-In . SVG Version: 2.1.1 Build 3)  -->
  <defs>
    <style>
      .st0, .st1, .st2, .st3 {
        fill: #fff;
      }

      .st0, .st1, .st3, .st4, .st5 {
        stroke: #20274f;
        stroke-linecap: round;
      }

      .st0, .st3, .st4 {
        stroke-width: 2.5px;
      }

      .st0, .st6, .st7 {
        display: none;
      }

      .st8 {
        fill: #4764a5;
      }

      .st1, .st5 {
        stroke-width: 3px;
      }

      .st9 {
        fill: #7f9adb;
      }

      .st4, .st5 {
        fill: none;
      }

      .st10 {
        fill: #f1effe;
      }

      .st7 {
        fill: #f4f1fc;
      }

      .st11 {
        fill: #20274f;
      }

      .st12 {
        fill: #a9bdf7;
      }
    </style>
  </defs>
  <g id="Layer_1">
    <path class="st10" d="M33.5,57.8c-24.6,48.8,14.4,127,92.5,117.8,77.8-9.2,180.1-72.3,151.3-114.9C243.5,10.9,62.3.9,33.5,57.8Z"/>
    <path class="st7" d="M.2,74.1c-1.5,9.6,8.7,18.6,29.2,36.2,43.1,36.9,103.9,89,157.1,65.6,42.3-18.6,71.6-81.3,53.3-114.3C206,1,6.8,32.9.2,74.1Z"/>
    <g>
      <path class="st8" d="M108,46.2h-24.1c-2.8,0-5,2.2-5,5v14.9c0,2.8,2.2,5,5,5h24.1v-24.9Z"/>
      <path class="st12" d="M203.4,46.2h-59v24.9h59c2.8,0,5-2.2,5-5v-14.9c0-2.8-2.2-5-5-5Z"/>
      <rect class="st9" x="108" y="46.2" width="36.5" height="24.9"/>
    </g>
    <g>
      <path class="st8" d="M101.8,82.6h-18c-2.8,0-5,2.2-5,5v14.9c0,2.8,2.2,5,5,5h18v-24.9Z"/>
      <path class="st12" d="M176,82.6h-45.4v24.9h45.4c2.8,0,5-2.2,5-5v-14.9c0-2.8-2.2-5-5-5Z"/>
      <rect class="st9" x="101.8" y="82.6" width="28.8" height="24.9"/>
    </g>
    <g>
      <path class="st8" d="M97.2,119h-13.3c-2.8,0-5,2.2-5,5v14.9c0,2.8,2.2,5,5,5h13.3v-24.9Z"/>
      <path class="st12" d="M155.4,119h-35.3v24.9h35.3c2.8,0,5-2.2,5-5v-14.9c0-2.8-2.2-5-5-5Z"/>
      <rect class="st9" x="97.2" y="119" width="23" height="24.9"/>
    </g>
    <g class="st6">
      <g class="st6">
        <g>
          <path class="st2" d="M200.3,110.7c.1.6.2,1.6.7,1.8.4,0,1-.6,2-1.7,1.5-1.6,3.9-4.5,5.6-6.3,3.2-3.8,3.8-1.3,6,2,2.7,4.2,5.3,9.2,7.9,12.6,2.2,2.2,6.2-1.7,8.3-2.8,2.7-1.7,3.1-3,1.3-5.6-1.8-2.9-5.2-7.9-7.4-11.3-2.6-4-3.4-4.9,1.4-6.5,2.6-.9,6.2-2.2,8.3-3,1.4-.5,2.2-.9,2.4-1.2,0-.2,0-.5-.5-.7-5.9-3.4-38.5-23.7-43.4-26.4s-.4-.2-.5,0,0,.3,0,.5c.9,5.2,6.6,40.1,7.9,48.9Z"/>
          <path class="st4" d="M200.3,110.7c.1.6.2,1.6.7,1.8.4,0,1-.6,2-1.7,1.5-1.6,3.9-4.5,5.6-6.3,3.2-3.8,3.8-1.3,6,2,2.7,4.2,5.3,9.2,7.9,12.6,2.2,2.2,6.2-1.7,8.3-2.8,2.7-1.7,3.1-3,1.3-5.6-1.8-2.9-5.2-7.9-7.4-11.3-2.6-4-3.4-4.9,1.4-6.5,2.6-.9,6.2-2.2,8.3-3,1.4-.5,2.2-.9,2.4-1.2,0-.2,0-.5-.5-.7-5.9-3.4-38.5-23.7-43.4-26.4s-.4-.2-.5,0,0,.3,0,.5c.9,5.2,6.6,40.1,7.9,48.9Z"/>
          <path class="st5" d="M200.3,110.7c.1.6.2,1.6.7,1.8.4,0,1-.6,2-1.7,1.5-1.6,3.9-4.5,5.6-6.3,3.2-3.8,3.8-1.3,6,2,2.7,4.2,5.3,9.2,7.9,12.6,2.2,2.2,6.2-1.7,8.3-2.8,2.7-1.7,3.1-3,1.3-5.6-1.8-2.9-5.2-7.9-7.4-11.3-2.6-4-3.4-4.9,1.4-6.5,2.6-.9,6.2-2.2,8.3-3,1.4-.5,2.2-.9,2.4-1.2,0-.2,0-.5-.5-.7-5.9-3.4-38.5-23.7-43.4-26.4s-.4-.2-.5,0,0,.3,0,.5c.9,5.2,6.6,40.1,7.9,48.9Z"/>
        </g>
      </g>
      <g>
        <line class="st4" x1="208" y1="53.5" x2="201.6" y2="57.8"/>
        <line class="st4" x1="197.1" y1="46.2" x2="195.6" y2="53.8"/>
        <line class="st4" x1="184.2" y1="48.8" x2="188.5" y2="55.2"/>
        <line class="st4" x1="176.9" y1="59.7" x2="184.5" y2="61.2"/>
        <line class="st4" x1="179.4" y1="72.6" x2="185.9" y2="68.3"/>
      </g>
      <path class="st3" d="M192.2,61.2c.4,4.7,7.4,43.9,8.4,50.5.3,1.1.6.6,1.7-.3,1.4-1.4,4.6-4.7,6.6-6.7,1.8-1.8,2.5-2.1,3.5-.6,2,2.9,7.5,11.4,9.6,14.6,1.5,2.5,3.3.7,5.4-.6,1.7-1.4,6.5-3.3,5.3-5.7-1.8-3.7-6.4-11.4-8.4-15.1-1.2-2.1-.7-2.6,2.2-3.9,2.7-1.2,6.9-3.1,8.7-3.9,1-.5,1.4-.6,1.4-1s-39.7-24.9-44.2-27.4c0,0-.1,0-.2,0s0,.2,0,.2Z"/>
    </g>
    <g>
      <g class="st6">
        <g>
          <path class="st1" d="M200.3,100.5c.1.5.1,1.3.5,1.4.3,0,.8-.4,1.6-1.3,1.1-1.3,3-3.5,4.3-4.9,2.5-2.9,2.9-1,4.6,1.5,2.1,3.2,4.1,7.1,6.1,9.7,1.7,1.7,4.8-1.3,6.4-2.1,2.1-1.3,2.4-2.4,1-4.3-1.4-2.2-4-6.1-5.7-8.7-2-3.1-2.6-3.8,1.1-5,2-.7,4.8-1.7,6.4-2.3,1.1-.4,1.7-.7,1.8-1,0-.2,0-.4-.4-.6-4.5-2.6-29.7-18.3-33.5-20.3s-.3-.1-.4,0,0,.3,0,.4c.7,4,5.1,30.9,6.1,37.7Z"/>
          <path class="st11" d="M218.6,108.7c-.7,0-1.4-.2-2.1-.9h0c-1.3-1.8-2.6-4-3.9-6.2-.7-1.3-1.5-2.6-2.3-3.8-.2-.4-.5-.7-.7-1-.3-.5-.7-1.1-.9-1.3-.1,0-.5.3-1.1,1-.7.7-1.5,1.7-2.3,2.6-.8.9-1.5,1.7-2,2.3-1,1.1-1.7,1.8-2.6,1.7h-.2c-1.1-.3-1.3-1.5-1.4-2.1,0,0,0-.2,0-.2h0c-1-6.9-5.5-34.6-6.1-37.7,0-.2-.2-.9.4-1.5.2-.2.8-.7,1.9-.1,2.2,1.2,10.8,6.5,19.2,11.6,6.3,3.9,12.3,7.6,14.3,8.7h.1c1.1.9,1,1.7.8,2.1-.3.8-1.2,1.1-2.5,1.6-.9.3-2.2.8-3.4,1.2-1,.4-2.1.7-3,1.1-1.3.4-1.7.7-1.9.8,0,.4.7,1.3,1.2,2l.2.3c.6,1,1.4,2.1,2.2,3.3,1.3,2,2.7,4.1,3.5,5.4.6.8,1.2,2,1,3.3-.3,1.3-1.4,2.2-2.4,2.8h0c-.3.2-.8.5-1.3.9-1.3.8-2.9,2-4.5,2ZM218.3,106.1c.6.5,2.4-.8,3.4-1.4.5-.4,1-.7,1.5-.9,1-.6,1.2-1,1.2-1.1,0-.1,0-.5-.6-1.4-.9-1.4-2.3-3.5-3.6-5.5-.8-1.2-1.5-2.3-2.2-3.3l-.2-.3c-1.2-1.8-1.9-2.9-1.5-4.2.4-1.1,1.6-1.8,3.4-2.4.9-.3,1.9-.7,3-1.1,1.3-.4,2.5-.9,3.4-1.2,0,0,0,0,0,0-2.7-1.6-7.8-4.7-13.1-8-6.5-4-13.8-8.5-17.3-10.6,1.2,7.1,4.6,28.4,5.6,35.1,0,0,0,0,0,0,.6-.6,1.3-1.4,2-2.3.8-.9,1.6-1.9,2.3-2.6.8-1,1.9-2,3.2-1.9,1.3.1,2,1.3,2.8,2.6.2.3.4.6.6,1,.8,1.2,1.6,2.6,2.3,3.8,1.3,2.1,2.5,4.2,3.7,5.7ZM200.5,100.7h0Z"/>
        </g>
      </g>
      <g>
        <path class="st11" d="M205.5,62.6c-.4,0-.8-.2-1.1-.6-.4-.6-.2-1.4.4-1.7l6.6-4.3c.6-.4,1.4-.2,1.7.4.4.6.2,1.4-.4,1.7l-6.6,4.3c-.2.1-.4.2-.7.2Z"/>
        <path class="st11" d="M199.4,58.7c0,0-.2,0-.3,0-.7-.1-1.1-.8-1-1.5l1.5-7.5c.1-.7.8-1.1,1.5-1,.7.1,1.1.8,1,1.5l-1.5,7.5c-.1.6-.6,1-1.2,1Z"/>
        <path class="st11" d="M192.2,60c-.4,0-.8-.2-1-.5l-4.4-6.4c-.4-.6-.2-1.3.3-1.7.6-.4,1.3-.2,1.7.3l4.4,6.4c.4.6.2,1.3-.3,1.7-.2.1-.5.2-.7.2Z"/>
        <path class="st11" d="M188.1,66c0,0-.2,0-.2,0l-7.8-1.5c-.7-.1-1.1-.8-1-1.5.1-.7.8-1.1,1.5-1l7.8,1.5c.7.1,1.1.8,1,1.5-.1.6-.6,1-1.2,1Z"/>
        <path class="st11" d="M182.9,77.2c-.4,0-.8-.2-1.1-.6-.4-.6-.2-1.4.4-1.7l6.6-4.3c.6-.4,1.4-.2,1.7.4.4.6.2,1.4-.4,1.7l-6.6,4.3c-.2.1-.4.2-.7.2Z"/>
      </g>
      <g>
        <path class="st2" d="M202.5,103.2c.2.9.5.5,1.3-.2,1.1-1.1,3.6-3.6,5.1-5.1,1.4-1.4,1.9-1.6,2.7-.5,1.5,2.2,5.7,8.8,7.4,11.3,1.1,1.9,2.6.5,4.2-.5,1.3-1.1,5-2.5,4.1-4.4-1.4-2.9-5-8.8-6.5-11.6-.9-1.6-.5-2,1.7-3,2.1-.9,5.3-2.4,6.7-3,.8-.4,1.1-.4,1.1-.8s-32.8-21.9-34.2-21.1,5.7,34,6.4,39Z"/>
        <path class="st11" d="M220.3,110.8c-.2,0-.4,0-.5,0-.7-.2-1.4-.7-1.9-1.5-.8-1.1-2.1-3.2-3.5-5.4-1.5-2.3-3-4.7-3.8-5.8,0,0,0,0,0,0-.2.1-.4.3-.7.7-.7.7-1.5,1.5-2.4,2.4-1.1,1.1-2.1,2.2-2.7,2.8l-.3.2c-.5.5-1.2,1.1-2,.8-.9-.3-1-1.1-1.1-1.4h0c-.2-1.4-.9-4.9-1.8-9.3-5.6-28.6-5.4-30.3-4-31.1.7-.4,1.2-.6,7.7,3.2,6.1,3.6,14.4,9,17.7,11.1,10.7,7,10.7,7.1,10.7,7.9,0,1.1-.9,1.5-1.5,1.8l-.3.2c-.9.4-2.4,1.1-3.9,1.8-1,.4-2,.9-2.8,1.3-.9.4-1.3.6-1.4.7,0,0,.1.3.3.5.6,1.2,1.6,2.8,2.6,4.6,1.5,2.6,3.1,5.4,3.9,7.1,1.2,2.4-1.5,4.1-3.1,5.1-.5.3-1,.6-1.2.8h-.1c-.2.2-.4.4-.6.5-.9.6-1.8,1.2-2.9,1.2ZM210.6,95.4c0,0,.1,0,.2,0,.9,0,1.5.7,1.8,1.3.8,1.2,2.4,3.6,3.9,5.9,1.4,2.1,2.7,4.2,3.5,5.4.2.3.3.4.3.4.2,0,1-.5,1.5-.8.2-.1.4-.3.6-.4.4-.3.9-.7,1.5-1,.7-.4,2.2-1.3,2.2-1.8-.8-1.7-2.5-4.5-3.9-7-1-1.8-2-3.4-2.6-4.6-.4-.7-.8-1.6-.5-2.5.4-1.1,1.4-1.6,2.8-2.2.8-.4,1.8-.8,2.8-1.3,1.2-.5,2.4-1.1,3.3-1.5-5.5-3.8-25.7-17-31-19.4.2,4.5,3.3,20,4.8,27.9.6,3.3,1.2,6.1,1.5,7.9.6-.6,1.3-1.4,2.1-2.2.8-.9,1.7-1.7,2.4-2.4.8-.9,1.6-1.6,2.6-1.6ZM196.1,65.4h0s0,0,0,0Z"/>
      </g>
    </g>
    <g>
      <g class="st6">
        <g>
          <path class="st2" d="M200.3,100.5c.1.5.1,1.3.5,1.4.3,0,.8-.4,1.6-1.3,1.1-1.3,3-3.5,4.3-4.9,2.5-2.9,2.9-1,4.6,1.5,2.1,3.2,4.1,7.1,6.1,9.7,1.7,1.7,4.8-1.3,6.4-2.1,2.1-1.3,2.4-2.4,1-4.3-1.4-2.2-4-6.1-5.7-8.7-2-3.1-2.6-3.8,1.1-5,2-.7,4.8-1.7,6.4-2.3,1.1-.4,1.7-.7,1.8-1,0-.2,0-.4-.4-.6-4.5-2.6-29.7-18.3-33.5-20.3s-.3-.1-.4,0,0,.3,0,.4c.7,4,5.1,30.9,6.1,37.7Z"/>
          <path class="st4" d="M200.3,100.5c.1.5.1,1.3.5,1.4.3,0,.8-.4,1.6-1.3,1.1-1.3,3-3.5,4.3-4.9,2.5-2.9,2.9-1,4.6,1.5,2.1,3.2,4.1,7.1,6.1,9.7,1.7,1.7,4.8-1.3,6.4-2.1,2.1-1.3,2.4-2.4,1-4.3-1.4-2.2-4-6.1-5.7-8.7-2-3.1-2.6-3.8,1.1-5,2-.7,4.8-1.7,6.4-2.3,1.1-.4,1.7-.7,1.8-1,0-.2,0-.4-.4-.6-4.5-2.6-29.7-18.3-33.5-20.3s-.3-.1-.4,0,0,.3,0,.4c.7,4,5.1,30.9,6.1,37.7Z"/>
          <path class="st5" d="M200.3,100.5c.1.5.1,1.3.5,1.4.3,0,.8-.4,1.6-1.3,1.1-1.3,3-3.5,4.3-4.9,2.5-2.9,2.9-1,4.6,1.5,2.1,3.2,4.1,7.1,6.1,9.7,1.7,1.7,4.8-1.3,6.4-2.1,2.1-1.3,2.4-2.4,1-4.3-1.4-2.2-4-6.1-5.7-8.7-2-3.1-2.6-3.8,1.1-5,2-.7,4.8-1.7,6.4-2.3,1.1-.4,1.7-.7,1.8-1,0-.2,0-.4-.4-.6-4.5-2.6-29.7-18.3-33.5-20.3s-.3-.1-.4,0,0,.3,0,.4c.7,4,5.1,30.9,6.1,37.7Z"/>
        </g>
      </g>
      <g>
        <line class="st4" x1="212.1" y1="57.1" x2="205.5" y2="61.4"/>
        <line class="st4" x1="200.9" y1="49.9" x2="199.4" y2="57.4"/>
        <line class="st4" x1="187.8" y1="52.4" x2="192.2" y2="58.8"/>
        <line class="st4" x1="180.3" y1="63.2" x2="188.1" y2="64.7"/>
        <line class="st4" x1="182.9" y1="76" x2="189.5" y2="71.7"/>
      </g>
      <path class="st3" d="M202.5,103.2c.2.9.5.5,1.3-.2,1.1-1.1,3.6-3.6,5.1-5.1,1.4-1.4,1.9-1.6,2.7-.5,1.5,2.2,5.7,8.8,7.4,11.3,1.1,1.9,2.6.5,4.2-.5,1.3-1.1,5-2.5,4.1-4.4-1.4-2.9-5-8.8-6.5-11.6-.9-1.6-.5-2,1.7-3,2.1-.9,5.3-2.4,6.7-3,.8-.4,1.1-.4,1.1-.8s-32.8-21.9-34.2-21.1,5.7,34,6.4,39Z"/>
    </g>
  </g>
  <g id="Layer_2">
    <polygon class="st0" points="300.3 58.7 308.9 109.9 319.2 99.4 331.1 117.6 341.2 110.8 330.7 92.2 344.8 86 300.3 58.7"/>
  </g>
</svg>