<svg fill="none" height="25px" viewBox="0 0 210 25" width="210px" xmlns="http://www.w3.org/2000/svg" transform="rotate(0) scale(1, 1)">
<path d="M0.156128 1.01562C5.375 1.43431 9.621 4.65591 9.621 11.6669V19.8779H0.156128V10.4467H5.76852C5.76852 5.6736 3.70661 3.72129 0.156128 2.8334V1.01562Z" fill="#000000"/>
<path d="M10.5892 19.8779C15.8076 19.4592 20.0541 16.2371 20.0541 9.22655V1.01562H10.5892V10.4467H16.2012C16.2012 15.2199 14.1397 17.1722 10.5892 18.0601V19.8779Z" fill="#000000"/>
<path d="M30.4147 1.01562C25.1958 1.43431 20.9498 4.65591 20.9498 11.6669V19.8779H30.4147V10.4467H24.8028C24.8028 5.6736 26.8642 3.72129 30.4147 2.8334V1.01562Z" fill="#000000"/>
<path d="M55.256 5.38094C56.0784 6.80032 56.4895 8.48924 56.4895 10.4467C56.4895 12.4052 56.0784 14.0936 55.256 15.513C54.4337 16.9315 53.3196 18.0148 51.9146 18.7596C50.5087 19.5054 48.9477 19.8779 47.2328 19.8779H41.3714V1.01609H47.2328C48.9477 1.01609 50.5087 1.389 51.9146 2.13433C53.3196 2.87966 54.4337 3.96202 55.256 5.38094ZM53.7577 10.4467C53.7577 8.95608 53.4566 7.68113 52.8559 6.62001C52.2547 5.56078 51.4412 4.75692 50.4158 4.20889C49.39 3.66134 48.2317 3.38756 46.9415 3.38756H44.1033V17.5069H46.9415C48.2317 17.5069 49.39 17.2326 50.4158 16.6846C51.4412 16.1366 52.2547 15.3336 52.8559 14.273C53.4566 13.2128 53.7577 11.9383 53.7577 10.4467ZM70.2566 9.75947C70.7245 10.9008 70.8704 12.1446 70.6938 13.4918H60.4507C60.4972 14.2919 60.6538 14.9999 60.9339 15.6074C61.2694 16.3348 61.7516 16.8961 62.3798 17.2907C63.0065 17.6867 63.7452 17.884 64.5941 17.884C65.4959 17.884 66.2425 17.673 66.8344 17.2506C67.4267 16.829 67.8119 16.2489 67.9889 15.513H70.5614C70.4025 16.4113 70.0573 17.2062 69.5272 17.8977C68.9962 18.5892 68.3072 19.1287 67.4583 19.5139C66.6095 19.9005 65.6724 20.0931 64.647 20.0931C63.3382 20.0931 62.1712 19.7971 61.1462 19.2047C60.1204 18.6114 59.3204 17.7811 58.7456 16.712C58.1709 15.6433 57.8843 14.4354 57.8843 13.0873C57.8843 11.7401 58.1709 10.5369 58.7456 9.47672C59.3204 8.41749 60.1074 7.58625 61.1068 6.98442C62.1047 6.38258 63.2323 6.0819 64.4877 6.0819C65.8494 6.0819 67.0337 6.40949 68.0423 7.0656C69.0496 7.72125 69.7878 8.61905 70.2566 9.75947ZM68.0948 11.4975C68.0948 10.8333 67.9401 10.2537 67.6307 9.75947C67.3213 9.2662 66.8966 8.88905 66.3577 8.62802C65.8178 8.36746 65.1948 8.23718 64.4877 8.23718C63.6393 8.23718 62.9141 8.42127 62.3133 8.78992C61.7112 9.15763 61.2475 9.69621 60.9204 10.4061C60.7685 10.7351 60.6561 11.1014 60.5748 11.4975H68.0948ZM85.1248 12.333H91.4369C91.4016 13.3936 91.1539 14.3273 90.6949 15.1359C90.2345 15.944 89.5943 16.577 88.7715 17.0358C87.9491 17.4932 87.0083 17.7221 85.9472 17.7221C84.656 17.7221 83.5289 17.4214 82.5658 16.8196C81.6017 16.2182 80.8551 15.3728 80.3245 14.2867C79.7944 13.1991 79.5291 11.9204 79.5291 10.4472C79.5291 8.99242 79.7944 7.72125 80.3245 6.6337C80.8551 5.54709 81.5975 4.69838 82.5528 4.08758C83.5075 3.47725 84.6212 3.17137 85.8947 3.17137C87.2908 3.17137 88.4407 3.53578 89.342 4.2627C90.2443 4.99057 90.8004 5.98324 91.0127 7.24025H93.6911C93.5494 5.9469 93.1522 4.8112 92.4985 3.83174C91.8443 2.85275 90.9509 2.1027 89.8196 1.58158C88.6874 1.06046 87.3791 0.799905 85.8947 0.799905C84.0911 0.799905 82.4993 1.20018 81.1204 1.99933C79.741 2.79894 78.6757 3.92567 77.9239 5.38094C77.1727 6.8362 76.7968 8.52464 76.7968 10.4472C76.7968 12.4411 77.1862 14.1658 77.9639 15.6202C78.7416 17.0754 79.8116 18.1852 81.1734 18.948C82.5347 19.7117 84.0725 20.0931 85.7883 20.0931C87.0436 20.0931 88.1884 19.833 89.2226 19.3124C90.2573 18.7913 90.9862 18.1181 91.4109 17.2907V19.8779H93.9569V10.1234H85.1248V12.333ZM100.881 6.7687C100.129 7.22657 99.5586 7.82415 99.1702 8.56052V6.29714H96.6502V19.8779H99.1702V14.5156C99.1702 13.2227 99.3426 12.122 99.6873 11.2152C100.032 10.3075 100.492 9.62541 101.067 9.16707C101.641 8.70873 102.3 8.48027 103.043 8.48027C103.325 8.48027 103.616 8.5067 103.917 8.56052C104.219 8.61433 104.518 8.70448 104.819 8.83004V6.35095C104.43 6.17158 103.917 6.0819 103.281 6.0819C102.433 6.0819 101.632 6.31083 100.881 6.7687ZM115.63 12.1446C115.63 13.294 115.466 14.3004 115.139 15.1618C114.811 16.0247 114.343 16.6803 113.734 17.1297C113.123 17.5781 112.394 17.8033 111.545 17.8033C110.643 17.8033 109.922 17.5205 109.384 16.9541C108.844 16.3886 108.575 15.5937 108.575 14.569V6.29714H106.055V14.9735C106.055 16.0341 106.263 16.9499 106.678 17.7226C107.093 18.4948 107.681 19.083 108.441 19.487C109.202 19.8915 110.05 20.094 110.988 20.094C112.031 20.094 112.954 19.8642 113.76 19.4063C114.563 18.948 115.187 18.3419 115.629 17.5876V19.8779H118.176V6.29714H115.629L115.63 12.1446ZM138.761 17.8307C138.16 17.8307 137.691 17.6334 137.355 17.2373C137.02 16.8418 136.851 16.2668 136.851 15.513V8.42552H140.167V6.29714H136.851V2.87494H134.279V6.29714H129.94L126.166 16.45L122.354 6.29714H119.622L124.842 19.8165L122.832 24.7822H125.484L131.798 8.42552H134.279V15.7287C134.279 16.6629 134.459 17.4578 134.822 18.1129C135.185 18.7691 135.68 19.2628 136.308 19.5946C136.936 19.9279 137.647 20.0931 138.443 20.0931C138.778 20.0931 139.102 20.0667 139.41 20.0124C139.72 19.959 139.998 19.8694 140.246 19.7429V17.5611C140.034 17.6334 139.796 17.6952 139.531 17.749C139.265 17.8033 139.008 17.8307 138.761 17.8307ZM153.271 9.75947C153.74 10.9008 153.885 12.1446 153.709 13.4918H143.466C143.513 14.2919 143.669 14.9999 143.949 15.6074C144.284 16.3348 144.767 16.8961 145.395 17.2907C146.022 17.6867 146.76 17.884 147.61 17.884C148.511 17.884 149.258 17.673 149.849 17.2506C150.442 16.829 150.827 16.2489 151.004 15.513H153.576C153.418 16.4113 153.072 17.2062 152.542 17.8977C152.012 18.5892 151.322 19.1287 150.473 19.5139C149.624 19.9005 148.687 20.0931 147.662 20.0931C146.354 20.0931 145.186 19.7971 144.162 19.2047C143.136 18.6114 142.336 17.7811 141.761 16.712C141.186 15.6433 140.899 14.4354 140.899 13.0873C140.899 11.7401 141.186 10.5369 141.761 9.47672C142.336 8.41749 143.122 7.58625 144.122 6.98442C145.119 6.38258 146.248 6.0819 147.503 6.0819C148.864 6.0819 150.049 6.40949 151.057 7.0656C152.065 7.72125 152.802 8.61905 153.271 9.75947ZM151.111 11.4975C151.111 10.8333 150.955 10.2537 150.646 9.75947C150.336 9.2662 149.912 8.88905 149.373 8.62802C148.833 8.36746 148.21 8.23718 147.503 8.23718C146.654 8.23718 145.929 8.42127 145.328 8.78992C144.726 9.15763 144.263 9.69621 143.935 10.4061C143.783 10.7351 143.671 11.1014 143.59 11.4975H151.111ZM160.183 6.7687C159.431 7.22657 158.862 7.82415 158.472 8.56052V6.29714H155.953V19.8779H158.472V14.5156C158.472 13.2227 158.645 12.122 158.99 11.2152C159.334 10.3075 159.794 9.62541 160.368 9.16707C160.943 8.70873 161.602 8.48027 162.345 8.48027C162.627 8.48027 162.919 8.5067 163.22 8.56052C163.52 8.61433 163.821 8.70448 164.122 8.83004V6.35095C163.733 6.17158 163.22 6.0819 162.583 6.0819C161.735 6.0819 160.934 6.31083 160.183 6.7687ZM182.164 12.2659C182.51 12.9216 182.682 13.6362 182.682 14.408C182.682 15.4682 182.417 16.416 181.887 17.2506C181.356 18.086 180.618 18.7332 179.671 19.1911C178.726 19.6489 177.67 19.8779 176.502 19.8779H169.129V1.01562H176.45C177.492 1.01562 178.412 1.20915 179.209 1.5948C180.003 1.98186 180.627 2.53461 181.077 3.25209C181.529 3.97099 181.754 4.7791 181.754 5.67737C181.754 6.30658 181.625 6.89945 181.369 7.45597C181.113 8.01249 180.768 8.48924 180.335 8.88386C179.901 9.27942 179.438 9.54894 178.943 9.69244C179.614 9.85387 180.233 10.1597 180.799 10.6086C181.365 11.058 181.821 11.6103 182.164 12.2659ZM171.861 8.72195H176.105C176.652 8.72195 177.165 8.61008 177.643 8.38539C178.12 8.16071 178.487 7.84209 178.743 7.42859C178.999 7.01557 179.128 6.5577 179.128 6.05452C179.128 5.55181 178.999 5.09394 178.743 4.68045C178.487 4.26742 178.12 3.9488 177.643 3.72412C177.165 3.49943 176.652 3.38709 176.105 3.38709H171.861V8.72195ZM179.924 14.273C179.924 13.6443 179.765 13.0873 179.446 12.602C179.128 12.1172 178.694 11.7363 178.147 11.4574C177.599 11.1793 176.971 11.0396 176.264 11.0396H171.861V17.5069H176.264C176.971 17.5069 177.599 17.3676 178.147 17.0891C178.694 16.8111 179.128 16.4203 179.446 15.9171C179.765 15.4144 179.924 14.8659 179.924 14.273ZM189.024 6.7687C188.272 7.22657 187.702 7.82415 187.313 8.56052V6.29714H184.793V19.8779H187.313V14.5156C187.313 13.2227 187.485 12.122 187.83 11.2152C188.174 10.3075 188.634 9.62541 189.209 9.16707C189.784 8.70873 190.442 8.48027 191.186 8.48027C191.467 8.48027 191.76 8.5067 192.06 8.56052C192.361 8.61433 192.661 8.70448 192.963 8.83004V6.35095C192.573 6.17158 192.06 6.0819 191.424 6.0819C190.575 6.0819 189.775 6.31083 189.024 6.7687ZM194.252 3.60281H196.983V0.746094H194.252V3.60281ZM194.331 6.29714H196.905V19.8779H194.331V6.29714ZM202.9 17.5069C202.609 17.2732 202.462 16.8333 202.462 16.1861V0.799905H199.916V16.4557C199.916 17.893 200.301 18.8861 201.07 19.4332C201.839 19.9812 202.851 20.1837 204.107 20.0398V17.7754C203.595 17.8307 203.192 17.74 202.9 17.5069ZM208.777 17.5069C208.485 17.2732 208.34 16.8333 208.34 16.1861V0.799905H205.793V16.4557C205.793 17.893 206.178 18.8861 206.947 19.4332C207.717 19.9812 208.728 20.1837 209.985 20.0398V17.7754C209.471 17.8307 209.069 17.74 208.777 17.5069Z" fill="#000000"/>
</svg>