<?xml version="1.0" encoding="utf-8"?>
<!-- Generator: Adobe Illustrator 27.9.0, SVG Export Plug-In . SVG Version: 6.00 Build 0)  -->
<svg version="1.1" id="Layer_1" xmlns="http://www.w3.org/2000/svg" xmlns:xlink="http://www.w3.org/1999/xlink" x="0px" y="0px"
	 viewBox="0 0 550 550" style="enable-background:new 0 0 550 550;" xml:space="preserve">
<style type="text/css">
	.st0{fill:#2C3773;}
	.st1{fill:#2A3673;}
	.st2{display:none;fill:#E0E5E3;}
</style>
<path class="st0" d="M224.4,246.8c0.7,0,1.4,0,2.2-0.1c0.7,0,1.4,0,2.2,0c0.6,0,1.3,0,1.9,0c3.6,0.5,7,2.1,10.4,3.4
	c0,28.4,0,56.8,0,86c-15.4,2.6-32.7,3.2-45.9-6.2c-4.3-3.7-7.4-7.8-10.1-12.8c-0.4-0.8-0.8-1.6-1.3-2.4c-5.7-13.6-4.7-32,0.7-45.5
	c4.6-9.2,11.3-16.4,21.2-19.9C211.8,247.3,217.9,246.8,224.4,246.8z"/>
<path class="st1" d="M525.4,277.4c0-2.3-0.1-4.6-0.1-6.9c0-2.3,0-4.6,0-6.9c0-1.1,0-2.2,0-3.3c-0.1-17.9-3.5-34.8-8.3-51.9
	c-0.3-1.2-0.3-1.2-0.6-2.3c-3.1-11.2-6.3-22.1-11.5-32.6c-0.9-1.9-1.9-3.8-2.7-5.7c-2-4.6-4.2-9-6.8-13.3c-0.9-1.4-1.7-2.9-2.6-4.3
	c-0.4-0.7-0.9-1.4-1.3-2.1c-1.2-2-2.4-4-3.5-6c-4.7-8.5-10.8-16.1-16.9-23.6c-0.7-0.9-1.4-1.7-2.1-2.5c-6.7-8.5-13.7-16.3-21.9-23.4
	c-3.3-2.8-6.5-5.8-9.8-8.8c-2.7-2.6-5.4-4.8-8.5-6.9c-2.8-1.8-2.8-1.8-4.8-3.6c-3.7-3.5-7.4-6.2-11.8-8.8c-4.5-2.5-8.8-5.1-13.1-7.8
	c-3.1-2-6.1-3.7-9.5-5.2c-2-0.8-4-1.7-5.9-2.6C372,43,360.5,38.1,347.7,34.7c-1.4-0.4-1.4-0.4-2.7-0.7c-3-0.8-6-1.6-9-2.4
	c-1-0.3-2-0.5-3-0.8c-17.2-4.6-34-6.2-51.8-6.1c-3.5,0-6.9,0.1-10.4,0.1c-2.3,0-4.6,0-6.9,0c-1.1,0-2.2,0-3.3,0
	c-17.9,0.1-34.9,3.5-52.1,8.2c-0.8,0.2-1.5,0.4-2.3,0.6c-11.3,3.1-22.2,6.4-32.8,11.7c-3.2,1.7-3.2,1.7-6.1,2.7
	c-6.4,2.3-11.9,5.7-17.6,9.4c-2.9,1.9-5.8,3.7-9,5.3C138,64,138,64,136,65.4c-3.7,2.9-7.4,5.6-11.3,8.3c-2.5,1.7-4.7,3.3-6.8,5.4
	c-1.9,2-1.9,2-3.9,3.5c-9,6.6-9,6.6-24.4,23.3c-1.9,2-3.7,4.1-5.6,6.1c-2.8,2.8-4.9,4.8-6.9,8.3c-1.1,2-2.2,3.7-3.7,5.5
	c-3.5,3.7-6.3,7.4-8.9,11.9c-2.5,4.5-5.1,8.8-7.8,13.1c-2,3.1-3.7,6.1-5.2,9.5c-0.8,2-1.7,4-2.6,5.9C43,178,38.1,189.5,34.7,202.3
	c-0.2,0.9-0.5,1.8-0.7,2.7c-0.8,3-1.6,6-2.4,9c-0.3,1-0.5,2-0.8,3c-4.6,17.2-6.2,34-6.1,51.8c0,3.5,0.1,6.9,0.1,10.4
	c0,2.3,0,4.6,0,6.9c0,1.1,0,2.2,0,3.3c0.1,17.9,3.5,34.9,8.2,52.1c0.2,0.8,0.4,1.5,0.6,2.3c3.1,11.3,6.4,22.2,11.7,32.8
	c1.7,3.2,1.7,3.2,2.7,6.1c2.3,6.4,5.7,11.9,9.4,17.6c1.9,2.9,3.7,5.8,5.3,9c1.4,2.7,1.4,2.7,2.6,4.7c0.5,0.6,0.9,1.1,1.3,1.7
	c0.8,1,0.8,1,1.6,2.1c1.3,1.7,2.6,3.4,3.9,5.1c12.8,17.2,27,32.7,43.7,46.1c2.3,1.8,4.7,3.6,7,5.5c1,0.8,1,0.8,1.9,1.6
	c1.3,1.1,2.7,2.2,4,3.3c3.6,3,6.7,5.7,11.3,7c1,0.2,2,0.4,3,0.6c0,0.7,0,1.3,0,2c7.8,4.5,15.6,9,23.6,12.9c0.8,0.4,1.6,0.8,2.4,1.1
	c10.8,5.1,21.7,9.1,33.2,12.3c1.4,0.4,1.4,0.4,2.8,0.7c3,0.8,6,1.6,9,2.4c1,0.3,2,0.5,3,0.8c17.2,4.6,34.1,6.2,51.9,6.1
	c3.5,0,7-0.1,10.4-0.1c2.3,0,4.6,0,6.9,0c1.1,0,2.2,0,3.3,0c5.3,0,10.6,0,15.9-0.7c1.2-0.2,2.4-0.4,3.6-0.5
	c32.1-4.7,64.4-14.8,92-31.9c1.7-1,3.3-2.1,5-3.1c6.8-3.8,12.9-8.1,19-12.9c0.6-0.5,1.1-0.9,1.7-1.4c1.2-1,2.5-1.9,3.7-2.9
	c1.2-0.9,2.4-1.9,3.6-2.8c16.6-13,30.2-28.3,42.8-45.1c0.7-1,1.5-1.9,2.2-2.9c2.9-3.7,5.6-7.3,8-11.4c1.1-1.9,2.1-3.8,3.3-5.7
	c9.4-15.1,17.7-31.9,22.6-49c0.6-2.2,1.2-4.3,1.9-6.5c0.6-2,1.2-4,1.8-6c0.3-1.1,0.6-2.1,0.9-3.2C523.7,319,525.6,298.5,525.4,277.4
	z M327,125c17.8,0,35.6,0,54,0c0,18.2,0,36.3,0,55c-17.8,0-35.6,0-54,0C327,161.8,327,143.7,327,125z M255.1,379.8
	c-1.9,0.2-1.9,0.2-3.8,0.4c-23.8,2.1-46.4,1.6-69.4-5.2c-0.9-0.2-1.8-0.5-2.7-0.7c-15-4-27-12.9-37.3-24.3c-0.9-1-0.9-1-1.8-2
	c-15.1-18.9-16.4-48.9-13.9-71.8c0.8-4.9,2.1-9.5,3.7-14.2c0.2-0.7,0.4-1.3,0.7-2c2.9-8.6,6.7-15.9,12.3-23c0.6-0.8,1.1-1.6,1.7-2.4
	c12.5-17.3,33.7-26.1,54.1-30.1c5.6-0.8,11.3-0.6,17-0.6c2.2,0,4.4,0,6.6,0c1.4,0,2.8,0,4.2,0c1.3,0,2.5,0,3.8,0
	C234,204,234,204,241,206c0-27.1,0-54.1,0-82c17.8,0,35.6,0,54,0c0,82.2,0,164.3,0,249C265.7,378.9,265.7,378.9,255.1,379.8z
	 M374,399c-0.2,0.9-0.4,1.8-0.7,2.8c-5.3,20.7-21.2,35.7-38.8,46.2c-1.8,1.1-3.7,2.1-5.6,3c-0.9,0.5-1.8,0.9-2.8,1.4
	c-4.9,0.9-7.9-1.2-12.2-3.4c-1.8-0.9-3.6-1.7-5.4-2.6c-2.7-1.3-5.4-2.6-8.1-3.9c-2.1-1-4.2-2-6.2-3c-6.4-3.1-12.9-6.3-19.3-9.5
	c0-0.7,0-1.3,0-2c0.5-0.3,1-0.5,1.6-0.8c17.7-8.8,34.1-18.5,41.4-38c8.2-25.1,8.2-50.1,8.4-76.2c0-3.7,0-7.5,0.1-11.2
	c0-7.1,0.1-14.1,0.1-21.2c0-8,0.1-16.1,0.2-24.1c0.1-16.5,0.2-33,0.3-49.5c17.8,0,35.6,0,54,0c0.1,19,0.1,37.9,0.2,56.9
	c0,8.8,0,17.6,0.1,26.4c0,7.7,0,15.4,0.1,23.1c0,4.1,0,8.1,0,12.2C381.4,350.3,381.1,375,374,399z"/>
<path class="st2" d="M155,224c0.7,0.3,1.3,0.7,2,1c-3.6,3.6-7.3,7.3-11,11c0-4.2,2.2-6.1,5-9C153.3,225.1,153.3,225.1,155,224z"/>
</svg>
