<?xml version="1.0" encoding="UTF-8"?>
<!-- Generator: Adobe Illustrator 27.9.0, SVG Export Plug-In . SVG Version: 6.00 Build 0)  -->
<svg enable-background="new 0 0 550 550" version="1.1" viewBox="0 0 550 550" xml:space="preserve" xmlns="http://www.w3.org/2000/svg">
<style type="text/css">
	.st0{fill:#2C3773;}
	.st1{fill:#2A3673;}
	.st2{display:none;fill:#E0E5E3;}
</style>
<path class="st0" d="m224 247c0.7 0 1 0 2-0.1h2 2c4 0.5 7 2 10 3v86c-15 3-33 3-46-6-4-4-7-8-10-13-0.4-0.8-0.8-2-1-2-6-14-5-32 0.7-46 5-9 11-16 21-20 6-2 12-2 19-2z"/>
<path class="st1" d="m525 277c0-2-0.1-5-0.1-7v-7-3c-0.1-18-4-35-8-52-0.3-1-0.3-1-0.6-2-3-11-6-22-12-33-0.9-2-2-4-3-6-2-5-4-9-7-13-0.9-1-2-3-3-4-0.4-0.7-0.9-1-1-2-1-2-2-4-4-6-5-8-11-16-17-24-0.7-0.9-1-2-2-2-7-8-14-16-22-23-3-3-6-6-10-9-3-3-5-5-8-7-3-2-3-2-5-4-4-4-7-6-12-9-4-2-9-5-13-8-3-2-6-4-10-5-2-0.8-4-2-6-3-12-6-23-11-36-14-1-0.4-1-0.4-3-0.7-3-0.8-6-2-9-2-1-0.3-2-0.5-3-0.8-17-5-34-6-52-6-4 0-7 0.1-10 0.1h-7-3c-18 0.1-35 4-52 8-0.8 0.2-2 0.4-2 0.6-11 3-22 6-33 12-3 2-3 2-6 3-6 2-12 6-18 9-3 2-6 4-9 5-3 1-3 1-5 3-4 3-7 6-11 8-2 2-5 3-7 5-2 2-2 2-4 4-9 7-9 7-24 23-2 2-4 4-6 6-3 3-5 5-7 8-1 2-2 4-4 6-4 4-6 7-9 12-2 4-5 9-8 13-2 3-4 6-5 10-0.8 2-2 4-3 6-6 12-11 23-14 36-0.2 0.9-0.5 2-0.7 3l-2 9c-0.3 1-0.5 2-0.8 3-5 17-6 34-6 52 0 4 0.1 7 0.1 10v7 3c0.1 18 4 35 8 52 0.2 0.8 0.4 2 0.6 2 3 11 6 22 12 33 2 3 2 3 3 6 2 6 6 12 9 18 2 3 4 6 5 9 1 3 1 3 3 5 0.5 0.6 0.9 1 1 2 0.8 1 0.8 1 2 2 1 2 3 3 4 5 13 17 27 33 44 46 2 2 5 4 7 6 1 0.8 1 0.8 2 2 1 1 3 2 4 3 4 3 7 6 11 7l3 0.6v2c8 4 16 9 24 13 0.8 0.4 2 0.8 2 1 11 5 22 9 33 12 1 0.4 1 0.4 3 0.7 3 0.8 6 2 9 2 1 0.3 2 0.5 3 0.8 17 5 34 6 52 6 4 0 7-0.1 10-0.1h7 3c5 0 11 0 16-0.7 1-0.2 2-0.4 4-0.5 32-5 64-15 92-32 2-1 3-2 5-3 7-4 13-8 19-13 0.6-0.5 1-0.9 2-1 1-1 2-2 4-3 1-0.9 2-2 4-3 17-13 30-28 43-45 0.7-1 2-2 2-3 3-4 6-7 8-11 1-2 2-4 3-6 9-15 18-32 23-49 0.6-2 1-4 2-6l2-6c0.3-1 0.6-2 0.9-3 6-20 8-41 8-62zm-198-152h54v55h-54v-55zm-72 255-4 0.4c-24 2-46 2-69-5-0.9-0.2-2-0.5-3-0.7-15-4-27-13-37-24-0.9-1-0.9-1-2-2-15-19-16-49-14-72 0.8-5 2-10 4-14 0.2-0.7 0.4-1 0.7-2 3-9 7-16 12-23 0.6-0.8 1-2 2-2 12-17 34-26 54-30 6-0.8 11-0.6 17-0.6h7 4 4c4 0.1 4 0.1 11 2v-82h54v249c-29 6-29 6-40 7zm119 19c-0.2 0.9-0.4 2-0.7 3-5 21-21 36-39 46-2 1-4 2-6 3-0.9 0.5-2 0.9-3 1-5 0.9-8-1-12-3-2-0.9-4-2-5-3l-8-4c-2-1-4-2-6-3-6-3-13-6-19-10v-2c0.5-0.3 1-0.5 2-0.8 18-9 34-18 41-38 8-25 8-50 8-76 0-4 0-8 0.1-11 0-7 0.1-14 0.1-21 0-8 0.1-16 0.2-24l0.3-50h54c0.1 19 0.1 38 0.2 57 0 9 0 18 0.1 26 0 8 0 15 0.1 23v12c0 25-0.3 49-7 73z"/>
<path class="st2" d="m155 224c0.7 0.3 1 0.7 2 1l-11 11c0-4 2-6 5-9 2-2 2-2 4-3z"/><g fill="#1a1a1a">
<path d="m249 524c-18-2-48-9-67-16-15-6-38-18-39-21-0.2-0.7-0.8-1-1-1-3-0.01-8-3-15-9-4-3-10-8-14-11-8-7-22-20-29-29-9-11-19-24-20-27-0.9-2-4-7-7-12-3-5-6-11-8-14-1-3-4-8-5-11-6-13-14-41-17-62-1-7-1-12-2-29-0.5-32 0.8-44 7-69 4-16 7-26 12-36 2-4 5-10 6-13 3-8 17-30 21-35 2-2 5-6 6-8 2-3 22-25 28-31 1-1 5-4 8-7 3-2 7-5 9-7 6-5 16-12 20-14 2-0.9 6-3 8-5 7-5 13-8 17-9 2-0.8 7-3 10-4 14-6 41-14 62-17 7-1 12-1 29-2 32-0.5 44 0.8 69 7 22 6 28 8 49 18 14 7 29 16 35 21 2 2 6 5 7 6 4 3 22 19 27 24 5 5 17 20 23 27 6 9 19 30 25 42 6 13 9 21 14 38 7 25 8 37 8 65 4e-4 33-2 45-10 74-7 23-11 33-23 54-9 15-22 32-35 46-22 23-53 45-81 58-21 9-50 17-72 19-7 0.8-45 0.7-55-0.09zm81-73c9-5 20-13 27-20 9-10 14-19 18-33 7-26 8-37 7-126l-0.4-65h-27c-15 0-27 0.07-27 0.2-0.02 0.09-0.3 30-0.6 66s-0.9 70-1 75c-1 17-4 32-8 42-5 13-17 24-36 34-5 2-7 4-7 5-6e-3 0.9 5 4 22 12 12 6 23 11 24 11 2 0.7 6 0.1 9-1zm-70-71c5-0.6 14-2 22-4l13-3 0.3-250h-54v82l-3-0.9c-5-1-34-1-41 0.1-12 2-26 8-36 15-9 6-20 18-25 30-3 6-7 17-8 24-2 7-2 33 2e-3 42 3 18 8 28 19 39 11 11 22 18 37 22 9 2 17 4 26 5 7 0.9 41 0.3 51-0.9zm122-227v-28h-54v55h54z" stroke-width=".6"/><path d="m215 337c-12-2-21-7-27-16-5-8-7-15-7-27-0.02-16 4-27 13-36 8-8 14-10 29-11 7-0.4 8-0.3 13 1l5 2-0.3 86-6 0.7c-6 0.8-15 0.9-20 0.2z" stroke-width=".6"/><path d="m241 281c7e-3 -1 0.03-7 0.05-14 0.02-7 0.05-13 0.06-14l0.01-2-2-0.6c-1-0.3-2-0.7-3-0.9-2-0.8-3-1-4-1-2-0.4-3-0.4-7-0.3-1 0.05-2 0.09-3 0.2-0.5 0.03-1 0.05-1 0.05-0.05 8e-5 -0.05-8e-3 -0.05-0.2v-0.2l0.2-0.01c0.3-0.02 2-0.06 4-0.08 1-0.01 2-0.03 2-0.05 0.2-0.02 0.7-0.03 2-0.03l2-1e-3 0.4 0.07c1 0.2 3 0.5 4 1 1 0.3 2 0.5 4 1 0.9 0.3 2 0.7 2 0.7l0.3 0.1v33h-0.6z" stroke-width=".02"/><path d="m221 338c-5-0.2-9-0.9-13-2l-0.3-0.08-0.01-0.2c-0.01-0.2-4e-3 -0.2 0.07-0.2 0.04 0.01 0.4 0.1 0.8 0.2 3 0.8 6 1 9 2 2 0.2 4 0.2 6 0.2 4 4e-4 7-0.1 10-0.4 1-0.1 8-0.9 8-1 0.02-0.02 0.2-42 0.2-47l4e-4 -2h0.6v49l-0.1 0.03c-0.3 0.05-3 0.4-4 0.6-4 0.5-7 0.8-10 1-1 0.06-5 0.09-6 0.04z" stroke-width=".04"/><path d="m241 294v-7h-0.6v-4h0.6v9c0 5-6e-3 9-0.01 9-7e-3 0-0.01-3-0.01-7z" stroke-width=".03"/><path d="m180 293c0-2 0.2-5 0.5-7 0.4-3 1-7 2-10 0.8-3 2-6 2-7 2-4 4-7 6-9 0.6-0.7 3-3 3-3 4-3 8-6 13-7 4-1 8-2 12-2l0.5-0.03v0.3l-0.6 0.05c-7 0.5-12 2-16 3-4 2-7 4-10 8-7 7-11 16-12 27-0.2 2-0.4 5-0.4 7l-5e-4 0.9h-0.5z" stroke-width=".04"/><path d="m206 335c-5-2-9-4-12-6-4-3-7-7-9-12-0.4-0.7-0.8-1-1-2-0.4-0.7-0.7-2-1-3-2-5-3-11-3-17l-0.04-2h0.5l0.04 2c0.2 10 2 16 6 23 1 2 3 4 4 6 0.9 1 3 3 4 4 3 3 7 5 11 6 1 0.3 1 0.4 1 0.6 0.03 0.1 0.03 0.2 3e-3 0.2-0.02-7e-4 -0.7-0.2-1-0.5z" stroke-width=".07"/><path d="m258 124v-0.1h11v0.2h-11z" stroke-width=".006"/><path d="m252 124v-0.1h6v0.2h-6z" stroke-width=".009"/><path d="m273 124v-0.1h22v0.2h-22z" stroke-width=".02"/><g stroke-width=".01"><path d="m241 168v-8h0.4v17h-0.4z"/><path d="m241 151v-8h0.4v16h-0.4z"/><path d="m241 137v-6h0.4v11h-0.4z"/><path d="m241 128v-4h10v0.2h-9v8h-0.4z"/><path d="m250 124v-0.1h2v0.2h-2z"/><path d="m270 124c0.5-1e-3 1-1e-3 2 0 0.5 1e-3 0.1 3e-3 -0.9 3e-3 -1 0-1-1e-3 -0.9-3e-3z"/><path d="m269 124v-0.1l5 3e-3c4 2e-3 5 3e-3 2 5e-3l-4 3e-3v0.2h-4z"/><path d="m241 185v-8h0.4v17h-0.4z"/><path d="m240 206c-3-0.8-4-1-5-1-0.3-0.05-0.2-0.05 0.2-4e-3 1 0.1 2 0.2 2 0.4 0.1 0.03 3 0.9 3 0.9 0.01 4e-3 0.01-1 0.01-6v-6h0.4v12l-0.7-2e-3z"/><path d="m241 206-0.3-0.1 0.3-3e-3c0.2-1e-3 0.3-9e-4 0.3 1e-3 2e-3 2e-3 3e-3 0.05 1e-3 0.1l-3e-3 0.1z"/><path d="m213 204c-0.8-5e-3 -2-8e-3 -3-6e-3s-2-6e-5 -2-4e-3c4e-3 -3e-3 0.2-0.01 0.4-0.02 0.2-7e-3 0.6-0.02 0.7-0.02 5-0.1 11-0.2 15-0.08 0.3 6e-3 0.7 0.01 0.8 0.02l0.3 7e-3v0.1l-5-2e-3c-3-1e-3 -6-6e-3 -7-0.01z"/><path d="m225 204c0-0.05 3e-3 -0.06 0.02-0.06 0.04 2e-4 1 0.03 2 0.04 0.6 0.02 2 0.05 2 0.07 0.1 4e-3 -0.7 9e-3 -2 9e-3l-2 2e-3z"/><path d="m189 207v-0.2l0.3-0.09c2-0.6 4-1 6-1 0.5-0.1 1-0.2 1-0.3 1-0.2 2-0.3 4-0.5 0.5-0.04 0.6-0.04 0.3-6e-3 -0.8 0.08-1 0.2-2 0.2-0.3 0.04-0.5 0.08-0.9 0.2-3 0.6-6 1-9 2-0.3 0.07-0.5 0.1-0.5 0.1-5e-3 0-9e-3 -0.07-9e-3 -0.2z"/><path d="m175 211v-0.1l0.5-0.2c4-2 8-3 12-4 0.4-0.1 1-0.3 1-0.3 5e-3 0 9e-3 0.07 9e-3 0.2v0.2l-0.4 0.1c-4 1-8 3-12 4-0.3 0.1-0.9 0.4-1 0.4l-0.04 0.02z"/><path d="m164 217 3e-4 -0.1 0.1-0.06c0.7-0.4 1-0.6 1-0.7 3-2 6-3 9-4 0.5-0.2 1-0.6 1-0.6 5e-3 0 8e-3 0.04 6e-3 0.09l-3e-3 0.09-0.6 0.3c-0.7 0.3-0.9 0.4-1 0.6-3 1-6 3-9 5l-0.2 0.1z"/><path d="m154 224v-0.1l0.3-0.3c2-2 3-3 5-4 0.7-0.5 2-1 3-2 0.4-0.3 1-0.9 2-1 4e-3 -2e-3 8e-3 0.05 8e-3 0.1v0.1l-0.2 0.1c-3 2-6 4-9 6-0.2 0.2-0.4 0.3-0.5 0.4-0.07 0.06-0.1 0.1-0.2 0.1-0.02 0.01-0.02 8e-3 -0.02-0.09z"/><path d="m145 234c1-2 2-3 3-4 2-2 4-4 6-6 0.1-0.1 0.2-0.2 0.3-0.2 0.02-0.01 0.02-9e-3 0.02 0.09l-1e-4 0.1-0.2 0.1c-3 3-6 6-9 10l-0.3 0.4-0.3 1e-3z"/></g><path d="m126 279c0.02-0.2 0.07-0.8 0.1-1 0.2-2 0.4-4 0.8-5 2-7 5-17 8-22 2-4 5-9 8-13 1-2 2-3 2-3 0.1 0 0.1 0.02-0.1 0.4-0.1 0.2-0.5 0.7-0.9 1-0.4 0.5-0.9 1-1 2-4 5-7 11-10 17-0.4 1-1 3-1 4-0.04 0.1-0.2 0.7-0.4 1-0.4 1-2 5-2 7-0.8 3-2 6-2 9-0.09 0.6-0.4 3-0.4 4 0 0.03-0.04 0.06-0.09 0.06-0.08 0-0.09-0.06-0.06-0.3z" stroke-width=".06"/><path d="m134 340c-1-2-2-4-3-7-2-5-3-11-5-18-0.1-0.6-0.3-2-0.3-2l-0.01-0.09h0.3l0.09 0.6c0.7 5 2 9 3 13 1 4 3 8 5 12 0.2 0.5 0.6 1 0.7 1 4e-3 7e-3 -0.06 0.01-0.1 0.01h-0.1z" stroke-width=".02"/><path d="m126 313c-0.03-0.1-0.2-2-0.3-3-0.2-2-0.4-6-0.4-7-8e-3 -0.4-6e-3 -0.4 0.05 0.5 0.2 3 0.6 7 1 10l0.03 0.2h-0.2c-0.1 0-0.2-4e-3 -0.2-0.03z" stroke-width=".02"/><g stroke-width=".01"><path d="m157 364c-3-2-5-4-8-6-2-2-5-4-6-6-3-3-5-6-7-9-0.3-0.5-1-2-1-2-6e-3 -0.02 0.02-0.02 0.1-0.02l0.1 5e-4 0.2 0.3c1 2 3 4 4 6 0.3 0.4 2 3 4 4 1 2 3 3 5 5 3 3 6 5 9 7l0.4 0.3h-0.4z"/><path d="m135 341c-0.1-0.2-0.2-0.4-0.2-0.4 3e-3 -3e-3 0.07-7e-3 0.1-0.01l0.1-6e-3 0.03 0.06c0.02 0.04 0.1 0.2 0.2 0.4 0.1 0.2 0.2 0.4 0.2 0.4l0.02 0.03h-0.3z"/><path d="m175 373c-4-1-6-2-9-4-2-1-5-2-7-4-0.5-0.3-2-1-2-1-8e-3 -7e-3 0.08-0.01 0.2-0.01l0.2 2e-4 0.2 0.1c0.7 0.5 2 1 3 2 3 2 6 3 9 5 2 0.9 4 2 6 3l0.08 0.03 4e-3 0.09c3e-3 0.06-6e-4 0.09-0.01 0.09-0.01-6e-4 -0.1-0.04-0.3-0.09z"/><path d="m199 379c-0.01-3e-3 -0.3-0.06-0.7-0.1-4-0.7-8-1-12-2-4-1-7-2-10-3l-0.8-0.3v-0.09c0-0.09 1e-3 -0.09 0.03-0.08 0.02 5e-3 0.2 0.07 0.4 0.1 1 0.4 2 0.7 3 1 0.2 0.06 0.7 0.2 1 0.3 0.3 0.09 0.8 0.2 0.9 0.2 0.2 0.04 0.5 0.1 0.7 0.2 3 1 7 2 10 3 2 0.4 5 1 6 1l0.3 0.05v0.1c0 0.1-6e-4 0.1-0.07 0.1z"/><path d="m216 381c-3-0.07-6-0.2-7-0.3-1-0.1-4-0.5-6-0.8-1-0.2-3-0.5-4-0.7l-0.2-0.03-4e-3 -0.1c-3e-3 -0.08 1e-3 -0.1 0.01-0.1 8e-3 0 0.3 0.05 0.6 0.1 5 0.9 11 2 16 2 0.3 0.02 0.6 0.04 0.7 0.05l0.3 0.02-0.4-3e-4c-0.2-2e-4 -0.6-5e-3 -0.9-0.01z"/><path d="m248 380c0.03-3e-3 0.3-0.03 0.6-0.05 2-0.2 3-0.2 5-0.4 1-0.1 2-0.2 3-0.3 5-0.4 7-0.7 10-1 0.3-0.04 0.5-0.08 0.5-0.08 0.03-7e-3 0.03-3e-3 0.03 0.07 0 0.07-2e-3 0.08-0.04 0.08-0.04 8e-3 -0.8 0.1-1 0.2-2 0.4-4 0.7-6 0.9-1 0.2-3 0.3-4 0.4-0.3 0.02-0.6 0.04-0.6 0.04-0.2 0.02-2 0.1-2 0.1-2 0.1-5 0.2-5 0.2z"/><path d="m272 378v-0.1l0.08-0.02c0.04-8e-3 0.5-0.09 0.9-0.2 3-0.6 9-2 19-4 2-0.3 3-0.6 3-0.6 0.02 0 0.02 0.03 0.02 0.2l-1e-5 0.2-7 1c-7 1-7 1-9 2-2 0.4-5 0.9-7 1-0.3 0.06-0.6 0.1-0.6 0.1-0.03 7e-3 -0.03 3e-3 -0.03-0.09z"/></g><path d="m267 379c6e-3 -0.01 0.01-0.05 8e-3 -0.08l-3e-3 -0.06 0.4-0.06c1-0.2 2-0.4 4-0.7 0.06-0.01 0.1-0.02 0.1-0.02 2e-3 2e-3 5e-3 0.05 6e-3 0.1l3e-3 0.09-0.4 0.07c-1 0.2-3 0.5-4 0.6-0.2 0.03-0.3 0.06-0.4 0.06-0.02 5e-3 -0.02 3e-3 -0.01-0.02z" stroke-width=".01"/><path d="m381 148v-4h0.2v9h-0.2z" stroke-width=".005"/><g stroke-width=".01"><path d="m381 138v-6h0.2v12h-0.2z"/><path d="m381 160v-8h0.2v16h-0.2z"/><path d="m381 174v-6h0.2v12h-0.2z"/><path d="m381 128v-3h0.2v7h-0.2z"/></g><g stroke-width=".005"><path d="m327 129v-4h0.1v8h-0.1z"/><path d="m327 136v-3h0.1v7h-0.1z"/><path d="m327 143v-3h0.1v7h-0.1z"/><path d="m327 150v-4h0.1v8h-0.1z"/><path d="m327 159v-4h0.1v9h-0.1z"/><path d="m327 169v-4h0.1v9h-0.1z"/><path d="m327 177v-3h0.1v6h-0.1z"/></g><g stroke-width=".008"><path d="m327 217c1e-5 -0.1 0.04-4 0.07-7 0.02-2 0.03-3 0.04-3 1e-3 -1e-3 0.03-5e-3 0.07-8e-3l0.07-6e-3 4e-4 0.2c8e-4 0.5-0.06 10-0.06 10l-4e-3 0.08h-0.2z"/><path d="m327 229c2e-3 -0.2 0.01-1 0.02-2 0.05-6 0.08-9 0.08-9l5e-3 -0.2h0.2l3e-4 0.2c7e-4 0.4-0.06 11-0.07 12l-5e-3 0.2h-0.2z"/><path d="m327 242c0-0.09 0.05-6 0.09-10 0.01-1 0.02-3 0.02-3l1e-5 -0.1h0.2l4e-4 0.1c1e-3 0.3-0.07 13-0.08 13l-4e-3 0.04h-0.3z"/><path d="m326 257c2e-3 -0.2 0.02-3 0.05-5s0.05-6 0.05-6l0.01-1 0.3-4e-3 -5e-3 0.5c-3e-3 0.3-0.02 3-0.04 6s-0.03 6-0.04 6c-4e-3 0.3-8e-3 0.7-8e-3 0.7l1e-5 0.09h-0.3z"/><path d="m326 267c5e-3 -0.5 0.07-9 0.07-9l-2e-5 -0.1h0.3l-5e-3 0.2c-3e-3 0.1-7e-3 0.4-9e-3 0.6-0.03 3-0.08 7-0.09 8l-5e-3 0.6h-0.3z"/><path d="m326 273c4e-5 -0.03 0.01-1 0.02-3 0.01-1 0.02-3 0.02-3l8e-5 -0.2h0.3l-4e-3 0.2c-2e-3 0.1-8e-3 0.6-0.01 1-4e-3 0.5-0.01 1-0.02 2-4e-3 0.5-0.01 1-0.01 2-2e-3 0.4-7e-3 0.8-9e-3 1l-5e-3 0.3h-0.3z"/><path d="m326 283c2e-5 -0.1 4e-3 -0.5 8e-3 -0.9 0.01-1 0.08-9 0.08-9l2e-5 -0.03h0.3l-6e-3 0.9c-0.01 2-0.02 4-0.02 6-9e-5 1-3e-3 2-5e-3 2l-5e-3 0.3h-0.3z"/><path d="m326 293c1e-3 -0.08 7e-3 -0.7 0.01-1 0.03-3 0.05-5 0.07-7 9e-3 -1 0.02-2 0.02-2l5e-3 -0.1h0.3l-5e-3 2c-3e-3 0.9-9e-3 2-0.01 3-4e-3 0.7-0.01 2-0.02 3-7e-3 1-0.01 2-0.02 2l-5e-3 0.4-0.4 2e-5z"/><path d="m326 304c2e-5 -0.06 4e-3 -0.4 8e-3 -0.7 0.02-1 0.08-7 0.1-9l0.02-2h0.4l-5e-3 0.7c-0.01 2-0.02 3-0.03 6-4e-3 1-0.01 3-0.02 3-5e-3 0.2-0.01 0.5-0.02 0.7-4e-3 0.2-0.01 0.5-0.02 0.8-5e-3 0.3-0.01 0.6-0.01 0.6l-5e-3 0.1h-0.4z"/><path d="m326 322c3e-3 -0.1 0.01-0.5 0.02-0.9 6e-3 -0.4 0.02-1 0.03-2 0.05-3 0.1-6 0.1-8 9e-3 -0.7 0.02-1 0.02-1l5e-3 -0.2h0.4v2c0 2-0.02 5-0.07 11l-5e-3 0.6h-0.6z"/><path d="m325 334c2e-5 -0.03 5e-3 -0.3 0.01-0.6 0.04-2 0.1-6 0.2-9 0.01-0.8 0.03-2 0.03-2l5e-3 -0.3h0.6l-2e-3 0.2c-1e-3 0.09-6e-3 0.5-0.01 1-0.04 4-0.1 7-0.2 10-9e-3 0.3-0.02 0.6-0.02 0.6v0.04h-0.6z"/><path d="m325 351c0-5e-3 0.02-0.2 0.04-0.4 0.1-1 0.2-2 0.2-3 0.09-1 0.2-5 0.3-9 0.01-0.5 0.02-0.9 0.02-1l4e-3 -0.07h0.5l-6e-5 0.06c-1e-4 0.09-0.05 1-0.09 2-0.2 4-0.4 7-0.6 10-0.02 0.2-0.04 0.5-0.04 0.5 0 0.01-7e-3 0.02-0.2 0.02-0.1 0-0.2-3e-3 -0.2-9e-3z"/><path d="m324 360c0-5e-3 0.02-0.2 0.05-0.4 0.4-3 0.7-6 0.9-8 0.03-0.3 0.05-0.6 0.05-0.6l4e-3 -0.03h0.3l-3e-3 0.03c-2e-3 0.02-0.02 0.3-0.05 0.6-0.2 2-0.4 5-0.7 7-0.07 0.6-0.2 2-0.2 2l-5e-3 0.03h-0.2c-0.1 0-0.2-2e-3 -0.2-9e-3z"/><path d="m322 370c0-4e-3 0.03-0.1 0.06-0.3 0.5-3 1-6 1-9 0.04-0.3 0.07-0.5 0.07-0.5l4e-3 -0.02h0.2c0.1 0 0.2 2e-3 0.2 5e-3 0 6e-3 -0.05 0.4-0.1 0.8-0.4 3-0.8 6-1 8-0.04 0.2-0.08 0.4-0.08 0.4 0 3e-3 -0.1 5e-3 -0.2 5e-3 -0.1 0-0.2-3e-3 -0.2-6e-3z"/><path d="m320 380c0-2e-3 0.04-0.2 0.08-0.3 0.7-3 1-6 2-9l0.06-0.3 0.2-2e-3c0.2-2e-3 0.2-1e-3 0.2 0.01-2e-3 8e-3 -0.03 0.2-0.06 0.3-0.6 3-1 6-2 9l-0.05 0.2h-0.2c-0.1 0-0.2-1e-3 -0.2-3e-3z"/><path d="m317 391c0.03-0.07 0.2-0.5 0.3-0.7 0.9-2 2-5 3-8 0.2-0.6 0.4-2 0.5-2l0.04-0.2 0.4-4e-3 -0.02 0.08c-0.8 3-2 6-3 9-0.1 0.5-0.4 1-0.7 2l-0.1 0.3h-0.5z"/><path d="m311 401c0-2e-3 0.05-0.07 0.1-0.2 0.8-1 2-2 2-4 1-2 2-4 3-7l0.07-0.2 0.5-4e-3 -0.03 0.06c-0.01 0.03-0.09 0.2-0.2 0.4-0.6 2-1 3-2 4-1 2-2 4-3 5l-0.2 0.3h-0.3c-0.2 0-0.3-2e-3 -0.3-4e-3z"/><path d="m302 411v-0.4l0.1-0.1c2-2 4-4 5-5 1-1 2-2 3-3l0.09-0.1h0.3c0.2 0 0.3 2e-3 0.3 4e-3 0 6e-3 -0.3 0.4-0.5 0.7-1 1-2 3-4 4-1 2-3 3-5 5l-0.1 0.1z"/><path d="m296 416v-0.3l0.2-0.1c2-1 4-3 6-5 0.08-0.07 0.2-0.1 0.2-0.1 0.01-0.01 0.01 7e-3 0.01 0.4v0.4l-0.1 0.1c-2 1-4 3-6 4-0.2 0.1-0.3 0.2-0.3 0.2l-0.05 0.04z"/><path d="m289 420v-0.3l0.3-0.2c2-1 5-3 6-4 0.09-0.07 0.2-0.1 0.2-0.1 2e-3 0 3e-3 0.1 2e-3 0.3l-2e-3 0.3-0.2 0.1c-2 1-4 3-7 4l-0.07 0.04z"/><path d="m280 425 5e-5 -0.2 0.05-0.03c0.1-0.08 0.8-0.4 1-0.7 3-2 5-3 8-4l0.2-0.1v0.5l-0.09 0.06c-2 1-4 2-6 3-0.9 0.5-2 1-3 1l-0.1 0.05z"/><path d="m275 428c0.05-0.04 0.3-0.2 0.4-0.3 0.6-0.5 2-1 3-2 0.4-0.2 1-0.7 1-0.7 2e-3 0 3e-3 0.1 2e-3 0.2l-2e-3 0.2-0.5 0.2c-0.9 0.4-3 2-3 2-0.2 0.08-0.4 0.2-0.5 0.2-0.2 0.08-0.2 0.1-0.2 0.08z"/><path d="m275 430c-0.2-0.2-0.3-0.3-0.4-0.5-0.03-0.06-0.03-0.2-4e-4 -0.3 0.05-0.2 0.2-0.4 0.4-0.6l0.08-0.08 2e-3 0.4c1e-3 0.2 1e-3 0.5 0 0.8l-2e-3 0.4z"/></g><g stroke-width=".03"><path d="m322 453c-0.4-0.04-1-0.2-1-0.2-1-0.4-13-6-27-13-2-1-9-4-9-4-6e-3 -5e-3 -6e-3 -0.05 0-0.1l0.01-0.1 2 0.9c1 0.5 3 1 4 2s3 1 4 2c1 0.5 2 1 3 2 2 0.9 9 4 10 5 0.6 0.3 2 0.9 3 1 2 0.9 3 1 4 2 3 2 4 2 6 2 1 0.4 3 0.4 5 0.2 0.2-0.03 0.3-0.04 0.3-0.03 0.02 0.02-0.9 0.2-1 0.2-0.7 0.1-2 0.1-2 0.06z"/><path d="m284 435c-3-1-5-3-5-3 7e-3 -7e-3 1 0.7 3 2 3 2 3 2 3 2 6e-3 0.05-2e-3 0.1-0.02 0.1-0.01-5e-4 -0.6-0.3-1-0.7z"/><path d="m329 451c3-2 4-2 6-3 7-4 12-8 17-13 2-2 5-5 7-7 5-6 9-13 12-19 0.2-0.5 0.4-1 0.5-1 0.06-0.2 0.1-0.3 0.1-0.3 0.04 0-0.07 0.3-0.6 2-2 6-6 11-10 17-3 4-7 8-11 11-6 5-13 10-20 14-1 0.8-2 1-3 1-0.4 0.2-1 0.4-1 0.4-0.08 0.01 0.9-0.5 2-1z"/><path d="m372 408c-0.01-0.02 0.09-0.3 0.2-0.7 0.4-1 0.9-3 1-4 0.1-0.4 0.3-0.9 0.4-1 0.2-0.7 0.4-1 0.5-2 0.06-0.3 0.2-1 0.4-2 2-8 4-17 5-27 0.1-1 0.4-4 0.4-4 9e-3 -0.1 0.02-0.1 0.1-0.1l0.1-0.01-0.02 0.3c-0.1 1-0.4 4-0.6 6-0.9 8-2 14-5 23-0.6 2-1 4-2 6-0.6 2-2 5-2 5z"/><path d="m380 367c6e-5 -0.05 0.02-0.3 0.05-0.6 0.5-5 0.8-11 1-17 0.2-6 0.3-11 0.3-24l0.02-9h0.2l-5e-4 0.2c-5e-3 2-0.07 13-0.1 15-0.1 13-0.4 21-0.9 29-0.2 3-0.4 6-0.5 6-0.02 0.01-0.07 0.02-0.1 0.02-0.08 4e-4 -0.09-0.01-0.09-0.09z"/><path d="m381 315c-0.07-9-0.09-12-0.1-21-0.02-5-0.04-11-0.05-12l-0.02-2h0.3l0.02 3c0.04 6 0.08 15 0.1 25l0.02 9h-0.2z"/><path d="m381 275c-0.01-3-0.02-7-0.02-9 1e-4 -2-0.01-8-0.03-12-0.06-16-0.06-16 1e-3 -16 0.05 0 0.06 0.1 0.08 2 0.01 0.8 0.07 9 0.1 19 0.06 10 0.1 19 0.1 20l0.02 2h-0.3z"/></g><path d="m381 238c-5e-3 -0.3-0.02-0.5-0.02-0.5-0.01-0.03-0.06-0.04-0.07-0.03-1e-3 2e-3 -8e-3 0.2-0.01 0.4-0.01 0.4-0.03-3-0.06-13-9e-3 -3-0.02-7-0.03-8-0.01-2-0.01-3 0.02-3 0.03 0 0.03 0.04 0.03 0.4 2e-4 0.2 0.04 6 0.08 12 0.04 7 0.08 12 0.07 12-3e-3 3e-3 -0.01-0.2-0.01-0.5z" stroke-width=".02"/><path d="m381 213c-4e-3 -0.6-0.01-2-0.01-3-4e-3 -1-0.01-2-0.01-2l-5e-3 -0.6h-7v-0.1h7l1e-4 0.2c6e-5 0.1 9e-3 2 0.02 3 0.02 4 0.02 4 9e-3 4-0.01-0.01-0.01-0.01-0.02-5e-3 -8e-3 8e-3 -0.01 0.05-0.02 0.2-2e-3 0.08-7e-3 -0.3-0.01-1z" stroke-width=".008"/><path d="m362 207v-0.06h12v0.1h-12z" stroke-width=".008"/><path d="m343 207c0-0.04 0.01-0.04 10-0.04 10 0 10 7e-5 10 0.04 0 0.04-0.01 0.04-10 0.04-10 0-10-7e-5 -10-0.04z" stroke-width=".02"/><path d="m330 207c0.01-0.01 7-0.05 10-0.07 1-5e-3 2-4e-3 2 1e-3 -0.03 5e-3 -0.06 0.02-0.06 0.03 0 0.01 0.03 0.02 0.06 0.03 0.03 5e-3 -3 0.01-6 0.01-4 2e-3 -6-7e-4 -6-6e-3z" stroke-width=".02"/><g stroke-width=".1"><path d="m422 72c-3-2-4-3-8-6-8-5-19-11-30-17-17-8-25-11-39-15-10-3-17-5-24-6-3-0.6-8-2-10-2-0.7-0.08-1-0.2-0.9-0.3 0.2-0.2 7 0.9 11 2 5 1 6 1 17 4 12 3 14 4 18 5 8 3 14 5 24 10 2 1 5 2 6 3 4 2 6 3 11 6 4 2 8 5 11 7 5 3 8 5 12 8 4 3 4 4 0.4 0.7z"/><path d="m497 159c-5-9-12-21-16-27-3-4-7-9-13-17-9-11-12-14-19-20-9-8-17-15-20-18-0.6-0.5-1-0.8-1-0.9 0.09-0.09 2 1 4 3 2 1 3 3 6 5 3 2 7 6 8 8 9 8 14 13 22 23 1 1 2 3 3 4 1 2 6 7 7 9 4 6 7 10 10 15 1 2 3 5 6 10 0.9 1 2 3 3 4 0.9 2 3 6 3 6 0 0.04-0.1 0.07-0.3 0.06-0.2-3e-3 -0.5-0.5-2-3z"/><path d="m388 153v-92h18l2 1c4 2 8 5 11 7 0.8 0.6 3 2 5 4 2 1 4 3 5 4 3 2 6 5 12 10 8 7 15 13 17 16 6 7 18 21 22 27 6 8 17 26 23 39 6 13 10 23 15 42 3 11 5 19 6 27 0.4 3 1 7 1 8l3e-5 0.3h-136z"/><path d="m524 245c-8e-5 -0.4-0.6-5-0.8-7-1-9-3-19-8-33-4-16-8-26-14-38-1-2-2-4-2-4-0.02-0.05 0.08-0.08 0.2-0.08 0.3 6e-3 0.3 0.04 3 5 0.8 2 2 4 3 6 4 9 7 16 11 29 0.8 3 1 4 3 12 3 10 5 20 6 29 0.4 3 0.4 3 0.2 3-0.09 0-0.2-0.09-0.2-0.2z"/><path d="m514 349c0.03-0.1 0.5-2 1-3 6-22 9-34 9-52 0.5-11 0.4-31-0.1-40-0.1-3-0.4-7-0.5-7-0.06-0.4-0.04-0.4 0.2-0.4 0.2 0 0.2 0.2 0.4 2 0.5 6 0.6 9 0.7 24 0.07 14-0.04 19-0.6 27-0.9 14-3 26-6 38-0.5 2-1 4-1 5-0.4 1-2 7-2 8-0.1 0.4-0.4 0.5-0.3 0.2z"/><path d="m432 470c0-0.03 0.8-0.7 2-1 15-13 29-27 42-44 8-10 13-19 20-31 8-14 12-25 17-41 1-4 1-4 1-4 0.07-0.02-0.02 0.4-0.2 1-0.2 0.6-0.7 2-1 4-2 6-3 11-6 16-4 10-10 21-16 32-1 2-3 4-4 6-2 3-3 5-5 7-1 2-2 2-4 6-0.6 0.8-2 2-3 4-14 19-27 32-41 43-2 2-3 2-3 2z"/><path d="m260 525c-3-0.1-7-0.3-9-0.4-5-0.3-6-0.4-6-0.6 0-0.1 0.09-0.1 0.3-0.1 0.4 0.09 3 0.3 5 0.4 6 0.4 25 0.6 38 0.5 13-0.2 15-0.3 21-1 21-3 46-10 65-18 19-8 39-20 57-34 1-0.8 2-1 2-1s-0.8 0.8-2 2c-1 0.9-3 3-5 4-6 5-12 9-18 12-1 0.6-2 1-3 2-9 6-13 8-20 11-21 10-45 18-70 22-3 0.5-4 0.6-8 1-5 0.7-5 0.7-20 0.8-12 0.09-25 0.1-27 0.04z"/><path d="m244 524c-7-0.7-13-2-20-3-3-0.6-6-1-12-3-4-1-7-2-8-2-6-1-17-5-25-8-11-4-19-8-33-17l-3-2-0.03-0.6c-0.03-0.6-0.02-0.6 0.1-0.4 0.1 0.1 0.6 0.6 1 1 6 4 25 14 37 19 17 7 43 13 62 16 1 0.2 2 0.4 2 0.4 0 0.1-0.6 0.09-2-0.04z"/></g><path d="m141 487c-2-0.5-4-1-6-3-1-0.9-3-2-6-4-0.9-0.7-2-2-3-2-0.8-0.6-2-1-2-2-1-0.9-3-3-6-5-1-1-3-2-3-3-3-2-6-5-8-7l-1-1v-0.6l1 0.9c3 3 4 4 9 8 2 1 5 4 7 6 7 6 8 7 11 9 3 2 5 3 7 3 0.3 0.03 0.6 0.1 0.8 0.2 0.2 0.1 0.7 0.5 0.6 0.5-0.03-2e-3 -0.6-0.1-1-0.3z" stroke-width=".05"/><g stroke-width=".07"><path d="m79 431c-2-2-3-4-5-6-0.9-1-2-3-3-4s-2-3-3-3c-0.5-0.6-1-2-2-2-1-2-2-2-3-6-2-4-3-5-5-9-3-5-5-7-6-10-2-3-3-6-4-9-0.2-0.6-0.8-2-2-4-3-5-5-10-7-16-2-5-4-12-6-18-0.1-0.5-0.6-2-0.9-3-1-4-2-9-3-13-0.6-3-2-9-2-9 0-0.2 0.3-0.2 0.3 0.03 0.02 0.09 0.3 2 0.7 3 3 18 9 37 14 49 0.2 0.6 0.9 2 1 3 2 4 3 7 4 10 2 4 5 10 8 15 3 6 6 9 7 11 0.6 1 1 2 2 3 3 4 9 12 15 20l0.3 0.3h-0.2c-0.2 0-0.3-0.05-1-2z"/></g><path d="m105 460c-0.1-0.1-0.9-0.8-2-1-8-8-15-15-24-25l-0.3-0.4 0.2-0.02c0.1-0.01 0.2-6e-3 0.3 0.01 0.04 0.02 0.6 0.6 1 1 5 6 9 10 15 16 3 3 8 8 9 9 0.2 0.2 0.2 0.2 0.2 0.5l-0.02 0.3z" stroke-width=".06"/><g stroke-width=".05"><path d="m28 318c-0.04-0.2-0.6-3-0.8-5-0.8-5-1-11-2-16-0.2-4-0.2-5-0.3-18l-0.02-8h0.1c0.1 0 0.1 9e-3 0.1 0.5 3e-3 1 0.1 10 0.2 13 0.2 14 0.6 19 1 25 0.3 2 1 7 1 8 0.03 0.1 0.02 0.2-0.06 0.1-0.05-0.02-0.1-0.01-0.2 0.02-0.05 0.04-0.08 0.03-0.1-0.04z"/><path d="m25 271c-0.02-0.2-0.03-2-0.03-3 2e-3 -17 1-31 5-45 0.4-2 1-5 1-6 0.09-0.3 0.3-1 0.4-2s0.8-3 2-6 1-5 2-6c0.2-0.7 0.5-2 0.7-3l0.4-1h0.2c0.1 0 0.2 0.02 0.2 0.05s-0.05 0.2-0.1 0.4c-0.5 1-2 7-3 10-6 21-7 32-8 50-0.06 2-0.2 8-0.2 10l-1e-3 1h-0.1c-0.1 0-0.1-0.02-0.2-0.4z"/><path d="m36 199c0-0.03 0.2-0.7 0.4-2 3-10 6-18 12-30 1-2 1-3 2-4 0.4-0.8 1-2 1-3 0.5-1 2-4 3-6 0.8-1 1-2 3-5 3-4 4-7 6-10 2-3 2-4 3-5 2-2 3-5 5-7 0.4-0.4 0.7-0.8 0.8-0.9 0.1-0.1 0.2-0.2 0.3-0.2h0.2l-0.2 0.2c-0.1 0.1-0.5 0.6-0.9 1-0.8 1-1 2-2 3-5 7-13 21-17 29-1 2-1 2-3 6-0.8 2-2 5-3 7-3 6-3 7-4 10-2 4-4 10-5 15l-0.3 1h-0.2c-0.1 0-0.2-0.02-0.2-0.05z"/><path d="m72 127c0.06-0.07 0.4-0.4 0.7-0.8 1-2 3-3 4-6 2-3 3-4 6-7 1-1 3-3 4-4 1-1 2-2 2-2 0.2-0.3 2-2 4-4 6-7 8-9 11-11 3-3 4-4 11-9 1-1 2-1 3-3 3-3 4-3 7-6 4-3 7-5 11-8 1-0.8 2-2 3-2 0.3-0.2 1-0.5 2-0.8 1-0.7 3-1 4-2 0.5-0.3 1-0.6 1-0.6 0.02 0 0.03 0.06 0.02 0.1-0.01 0.1-0.2 0.2-1 0.8-0.6 0.4-2 0.9-2 1-2 1-5 3-8 5-4 3-8 6-12 9-2 1-6 5-9 7-3 3-6 5-8 7-4 4-18 19-24 26-2 2-3 3-3 4-0.9 1-3 4-4 5-0.4 0.5-0.4 0.5-0.6 0.5l-0.2 2e-3z"/><path d="m145 61c0-0.1 0.1-0.2 0.5-0.4 0.9-0.5 2-2 4-3 5-4 8-5 12-7 2-1 4-2 6-3 3-1 3-1 5-2 8-4 19-8 33-12 2-0.6 7-2 8-2l1-0.3-0.03 0.3-1 0.3c-9 2-18 5-25 8-5 2-8 3-12 5-3 2-6 3-9 4-3 1-4 2-6 3-3 2-6 3-11 6-2 2-5 3-5 3-0.02 0-0.04-0.06-0.04-0.1z"/><path d="m215 32c0-0.09 0.04-0.2 0.1-0.2 0.07-0.03 0.9-0.3 2-0.5 13-3 26-5 37-6 0.9-0.04 2-0.09 2-0.1 0.2-0.02 4-0.05 9-0.08s12-0.07 15-0.09l6-0.04-2e-5 0.2-1e-5 0.2-8 4e-3c-15 8e-3 -27 0.3-34 0.9-7 0.6-18 3-28 5-0.7 0.2-1 0.3-1 0.3-0.01 0-0.02-0.06-0.02-0.1z"/><path d="m311 27c-0.09-0.04-3-0.4-5-0.6-4-0.4-9-0.7-13-0.9-2-0.07-5-0.2-6-0.2l-0.5-4e-4v-0.4l1 0.03c7 0.2 11 0.4 16 0.8 3 0.3 8 0.9 8 0.9-0.2 0.02-0.3 0.09-0.2 0.2 0.06 0.07 0.05 0.08-0.1 0.08-0.1-2e-3 -0.2-0.01-0.2-0.02z"/></g></g></svg>
