<?xml version="1.0" encoding="UTF-8"?>
<svg id="Layer_1" data-name="Layer 1" xmlns="http://www.w3.org/2000/svg" viewBox="0 0 424.6 104.23">
  <defs>
    <style>
      .cls-1 {
        fill: #2b3674;
      }
    </style>
  </defs>
  <path class="cls-1" d="M65,60.35h0c2.8,0,5,2.2,5,5h0c0,2.8-2.2,5-5,5h0c-2.8,0-5-2.2-5-5h0c0-2.8,2.2-5,5-5Z"/>
  <path class="cls-1" d="M120,50.35h-10v-20h-20v-10h-30v20h-10v-10h-30v30H0v40h50v-10h30v10h50v-50h-10ZM30,90.35H10v-20h10v10h10v-40h10v50h-10ZM70,80.35h-20v-30h20v-20h10v50h-10ZM120,70.35v20h-10v-20h-10v20h-10v-50h10v20h20v10Z"/>
  <g>
    <path class="cls-1" d="M174.08,26.16c0,7-4.24,9.44-8.92,10.96l-1.76-4.64c3.6-1.4,4.12-3.28,4.12-6.56V2.64h6.56v23.52Z"/>
    <path class="cls-1" d="M198.6,19.76c0,6.8-3.92,11.28-10.4,11.28s-10.4-4.16-10.4-11.32,3.92-11.28,10.4-11.28,10.4,4.16,10.4,11.32ZM184.36,19.72c0,4.72,1.28,6.68,3.84,6.68s3.84-2.04,3.84-6.64-1.28-6.68-3.84-6.68-3.84,2.04-3.84,6.64Z"/>
    <path class="cls-1" d="M220.16,30.35h-5.48l-.28-2.68c-1.52,2.24-3.6,3.36-6.44,3.36-3.96,0-5.92-2.56-5.92-6.68v-15.24h6.32v14.44c0,2.16.72,2.8,2.04,2.8s2.52-.88,3.44-2.48v-14.76h6.32v21.24Z"/>
    <path class="cls-1" d="M238.68,8.8l-1,6.12c-.68-.16-1.24-.28-1.92-.28-2.6,0-3.68,1.88-4.4,5.04v10.68h-6.32V9.12h5.48l.56,4.12c.96-2.96,3.04-4.72,5.48-4.72.8,0,1.4.08,2.12.28Z"/>
    <path class="cls-1" d="M259.36,14.84v15.52h-6.32v-14.44c0-2.24-.76-2.84-2-2.84-1.4,0-2.6,1-3.68,2.76v14.52h-6.32V9.12h5.48l.48,2.56c1.76-2.12,3.8-3.24,6.48-3.24,3.68,0,5.88,2.36,5.88,6.4Z"/>
    <path class="cls-1" d="M282.24,26.79l-1.32,4.12c-2.48-.2-4.12-.96-5.12-3.04-1.52,2.32-3.88,3.16-6.4,3.16-4.24,0-6.92-2.76-6.92-6.64,0-4.64,3.56-7.16,9.96-7.16h2.16v-.92c0-2.52-1-3.28-3.6-3.28-1.36,0-3.44.4-5.56,1.12l-1.44-4.16c2.68-1,5.6-1.56,8-1.56,6.16,0,8.8,2.6,8.8,7.52v8.24c0,1.64.44,2.24,1.44,2.6ZM274.6,24.52v-3.8h-1.56c-2.88,0-4.24,1-4.24,3.12,0,1.68.88,2.68,2.44,2.68,1.44,0,2.6-.76,3.36-2Z"/>
    <path class="cls-1" d="M285.2,24.96V.68l6.32-.68v24.72c0,.88.36,1.32,1.12,1.32.4,0,.76-.08,1.04-.2l1.2,4.48c-.92.4-2.28.72-3.84.72-3.68,0-5.84-2.2-5.84-6.08Z"/>
    <path class="cls-1" d="M326.6,19.76c0,6.8-3.92,11.28-10.4,11.28s-10.4-4.16-10.4-11.32,3.92-11.28,10.4-11.28,10.4,4.16,10.4,11.32ZM312.36,19.72c0,4.72,1.28,6.68,3.84,6.68s3.84-2.04,3.84-6.64-1.28-6.68-3.84-6.68-3.84,2.04-3.84,6.64Z"/>
    <path class="cls-1" d="M337.52,7.48v1.64h5l-.68,4.4h-4.32v16.84h-6.32V13.52h-3.2v-4.4h3.2v-1.88c0-4.08,2.68-7.24,8.12-7.24,2.2,0,4.24.56,5.8,1.36l-1.72,4.12c-1.2-.6-2.4-.8-3.32-.8-1.84,0-2.56.8-2.56,2.8Z"/>
    <path class="cls-1" d="M188.56,81.36c0,11.16-6.72,14-13.8,14h-8.32v-27.72h7.72c7.4,0,14.4,2.28,14.4,13.72ZM173,72.4v18.2h2.16c3.96,0,6.6-1.88,6.6-9.24s-2.84-8.96-6.68-8.96h-2.08Z"/>
    <path class="cls-1" d="M199.2,66.52c0,2.04-1.52,3.6-3.76,3.6s-3.72-1.56-3.72-3.6,1.56-3.6,3.72-3.6,3.76,1.56,3.76,3.6ZM198.64,95.35h-6.32v-21.24h6.32v21.24Z"/>
    <path class="cls-1" d="M223.12,75.36c-1.48.6-3.44.84-6.12.84,2.68,1.16,4,2.72,4,5.48,0,4.12-3.4,7.12-8.92,7.12-.88,0-1.68-.08-2.44-.24-.44.24-.68.72-.68,1.2,0,.64.28,1.28,2.32,1.28h3.2c4.96,0,8.12,2.6,8.12,6.16,0,4.36-3.84,7.04-11.12,7.04-8.04,0-10.16-2.64-10.16-6.84h5.68c0,1.84.8,2.64,4.64,2.64s4.6-1.04,4.6-2.4c0-1.24-.92-2.08-3.04-2.08h-3.08c-4.64,0-6.52-1.92-6.52-4.2,0-1.56,1-3.12,2.52-4.08-2.72-1.44-3.8-3.32-3.8-6.08,0-4.8,3.76-7.76,9.32-7.76,4.72.12,7.44-1.24,10-2.76l1.48,4.68ZM208.6,81.12c0,2.32,1.28,3.6,3.2,3.6,2.08,0,3.2-1.24,3.2-3.68s-1.08-3.44-3.2-3.44c-1.96,0-3.2,1.32-3.2,3.52Z"/>
    <path class="cls-1" d="M232.44,66.52c0,2.04-1.52,3.6-3.76,3.6s-3.72-1.56-3.72-3.6,1.56-3.6,3.72-3.6,3.76,1.56,3.76,3.6ZM231.88,95.35h-6.32v-21.24h6.32v21.24Z"/>
    <path class="cls-1" d="M250.12,94.35c-1.6,1.12-3.84,1.68-5.76,1.68-4.68-.04-6.96-2.68-6.96-7.68v-9.84h-3v-4.4h3v-4.6l6.32-.72v5.32h4.88l-.68,4.4h-4.2v9.76c0,2.04.68,2.76,2,2.76.72,0,1.44-.2,2.28-.68l2.12,4Z"/>
    <path class="cls-1" d="M270.24,91.79l-1.32,4.12c-2.48-.2-4.12-.96-5.12-3.04-1.52,2.32-3.88,3.16-6.4,3.16-4.24,0-6.92-2.76-6.92-6.64,0-4.64,3.56-7.16,9.96-7.16h2.16v-.92c0-2.52-1-3.28-3.6-3.28-1.36,0-3.44.4-5.56,1.12l-1.44-4.16c2.68-1,5.6-1.56,8-1.56,6.16,0,8.8,2.6,8.8,7.52v8.24c0,1.64.44,2.24,1.44,2.6ZM262.6,89.52v-3.8h-1.56c-2.88,0-4.24,1-4.24,3.12,0,1.68.88,2.68,2.44,2.68,1.44,0,2.6-.76,3.36-2Z"/>
    <path class="cls-1" d="M273.2,89.96v-24.28l6.32-.68v24.72c0,.88.36,1.32,1.12,1.32.4,0,.76-.08,1.04-.2l1.2,4.48c-.92.4-2.28.72-3.84.72-3.68,0-5.84-2.2-5.84-6.08Z"/>
    <path class="cls-1" d="M310,83.48h-8.32v11.88h-6.56v-27.72h6.56v10.72h8.32v-10.72h6.56v27.72h-6.56v-11.88Z"/>
    <path class="cls-1" d="M328.48,66.52c0,2.04-1.52,3.6-3.76,3.6s-3.72-1.56-3.72-3.6,1.56-3.6,3.72-3.6,3.76,1.56,3.76,3.6ZM327.92,95.35h-6.32v-21.24h6.32v21.24Z"/>
    <path class="cls-1" d="M348.12,76.04l-2.32,3.56c-1.64-1.04-3.4-1.64-5.24-1.64-1.72,0-2.56.64-2.56,1.6,0,1.12.56,1.6,4.36,2.72,4.2,1.2,6.56,2.96,6.56,6.76,0,4.4-4.16,7-9.44,7-3.68,0-6.8-1.28-8.88-3.16l3.08-3.44c1.6,1.24,3.56,2.08,5.64,2.08,1.92,0,3.08-.72,3.08-2,0-1.44-.64-1.88-4.48-2.96-4.2-1.2-6.28-3.36-6.28-6.64,0-3.64,3.32-6.48,8.68-6.48,3.08,0,5.84,1,7.8,2.6Z"/>
    <path class="cls-1" d="M365.36,94.35c-1.6,1.12-3.84,1.68-5.76,1.68-4.68-.04-6.96-2.68-6.96-7.68v-9.84h-3v-4.4h3v-4.6l6.32-.72v5.32h4.88l-.68,4.4h-4.2v9.76c0,2.04.68,2.76,2,2.76.72,0,1.44-.2,2.28-.68l2.12,4Z"/>
    <path class="cls-1" d="M386.36,84.76c0,6.8-3.92,11.28-10.4,11.28s-10.4-4.16-10.4-11.32,3.92-11.28,10.4-11.28,10.4,4.16,10.4,11.32ZM372.12,84.72c0,4.72,1.28,6.68,3.84,6.68s3.84-2.04,3.84-6.64-1.28-6.68-3.84-6.68-3.84,2.04-3.84,6.64Z"/>
    <path class="cls-1" d="M403.72,73.8l-1,6.12c-.68-.16-1.24-.28-1.92-.28-2.6,0-3.68,1.88-4.4,5.04v10.68h-6.32v-21.24h5.48l.56,4.12c.96-2.96,3.04-4.72,5.48-4.72.8,0,1.4.08,2.12.28Z"/>
    <path class="cls-1" d="M417.84,95.39c-1.68,5.36-5.28,8.48-11.96,8.84l-.68-4.44c4.16-.52,5.68-1.72,6.84-4.44h-2.16l-6.48-21.24h6.72l3.8,17.2,4.16-17.2h6.52l-6.76,21.28Z"/>
  </g>
</svg>