<svg version="1.1" xmlns="http://www.w3.org/2000/svg" width="512px" height="512px" transform="rotate(0) scale(1, 1)">
<path d="M0 0 C0.94488785 -0.00705963 1.8897757 -0.01411926 2.86329651 -0.02139282 C41.96677384 -0.24733053 41.96677384 -0.24733053 58.76953125 3.203125 C60.28836914 3.50114014 60.28836914 3.50114014 61.83789062 3.80517578 C114.19593055 14.27521522 168.22493843 41.30080709 202.921875 82.98828125 C204.37866205 84.73457777 205.88072484 86.44310477 207.3984375 88.13671875 C244.38424203 129.59110276 268.69401412 187.61558209 268.97265625 243.43359375 C268.97971588 244.3784816 268.98677551 245.32336945 268.99404907 246.29689026 C269.21998678 285.40036759 269.21998678 285.40036759 265.76953125 302.203125 C265.47151611 303.72196289 265.47151611 303.72196289 265.16748047 305.27148438 C254.69744103 357.6295243 227.67184916 411.65853218 185.984375 446.35546875 C184.23807848 447.8122558 182.52955148 449.31431859 180.8359375 450.83203125 C139.38155349 487.81783578 81.35707416 512.12760787 25.5390625 512.40625 C24.59417465 512.41330963 23.6492868 512.42036926 22.67576599 512.42764282 C-16.42771134 512.65358053 -16.42771134 512.65358053 -33.23046875 509.203125 C-34.24302734 509.00444824 -35.25558594 508.80577148 -36.29882812 508.60107422 C-88.65686805 498.13103478 -142.68587593 471.10544291 -177.3828125 429.41796875 C-178.83959955 427.67167223 -180.34166234 425.96314523 -181.859375 424.26953125 C-218.84517953 382.81514724 -243.15495162 324.79066791 -243.43359375 268.97265625 C-243.4441832 267.55532448 -243.4441832 267.55532448 -243.45498657 266.10935974 C-243.68092428 227.00588241 -243.68092428 227.00588241 -240.23046875 210.203125 C-240.03179199 209.19056641 -239.83311523 208.17800781 -239.62841797 207.13476562 C-229.15837853 154.7767257 -202.13278666 100.74771782 -160.4453125 66.05078125 C-158.69901598 64.5939942 -156.99048898 63.09193141 -155.296875 61.57421875 C-113.84249099 24.58841422 -55.81801166 0.27864213 0 0 Z M-103.1015625 103.51953125 C-106.2276547 108.18162723 -105.63227911 113.83277501 -105.23046875 119.203125 C-103.4350926 125.03809748 -99.05037014 128.67565684 -94.23046875 132.203125 C-88.50202046 134.11260776 -82.4548437 134.11498215 -76.91796875 131.578125 C-72.08554831 128.80558479 -69.20919947 125.39361756 -66.91796875 120.265625 C-65.35242907 113.29185733 -66.34021229 108.72290056 -69.66796875 102.51171875 C-72.75407733 97.95199332 -76.79993801 95.27452565 -82.23046875 94.203125 C-91.49329986 93.43122241 -97.24843269 96.35861766 -103.1015625 103.51953125 Z M-101.23046875 159.203125 C-101.23046875 229.493125 -101.23046875 299.783125 -101.23046875 372.203125 C-91.33046875 372.203125 -81.43046875 372.203125 -71.23046875 372.203125 C-71.23046875 301.913125 -71.23046875 231.623125 -71.23046875 159.203125 C-81.13046875 159.203125 -91.03046875 159.203125 -101.23046875 159.203125 Z M-25.23046875 159.203125 C-25.23046875 229.493125 -25.23046875 299.783125 -25.23046875 372.203125 C33.34560008 375.93572995 33.34560008 375.93572995 97.83203125 366.578125 C98.92354492 366.20179932 98.92354492 366.20179932 100.03710938 365.81787109 C112.47794005 361.33070672 123.89790587 355.03473458 133.76953125 346.203125 C135.02830078 345.13964844 135.02830078 345.13964844 136.3125 344.0546875 C155.5026118 327.50648217 167.09471352 304.12430268 170.76953125 279.203125 C171.70150781 263.5870543 171.54286804 248.18598985 166.76953125 233.203125 C166.40730469 232.06359375 166.04507813 230.9240625 165.671875 229.75 C161.11742407 216.96665977 154.66641288 205.43830874 145.76953125 195.203125 C145.32609375 194.61660156 144.88265625 194.03007812 144.42578125 193.42578125 C127.89580306 172.00736439 99.40680933 162.8655933 73.76953125 159.203125 C41.09953125 159.203125 8.42953125 159.203125 -25.23046875 159.203125 Z " fill="#2b3674" transform="translate(243.23046875,-0.203125)"/>
<path d="M0 0 C88.68411867 0 88.68411867 0 112 20 C112.73734375 20.62519531 113.4746875 21.25039062 114.234375 21.89453125 C128.65979577 35.17374611 135.2977583 55.31435785 136.28515625 74.4921875 C136.99042325 97.9441976 129.5289625 119.4853079 113.36328125 136.65625 C82.99911128 166.76947642 39.86552284 159 0 159 C0 106.53 0 54.06 0 0 Z " fill="#2b3674" transform="translate(248,186)"/>
</svg>