<?xml version="1.0" encoding="utf-8"?>
<!-- Generator: Adobe Illustrator 27.9.0, SVG Export Plug-In . SVG Version: 6.00 Build 0)  -->
<svg version="1.1" id="Layer_1" xmlns="http://www.w3.org/2000/svg" xmlns:xlink="http://www.w3.org/1999/xlink" x="0px" y="0px"
	 viewBox="0 0 307.4 301.7" style="enable-background:new 0 0 307.4 301.7;" xml:space="preserve">
<style type="text/css">
	.st0{fill:none;stroke:#2B3674;stroke-width:20;stroke-miterlimit:10;}
	.st1{fill:#2B3674;stroke:#2B3674;stroke-width:10;stroke-miterlimit:10;}
</style>
<path class="st0" d="M288,152.9c0,74.1-60.1,134.2-134.3,134.2S19.3,227.1,19.3,152.9S79.5,18.7,153.7,18.7S288,78.8,288,152.9z"/>
<g>
	<path class="st1" d="M112,217.1H96.6V110H112v48.4V217.1z"/>
	<path class="st1" d="M139.6,110h41.6c39.6,0,57,28.3,57,53.6c0,27.5-21.5,53.6-56.8,53.6h-41.8C139.6,217.2,139.6,110,139.6,110z
		 M155,203.3h24.5c34.9,0,42.9-26.5,42.9-39.7c0-21.5-13.7-39.7-43.7-39.7H155L155,203.3L155,203.3z"/>
	<path class="st1" d="M114.4,81.7c0,5.5-4.5,10.1-10.1,10.1s-10.1-4.6-10.1-10.1c0-5.6,4.5-10.1,10.1-10.1
		C109.9,71.6,114.4,76.2,114.4,81.7z"/>
</g>
</svg>
