<svg xmlns="http://www.w3.org/2000/svg" viewBox="0 0 223.1 76.81"><defs><style>.cls-1{fill:#ffffff;}</style></defs><g id="Layer_1" data-name="Layer 1"><rect class="cls-1" x="96.6" y="9.87" width="0.85" height="57.08"/><path class="cls-1" d="M20.58,53.8a2.07,2.07,0,0,1-2.2-2.23v-3.5h.78v3.5a1.34,1.34,0,0,0,1.42,1.51A1.37,1.37,0,0,0,22,51.57v-3.5h.76v3.5a2.13,2.13,0,0,1-2.21,2.23"/><path class="cls-1" d="M28.14,53.71l-3-4.09-.1-.15a1.55,1.55,0,0,1,0,.18v4.06h-.77V48.07H25l2.93,4,.1.16a1.3,1.3,0,0,1,0-.18v-4h.77v5.64h-.61"/><rect class="cls-1" x="30.32" y="48.07" width="0.77" height="5.64"/><path class="cls-1" d="M34.73,53.71h-.48l-2-5.64H33l1.42,4.07a1.08,1.08,0,0,1,.05.2l0-.2L36,48.07h.73l-2,5.64"/><polyline class="cls-1" points="37.89 53.71 37.89 48.07 41.04 48.07 41.04 48.79 38.66 48.79 38.66 50.59 40.99 50.59 40.99 51.32 38.66 51.32 38.66 52.98 41.19 52.98 41.19 53.71 37.89 53.71"/><path class="cls-1" d="M44.25,48.79h-.91v1.94h.89a1,1,0,0,0,1.1-1,1,1,0,0,0-1.08-.91m1.37,4.92-2.28-2.64v2.64h-.77V48.07h1.82a1.65,1.65,0,0,1,1.75,1.66,1.64,1.64,0,0,1-1.61,1.61l2.08,2.37Z"/><path class="cls-1" d="M49.11,53.8a2.56,2.56,0,0,1-1.66-.57l.44-.6a1.91,1.91,0,0,0,1.18.42c.57,0,1-.25,1-.79s-.44-.74-.94-1c-.8-.4-1.62-.76-1.62-1.83A1.46,1.46,0,0,1,49.1,48a2.61,2.61,0,0,1,1.52.48l-.42.64a1.65,1.65,0,0,0-1.11-.36c-.44,0-.81.22-.81.65,0,.61.54.82,1.24,1.17s1.32.72,1.32,1.67a1.58,1.58,0,0,1-1.73,1.58"/><rect class="cls-1" x="52.11" y="48.07" width="0.77" height="5.64"/><polyline class="cls-1" points="56.08 48.79 56.08 53.71 55.31 53.71 55.31 48.79 54.16 48.79 54.16 48.07 57.28 48.07 57.28 48.79 56.08 48.79"/><path class="cls-1" d="M60.38,47.62h-.74l.72-1.14h.74l-.72,1.14m-1.82,6.09V48.07h3.15v.72H59.33v1.8h2.33v.73H59.33V53h2.53v.73Z"/><path class="cls-1" d="M67.78,48.76h-.65V53h.51a2.13,2.13,0,1,0,.14-4.25m0,5H66.36V48.07H67.8a2.76,2.76,0,0,1,3,2.8A2.83,2.83,0,0,1,67.73,53.71Z"/><path class="cls-1" d="M74.31,53.8a2.07,2.07,0,0,1-2.2-2.23v-3.5h.77v3.5a1.35,1.35,0,0,0,1.43,1.51,1.37,1.37,0,0,0,1.44-1.51v-3.5h.77v3.5a2.13,2.13,0,0,1-2.21,2.23"/><rect class="cls-1" x="17.8" y="43.49" width="59.3" height="0.81"/><polyline class="cls-1" points="18.4 63.52 18.4 57.88 19.18 57.88 19.18 62.79 21.32 62.79 21.32 63.52 18.4 63.52"/><path class="cls-1" d="M25,63.61a2.08,2.08,0,0,1-2.21-2.22V57.88h.78v3.51A1.34,1.34,0,0,0,25,62.89a1.36,1.36,0,0,0,1.44-1.5V57.88h.77v3.51A2.12,2.12,0,0,1,25,63.61"/><path class="cls-1" d="M32.6,63.52l-1.26-1.93c-.09-.13-.24-.39-.24-.39a4.55,4.55,0,0,1-.26.41l-1.25,1.91H28.7l1.95-3-1.73-2.66h.95L31,59.55l.17.29s.09-.16.19-.31l1.09-1.65h.89L31.57,60.5l2,3H32.6"/><polyline class="cls-1" points="35.06 63.52 35.06 57.88 38.22 57.88 38.22 58.6 35.83 58.6 35.83 60.4 38.16 60.4 38.16 61.13 35.83 61.13 35.83 62.79 38.36 62.79 38.36 63.52 35.06 63.52"/><path class="cls-1" d="M45.08,63.52V59.37a1.59,1.59,0,0,1,0-.22l-.08.14-1.77,2.38h-.31l-1.79-2.32a.92.92,0,0,1-.07-.13s0,.11,0,.21v4.09h-.77V57.88H41l2.12,2.76,2.07-2.76h.68v5.64h-.77"/><path class="cls-1" d="M49.68,61.12h-.91v1.67h.84c.69,0,1-.34,1-.86a.83.83,0,0,0-.94-.81m-.32-2.52h-.59v1.79h.52c.84,0,1-.51,1-1S50,58.6,49.36,58.6Zm.33,4.92H48V57.88h1.49a1.49,1.49,0,0,1,1.64,1.47,1.44,1.44,0,0,1-.65,1.29,1.46,1.46,0,0,1,1,1.35A1.56,1.56,0,0,1,49.69,63.52Z"/><path class="cls-1" d="M55.6,58.54a2,2,0,0,0-2.07,2.15,2.13,2.13,0,0,0,2.1,2.17,2.07,2.07,0,0,0,2.08-2.19,2,2,0,0,0-2.11-2.13m0,5.07a2.85,2.85,0,0,1-2.9-2.92,2.89,2.89,0,1,1,5.78,0A2.87,2.87,0,0,1,55.63,63.61Z"/><path class="cls-1" d="M62.24,63.61A2.07,2.07,0,0,1,60,61.39V57.88h.78v3.51a1.34,1.34,0,0,0,1.42,1.5,1.37,1.37,0,0,0,1.45-1.5V57.88h.76v3.51a2.12,2.12,0,0,1-2.21,2.22"/><path class="cls-1" d="M67.89,58.6H67v1.94h.9a1,1,0,1,0,0-1.94m1.37,4.92L67,60.88v2.64h-.77V57.88H68a1.64,1.64,0,1,1,.14,3.28l2.08,2.36Z"/><path class="cls-1" d="M74,63.61a2.89,2.89,0,0,1-2.86-2.91A2.82,2.82,0,0,1,74,57.79a3,3,0,0,1,2.08.76l-.47.57A2.37,2.37,0,0,0,74,58.54a2,2,0,0,0-2,2.17,2.15,2.15,0,0,0,2.08,2.15,1.66,1.66,0,0,0,1.66-1.14H74V61h2.6A2.59,2.59,0,0,1,74,63.61"/><path class="cls-1" d="M61.61,14.61a2.13,2.13,0,0,1-1.92-1.2h-.25V37.57a2.17,2.17,0,0,0,4.33,0V13.41h-.25a2.12,2.12,0,0,1-1.91,1.2"/><path class="cls-1" d="M46.08,20a2.12,2.12,0,0,1-1.91-1.2h-.25V37.57a2.16,2.16,0,1,0,4.31,0V18.75H48A2.12,2.12,0,0,1,46.08,20"/><path class="cls-1" d="M43.92,15.61a2.16,2.16,0,1,1,2.16,2.16,2.16,2.16,0,0,1-2.16-2.16"/><path class="cls-1" d="M20.54,39.73h0a2.16,2.16,0,0,1-2.16-2.16V20.91a2.16,2.16,0,1,1,4.32,0V39.73H20.54"/><path class="cls-1" d="M23.86,39.73h0V20.91a2.16,2.16,0,0,1,4.32,0V39.73h0c-1,0-1.26-1.19-1.26-2.34h0a2.33,2.33,0,0,1-2.16,2.34h-.9"/><path class="cls-1" d="M38.8,18.75h0A2.16,2.16,0,0,1,41,20.91V37.57a2.16,2.16,0,0,1-4.32,0V18.75H38.8"/><path class="cls-1" d="M35.48,18.75h0V37.57a2.16,2.16,0,1,1-4.32,0V18.75h0c1,0,1.26,1.19,1.26,2.34h0a2.32,2.32,0,0,1,2.15-2.34h.91"/><path class="cls-1" d="M68.9,39.73h0a2.16,2.16,0,0,1-2.15-2.16V20.91a2.16,2.16,0,1,1,4.31,0V39.73H68.9"/><path class="cls-1" d="M72.23,39.73h0V20.91a2.16,2.16,0,1,1,4.31,0V39.73h0c-1,0-1.25-1.19-1.25-2.34h0a2.33,2.33,0,0,1-2.16,2.34h-.9"/><path class="cls-1" d="M51.69,37.57a2.17,2.17,0,1,1,2.17,2.16,2.17,2.17,0,0,1-2.17-2.16"/><path class="cls-1" d="M116.48,57.05V53.58H117v3h1.3v.45Z"/><path class="cls-1" d="M121.28,56.3a1.26,1.26,0,0,1-.7.71,1.62,1.62,0,0,1-.54.1,1.37,1.37,0,0,1-.54-.1,1.09,1.09,0,0,1-.42-.27,1.19,1.19,0,0,1-.28-.43,1.61,1.61,0,0,1-.1-.57V53.58h.48v2.16a1.06,1.06,0,0,0,.07.42.77.77,0,0,0,.19.29.85.85,0,0,0,.28.16,1.13,1.13,0,0,0,.32,0,1.2,1.2,0,0,0,.33,0,1,1,0,0,0,.28-.16.88.88,0,0,0,.2-.29,1.06,1.06,0,0,0,.07-.42V53.58h.47v2.16A1.43,1.43,0,0,1,121.28,56.3Z"/><path class="cls-1" d="M124.24,57.05l-.77-1.18-.06-.1a.44.44,0,0,0-.06-.1.11.11,0,0,0,0,0s0,0,0,0l-.06.1-.07.11-.76,1.17h-.54l1.19-1.83L122,53.58h.58l.66,1,.11.18c0-.08.08-.14.11-.19l.66-1h.54l-1,1.62,1.2,1.85Z"/><path class="cls-1" d="M125.3,57.05V53.58h1.92V54h-1.45v1.09h1.42v.45h-1.42v1h1.54v.45Z"/><path class="cls-1" d="M130.8,57.05V54.5a.72.72,0,0,1,0-.13l-.05.08-1.08,1.47h-.19l-1.08-1.43,0-.08a.66.66,0,0,1,0,.13v2.51h-.47V53.58h.4l1.29,1.7,1.26-1.7h.42v3.47Z"/><path class="cls-1" d="M134,56.44a.91.91,0,0,1-.52.52,1.14,1.14,0,0,1-.48.09h-1V53.58h.91a1.29,1.29,0,0,1,.4.07.79.79,0,0,1,.31.18.86.86,0,0,1,.21.29.87.87,0,0,1,.07.37.94.94,0,0,1-.11.49.9.9,0,0,1-.28.3.62.62,0,0,1,.2.1,1.07,1.07,0,0,1,.19.18,1.23,1.23,0,0,1,.14.25.94.94,0,0,1,.05.3A1,1,0,0,1,134,56.44Zm-.76-2.27a.64.64,0,0,0-.44-.13h-.36v1.08h.32a.91.91,0,0,0,.31,0,.47.47,0,0,0,.19-.14.5.5,0,0,0,.1-.19.76.76,0,0,0,0-.21A.43.43,0,0,0,133.24,54.17Zm.17,1.54a.6.6,0,0,0-.41-.14h-.56v1H133a.69.69,0,0,0,.47-.14.53.53,0,0,0,.15-.39A.44.44,0,0,0,133.41,55.71Z"/><path class="cls-1" d="M137.84,56a1.73,1.73,0,0,1-.38.57,1.75,1.75,0,0,1-.55.38,1.77,1.77,0,0,1-.69.14,1.72,1.72,0,0,1-.68-.14,1.63,1.63,0,0,1-.94-.94,1.89,1.89,0,0,1-.14-.72,2,2,0,0,1,.13-.71A1.76,1.76,0,0,1,135,54a1.64,1.64,0,0,1,.55-.38,1.94,1.94,0,0,1,1.42,0,1.64,1.64,0,0,1,.56.38,1.92,1.92,0,0,1,.36.56,2.08,2.08,0,0,1,.13.71A1.78,1.78,0,0,1,137.84,56Zm-.45-1.24a1.15,1.15,0,0,0-.26-.41,1.2,1.2,0,0,0-.41-.28,1.4,1.4,0,0,0-.51-.1,1.36,1.36,0,0,0-.51.1,1.24,1.24,0,0,0-.66.69,1.51,1.51,0,0,0-.09.53,1.32,1.32,0,0,0,.1.53,1.29,1.29,0,0,0,.28.42,1.25,1.25,0,0,0,.41.28,1.12,1.12,0,0,0,.48.1,1.37,1.37,0,0,0,.49-.09,1.18,1.18,0,0,0,.4-.27,1.32,1.32,0,0,0,.27-.42,1.43,1.43,0,0,0,.11-.56A1.27,1.27,0,0,0,137.39,54.78Z"/><path class="cls-1" d="M141.1,56.3a1.33,1.33,0,0,1-.28.43,1.23,1.23,0,0,1-.43.28,1.51,1.51,0,0,1-.53.1,1.42,1.42,0,0,1-.55-.1,1.17,1.17,0,0,1-.42-.27,1.05,1.05,0,0,1-.27-.43,1.42,1.42,0,0,1-.1-.57V53.58H139v2.16a1.27,1.27,0,0,0,.07.42.77.77,0,0,0,.19.29,1,1,0,0,0,.28.16,1.2,1.2,0,0,0,.33,0,1.13,1.13,0,0,0,.32,0,.85.85,0,0,0,.28-.16.88.88,0,0,0,.2-.29,1,1,0,0,0,.08-.42V53.58h.46v2.16A1.43,1.43,0,0,1,141.1,56.3Z"/><path class="cls-1" d="M143.74,57.05l-1.39-1.62v1.62h-.47V53.58H143a1,1,0,0,1,.44.09.83.83,0,0,1,.33.22.87.87,0,0,1,.22.32,1.05,1.05,0,0,1,.07.4A.84.84,0,0,1,144,55a.89.89,0,0,1-.21.32,1.06,1.06,0,0,1-.31.21,1,1,0,0,1-.37.08l1.26,1.45Zm-.22-2.65a.38.38,0,0,0-.12-.17.6.6,0,0,0-.2-.14.65.65,0,0,0-.29-.05h-.56v1.18h.55a.69.69,0,0,0,.49-.17.61.61,0,0,0,.17-.46A.46.46,0,0,0,143.52,54.4Z"/><path class="cls-1" d="M147.79,56.14a1.54,1.54,0,0,1-.35.51,1.43,1.43,0,0,1-.5.34,1.52,1.52,0,0,1-.59.12,1.78,1.78,0,0,1-.64-.13,2.06,2.06,0,0,1-.56-.36,1.92,1.92,0,0,1-.39-.57,1.73,1.73,0,0,1-.15-.73,1.78,1.78,0,0,1,.14-.74,1.68,1.68,0,0,1,.38-.56,1.46,1.46,0,0,1,.55-.36,1.7,1.7,0,0,1,.67-.13,1.94,1.94,0,0,1,.72.12,2.14,2.14,0,0,1,.55.35l-.29.35a1.68,1.68,0,0,0-.46-.27,1.44,1.44,0,0,0-.53-.09,1.12,1.12,0,0,0-.48.1,1,1,0,0,0-.4.27,1.27,1.27,0,0,0-.27.42,1.53,1.53,0,0,0-.09.54,1.25,1.25,0,0,0,.1.51,1.37,1.37,0,0,0,.27.42,1.47,1.47,0,0,0,.4.29,1.16,1.16,0,0,0,.49.1,1.17,1.17,0,0,0,.65-.19,1.15,1.15,0,0,0,.22-.22,1,1,0,0,0,.14-.29h-1v-.45h1.58A1.71,1.71,0,0,1,147.79,56.14Z"/><path class="cls-1" d="M152.19,56.92a1.6,1.6,0,0,1-.8.19,1.47,1.47,0,0,1-.62-.13,1.73,1.73,0,0,1-.54-.35,1.9,1.9,0,0,1-.38-.57,1.78,1.78,0,0,1-.15-.74,1.87,1.87,0,0,1,.13-.71,1.71,1.71,0,0,1,.35-.56,1.47,1.47,0,0,1,.54-.38,1.56,1.56,0,0,1,.68-.14,1.89,1.89,0,0,1,.77.14,1.5,1.5,0,0,1,.5.4l-.34.31a1.25,1.25,0,0,0-.41-.28,1.19,1.19,0,0,0-.51-.11,1.1,1.1,0,0,0-.47.1,1.16,1.16,0,0,0-.39.26,1.29,1.29,0,0,0-.26.42,1.33,1.33,0,0,0-.1.54,1.46,1.46,0,0,0,.11.58,1.49,1.49,0,0,0,.29.42,1.36,1.36,0,0,0,.39.25,1.29,1.29,0,0,0,.41.08,1.25,1.25,0,0,0,.52-.11,1.2,1.2,0,0,0,.49-.37l.34.3A1.57,1.57,0,0,1,152.19,56.92Z"/><path class="cls-1" d="M153.27,57.05V53.58h1.92V54h-1.45v1.09h1.42v.45h-1.42v1h1.54v.45Z"/><path class="cls-1" d="M158.19,57.05l-1.8-2.51s0,0-.06-.1a.68.68,0,0,1,0,.12v2.49h-.47V53.58h.4l1.78,2.47a.64.64,0,0,1,.06.1.62.62,0,0,1,0-.12V53.58h.47v3.47Z"/><path class="cls-1" d="M160.27,54v3h-.47V54h-.7v-.46H161V54Z"/><path class="cls-1" d="M163.39,57.05,162,55.43v1.62h-.47V53.58h1.11a1,1,0,0,1,.44.09.83.83,0,0,1,.33.22.87.87,0,0,1,.22.32,1.05,1.05,0,0,1,.07.4.84.84,0,0,1-.08.38.89.89,0,0,1-.21.32,1,1,0,0,1-.32.21.9.9,0,0,1-.36.08L164,57.05Zm-.22-2.65a.38.38,0,0,0-.12-.17.6.6,0,0,0-.2-.14.65.65,0,0,0-.29-.05H162v1.18h.55a.69.69,0,0,0,.49-.17.61.61,0,0,0,.17-.46A.46.46,0,0,0,163.17,54.4Z"/><path class="cls-1" d="M164.4,57.05V53.58h1.92V54h-1.45v1.09h1.41v.45h-1.41v1h1.54v.45Z"/><path class="cls-1" d="M168.88,54v1.09H170v.45h-1.15v1.47h-.47V53.58h1.69V54Z"/><path class="cls-1" d="M173.87,56a1.73,1.73,0,0,1-.38.57,1.64,1.64,0,0,1-.55.38,1.76,1.76,0,0,1-.68.14,1.74,1.74,0,0,1-.69-.14,1.66,1.66,0,0,1-.56-.37,1.73,1.73,0,0,1-.38-.57,1.89,1.89,0,0,1-.14-.72,1.83,1.83,0,0,1,.14-.71A1.58,1.58,0,0,1,171,54a1.64,1.64,0,0,1,.55-.38,1.94,1.94,0,0,1,1.42,0,1.55,1.55,0,0,1,.56.38,1.92,1.92,0,0,1,.36.56,1.87,1.87,0,0,1,.13.71A1.78,1.78,0,0,1,173.87,56Zm-.44-1.24a1.17,1.17,0,0,0-.27-.41,1.26,1.26,0,0,0-.4-.28,1.46,1.46,0,0,0-.52-.1,1.36,1.36,0,0,0-.51.1,1.15,1.15,0,0,0-.4.28,1.31,1.31,0,0,0-.26.41,1.51,1.51,0,0,0-.09.53,1.32,1.32,0,0,0,.11.53,1,1,0,0,0,.28.42,1.12,1.12,0,0,0,.4.28,1.19,1.19,0,0,0,.49.1,1.28,1.28,0,0,0,.48-.09,1.18,1.18,0,0,0,.4-.27,1.34,1.34,0,0,0,.28-.42,1.43,1.43,0,0,0,.1-.56A1.46,1.46,0,0,0,173.43,54.78Z"/><path class="cls-1" d="M176.43,57.05,175,55.43v1.62h-.47V53.58h1.11a1,1,0,0,1,.44.09.83.83,0,0,1,.33.22.87.87,0,0,1,.22.32,1.05,1.05,0,0,1,.07.4.84.84,0,0,1-.08.38.89.89,0,0,1-.21.32,1.06,1.06,0,0,1-.31.21,1,1,0,0,1-.37.08L177,57.05Zm-.21-2.65a.52.52,0,0,0-.13-.17.6.6,0,0,0-.2-.14.65.65,0,0,0-.29-.05H175v1.18h.55a.68.68,0,0,0,.49-.17.62.62,0,0,0,.18-.46A.72.72,0,0,0,176.22,54.4Z"/><path class="cls-1" d="M118.82,63.49a1.6,1.6,0,0,1-.8.19,1.5,1.5,0,0,1-.62-.13,1.73,1.73,0,0,1-.54-.35,2,2,0,0,1-.38-.56,1.82,1.82,0,0,1-.14-.75,2,2,0,0,1,.12-.7,1.82,1.82,0,0,1,.35-.57,1.6,1.6,0,0,1,.54-.38,1.74,1.74,0,0,1,.69-.14,1.69,1.69,0,0,1,.76.15,1.65,1.65,0,0,1,.51.39L119,61a1.28,1.28,0,0,0-.41-.29,1.18,1.18,0,0,0-.5-.1,1.28,1.28,0,0,0-.48.09,1.05,1.05,0,0,0-.39.27,1.15,1.15,0,0,0-.26.41,1.53,1.53,0,0,0-.1.54,1.35,1.35,0,0,0,.12.59,1.22,1.22,0,0,0,.29.41,1,1,0,0,0,.39.25,1,1,0,0,0,.41.08,1.36,1.36,0,0,0,.51-.1,1.33,1.33,0,0,0,.49-.37l.34.29A1.4,1.4,0,0,1,118.82,63.49Z"/><path class="cls-1" d="M123,62.6a2,2,0,0,1-.38.56,1.68,1.68,0,0,1-.56.38,1.72,1.72,0,0,1-.68.14,1.64,1.64,0,0,1-.69-.14,1.76,1.76,0,0,1-.56-.37,1.7,1.7,0,0,1-.37-.57,1.85,1.85,0,0,1-.14-.72,1.78,1.78,0,0,1,.13-.7,1.7,1.7,0,0,1,.37-.57,1.53,1.53,0,0,1,.55-.37,1.74,1.74,0,0,1,.69-.14,1.85,1.85,0,0,1,.72.14,1.59,1.59,0,0,1,.56.38,1.7,1.7,0,0,1,.37.57,2,2,0,0,1,.13.7A1.87,1.87,0,0,1,123,62.6Zm-.45-1.25a1.15,1.15,0,0,0-.26-.41,1,1,0,0,0-.41-.27,1.27,1.27,0,0,0-.52-.1,1.25,1.25,0,0,0-.51.1,1.05,1.05,0,0,0-.39.27,1.15,1.15,0,0,0-.26.41,1.55,1.55,0,0,0-.09.53,1.4,1.4,0,0,0,.1.54,1.34,1.34,0,0,0,.28.42,1.3,1.3,0,0,0,.41.28,1.33,1.33,0,0,0,1,0,1.13,1.13,0,0,0,.41-.27,1.27,1.27,0,0,0,.27-.42,1.4,1.4,0,0,0,.11-.56A1.46,1.46,0,0,0,122.56,61.35Z"/><path class="cls-1" d="M126,63.62l-1.8-2.51-.06-.09a.54.54,0,0,1,0,.11v2.49h-.47V60.16h.4l1.77,2.46.07.1a.54.54,0,0,1,0-.11V60.16h.47v3.46Z"/><path class="cls-1" d="M128.11,60.61v3h-.47v-3h-.7v-.45h1.9v.45Z"/><path class="cls-1" d="M129.37,63.62V60.16h1.91v.45h-1.44v1.1h1.41v.45h-1.41v1h1.53v.45Z"/><path class="cls-1" d="M134.86,63.62V61.07a.72.72,0,0,1,0-.13l-.05.08-1.07,1.47h-.19l-1.09-1.43,0-.08c0,.06,0,.1,0,.13v2.51H132V60.16h.4l1.29,1.69,1.25-1.69h.42v3.46Z"/><path class="cls-1" d="M138.1,61.62a1,1,0,0,1-.22.33,1.23,1.23,0,0,1-.33.23,1.1,1.1,0,0,1-.4.08h-.64v1.36H136V60.16h1a1.34,1.34,0,0,1,.46.08,1.11,1.11,0,0,1,.36.23.83.83,0,0,1,.22.33,1.18,1.18,0,0,1,.08.43A.86.86,0,0,1,138.1,61.62Zm-.59-.86a.79.79,0,0,0-.51-.15h-.49v1.2H137a.72.72,0,0,0,.49-.16.53.53,0,0,0,.19-.45A.52.52,0,0,0,137.51,60.76Z"/><path class="cls-1" d="M142,62.6a1.79,1.79,0,0,1-.38.56,1.64,1.64,0,0,1-.55.38,1.76,1.76,0,0,1-.68.14,1.58,1.58,0,0,1-.69-.14,1.66,1.66,0,0,1-.56-.37,1.73,1.73,0,0,1-.38-.57,1.85,1.85,0,0,1-.14-.72,1.78,1.78,0,0,1,.14-.7,1.54,1.54,0,0,1,.36-.57,1.72,1.72,0,0,1,.55-.37,1.81,1.81,0,0,1,.69-.14,1.9,1.9,0,0,1,.73.14,1.68,1.68,0,0,1,.56.38,1.85,1.85,0,0,1,.36.57,1.82,1.82,0,0,1,.13.7A1.87,1.87,0,0,1,142,62.6Zm-.44-1.25a1.17,1.17,0,0,0-.27-.41,1.09,1.09,0,0,0-.4-.27,1.27,1.27,0,0,0-.52-.1,1.19,1.19,0,0,0-.51.1,1,1,0,0,0-.4.27,1.31,1.31,0,0,0-.26.41,1.55,1.55,0,0,0-.09.53,1.41,1.41,0,0,0,.11.54,1.19,1.19,0,0,0,.28.42,1.26,1.26,0,0,0,.4.28,1.37,1.37,0,0,0,.49.09,1.28,1.28,0,0,0,.48-.09,1.18,1.18,0,0,0,.4-.27,1.15,1.15,0,0,0,.28-.42,1.4,1.4,0,0,0,.1-.56A1.46,1.46,0,0,0,141.51,61.35Z"/><path class="cls-1" d="M144.51,63.62,143.12,62v1.62h-.47V60.16h1.11a1,1,0,0,1,.44.08,1,1,0,0,1,.33.22.87.87,0,0,1,.22.32,1.09,1.09,0,0,1,.07.4.85.85,0,0,1-.08.39,1,1,0,0,1-.21.31,1.06,1.06,0,0,1-.31.21.8.8,0,0,1-.37.08l1.26,1.45ZM144.3,61a.46.46,0,0,0-.13-.18.6.6,0,0,0-.2-.14.84.84,0,0,0-.29,0h-.56V61.8h.55a.64.64,0,0,0,.49-.18.62.62,0,0,0,.18-.46A.58.58,0,0,0,144.3,61Z"/><path class="cls-1" d="M147.75,63.62l-.41-1.12h-1.1l-.41,1.12h-.5l1.32-3.46h.3l1.32,3.46Zm-.93-2.54,0-.09a.51.51,0,0,0,0,.09l-.36,1h.76Z"/><path class="cls-1" d="M150.6,63.62,149.21,62v1.62h-.47V60.16h1.11a1,1,0,0,1,.44.08,1,1,0,0,1,.33.22.87.87,0,0,1,.22.32,1.1,1.1,0,0,1,.08.4,1,1,0,0,1-.08.39,1.16,1.16,0,0,1-.22.31,1.06,1.06,0,0,1-.31.21.8.8,0,0,1-.37.08l1.26,1.45ZM150.39,61a.46.46,0,0,0-.13-.18.6.6,0,0,0-.2-.14.84.84,0,0,0-.29,0h-.56V61.8h.55a.64.64,0,0,0,.49-.18.62.62,0,0,0,.18-.46A.58.58,0,0,0,150.39,61Z"/><path class="cls-1" d="M152.77,62v1.61h-.47V62l-1.18-1.85h.55l.82,1.29.06.1a.89.89,0,0,1,0-.1l.83-1.29H154Z"/><path class="cls-1" d="M157.63,63.62l-.41-1.12h-1.1l-.41,1.12h-.5l1.32-3.46h.3l1.32,3.46Zm-.93-2.54,0-.09a.46.46,0,0,1,0,.09l-.35,1h.76Z"/><path class="cls-1" d="M160.94,63.62l-1.8-2.51-.06-.09a.54.54,0,0,1,0,.11v2.49h-.47V60.16h.4l1.78,2.46.06.1a.54.54,0,0,1,0-.11V60.16h.47v3.46Z"/><path class="cls-1" d="M164.61,62.56a1.62,1.62,0,0,1-.37.55,2,2,0,0,1-.59.38,2.22,2.22,0,0,1-.79.13H162V60.16h.88a2.13,2.13,0,0,1,.78.13,1.65,1.65,0,0,1,.57.37,1.54,1.54,0,0,1,.36.55,1.85,1.85,0,0,1,.12.67A1.91,1.91,0,0,1,164.61,62.56Zm-.46-1.18a1.42,1.42,0,0,0-.28-.41,1.15,1.15,0,0,0-.42-.28,1.43,1.43,0,0,0-.56-.1h-.4V63.2h.31a1.6,1.6,0,0,0,.65-.12,1.11,1.11,0,0,0,.45-.3,1,1,0,0,0,.26-.42,1.26,1.26,0,0,0,.08-.47A1.44,1.44,0,0,0,164.15,61.38Z"/><path class="cls-1" d="M169.29,62.56a1.62,1.62,0,0,1-.37.55,1.87,1.87,0,0,1-.59.38,2.18,2.18,0,0,1-.79.13h-.83V60.16h.87a2.13,2.13,0,0,1,.78.13,1.8,1.8,0,0,1,.58.37,1.67,1.67,0,0,1,.35.55,1.85,1.85,0,0,1,.12.67A1.91,1.91,0,0,1,169.29,62.56Zm-.46-1.18a1.42,1.42,0,0,0-.28-.41,1.15,1.15,0,0,0-.42-.28,1.43,1.43,0,0,0-.56-.1h-.39V63.2h.3a1.57,1.57,0,0,0,.65-.12,1,1,0,0,0,.45-.3,1,1,0,0,0,.26-.42,1.26,1.26,0,0,0,.08-.47A1.44,1.44,0,0,0,168.83,61.38Z"/><path class="cls-1" d="M170,63.62V60.16h.47v3.46Z"/><path class="cls-1" d="M174.19,62.72a1.65,1.65,0,0,1-.35.51,1.56,1.56,0,0,1-.5.33,1.48,1.48,0,0,1-.59.12,1.59,1.59,0,0,1-.64-.13,1.54,1.54,0,0,1-.55-.36,1.78,1.78,0,0,1-.4-.57,1.73,1.73,0,0,1-.15-.73,1.9,1.9,0,0,1,.14-.73,1.73,1.73,0,0,1,.38-.57,1.69,1.69,0,0,1,.55-.36,1.92,1.92,0,0,1,1.39,0,2.1,2.1,0,0,1,.55.34l-.29.35a1.79,1.79,0,0,0-.45-.27,1.48,1.48,0,0,0-.53-.08,1.3,1.3,0,0,0-.49.09,1.09,1.09,0,0,0-.4.27,1.11,1.11,0,0,0-.26.42,1.38,1.38,0,0,0-.1.55,1.24,1.24,0,0,0,.1.5,1.32,1.32,0,0,0,.27.42,1.41,1.41,0,0,0,.4.29,1.16,1.16,0,0,0,.49.1,1.29,1.29,0,0,0,.35,0,1.4,1.4,0,0,0,.3-.15.77.77,0,0,0,.22-.22.74.74,0,0,0,.14-.28h-1v-.45h1.58A1.57,1.57,0,0,1,174.19,62.72Z"/><path class="cls-1" d="M174.84,63.62V60.16h.47v3.46Z"/><path class="cls-1" d="M177,60.61v3h-.47v-3h-.7v-.45h1.9v.45Z"/><path class="cls-1" d="M180.08,63.62l-.42-1.12h-1.09l-.42,1.12h-.49L179,60.16h.3l1.33,3.46Zm-.94-2.54a.92.92,0,0,0,0-.09.64.64,0,0,1,0,.09l-.36,1h.77Z"/><path class="cls-1" d="M181.07,63.62V60.16h.47v3h1.3v.45Z"/><path class="cls-1" d="M186.84,63.62V62.13H185.2v1.49h-.47V60.16h.47v1.52h1.64V60.16h.47v3.46Z"/><path class="cls-1" d="M188,63.62V60.16h.47v3.46Z"/><path class="cls-1" d="M191,63.12a1.19,1.19,0,0,1-.23.31,1.35,1.35,0,0,1-.33.19,1.4,1.4,0,0,1-.41.06,1.82,1.82,0,0,1-.52-.08,1.5,1.5,0,0,1-.49-.27l.27-.37a.91.91,0,0,0,.16.11l.18.08a.67.67,0,0,0,.19.05l.19,0a.7.7,0,0,0,.42-.12.41.41,0,0,0,.16-.36.42.42,0,0,0,0-.2,1,1,0,0,0-.13-.16.86.86,0,0,0-.18-.14l-.22-.12-.36-.19a1.4,1.4,0,0,1-.32-.22.84.84,0,0,1-.22-.3.87.87,0,0,1-.09-.42.84.84,0,0,1,.07-.35.94.94,0,0,1,.2-.29.73.73,0,0,1,.31-.18,1.07,1.07,0,0,1,.41-.07,1.57,1.57,0,0,1,.49.08,1.51,1.51,0,0,1,.44.22l-.26.38a1.15,1.15,0,0,0-.31-.16,1,1,0,0,0-.37,0,.55.55,0,0,0-.34.1.32.32,0,0,0-.15.29.49.49,0,0,0,.06.25.64.64,0,0,0,.16.17,1,1,0,0,0,.24.15l.3.15.29.16a1.27,1.27,0,0,1,.25.21.92.92,0,0,1,.19.28.89.89,0,0,1,.07.38A1.07,1.07,0,0,1,191,63.12Z"/><path class="cls-1" d="M192.57,60.61v3h-.47v-3h-.7v-.45h1.9v.45Z"/><path class="cls-1" d="M196.83,62.6a1.79,1.79,0,0,1-.38.56,1.75,1.75,0,0,1-.55.38,1.77,1.77,0,0,1-.69.14,1.56,1.56,0,0,1-.68-.14,1.63,1.63,0,0,1-.94-.94,1.85,1.85,0,0,1-.14-.72,2,2,0,0,1,.13-.7,1.7,1.7,0,0,1,.37-.57,1.62,1.62,0,0,1,.55-.37,1.74,1.74,0,0,1,.69-.14,1.9,1.9,0,0,1,.73.14,1.79,1.79,0,0,1,.56.38,1.85,1.85,0,0,1,.36.57,2,2,0,0,1,.13.7A1.87,1.87,0,0,1,196.83,62.6Zm-.44-1.25a1.33,1.33,0,0,0-.27-.41,1.09,1.09,0,0,0-.4-.27,1.3,1.3,0,0,0-.52-.1,1.19,1.19,0,0,0-.51.1,1,1,0,0,0-.4.27,1.15,1.15,0,0,0-.26.41,1.55,1.55,0,0,0-.09.53,1.62,1.62,0,0,0,.1.54,1.54,1.54,0,0,0,.28.42,1.42,1.42,0,0,0,.41.28,1.32,1.32,0,0,0,.48.09,1.37,1.37,0,0,0,.49-.09,1.18,1.18,0,0,0,.4-.27,1.29,1.29,0,0,0,.28-.42,1.6,1.6,0,0,0,.1-.56A1.46,1.46,0,0,0,196.39,61.35Z"/><path class="cls-1" d="M199.39,63.62,198,62v1.62h-.47V60.16h1.11a1,1,0,0,1,.44.08,1,1,0,0,1,.33.22.87.87,0,0,1,.22.32,1.09,1.09,0,0,1,.07.4.85.85,0,0,1-.08.39,1,1,0,0,1-.21.31,1,1,0,0,1-.32.21.76.76,0,0,1-.36.08L200,63.62ZM199.17,61a.36.36,0,0,0-.12-.18.6.6,0,0,0-.2-.14.84.84,0,0,0-.29,0H198V61.8h.55a.66.66,0,0,0,.49-.18.61.61,0,0,0,.17-.46A.39.39,0,0,0,199.17,61Z"/><path class="cls-1" d="M201.55,62v1.61h-.47V62l-1.18-1.85h.55l.83,1.29.05.1a.29.29,0,0,1,.06-.1l.82-1.29h.54Z"/><rect class="cls-1" x="177.01" y="27.95" width="5.47" height="5.47"/><rect class="cls-1" x="185.89" y="36.47" width="5.47" height="5.47"/><rect class="cls-1" x="180.57" y="19.97" width="5.47" height="5.47"/><rect class="cls-1" x="153.7" y="19.39" width="5.47" height="5.47"/><rect class="cls-1" x="167.51" y="17.09" width="5.47" height="5.47"/><rect class="cls-1" x="177.2" y="40.18" width="5.47" height="5.47"/><rect class="cls-1" x="140.43" y="13.55" width="5.47" height="5.47"/><path class="cls-1" d="M150.13,35.83a5.77,5.77,0,0,0-1.84-1.21,6.26,6.26,0,0,0-2.43-.45h-1.71v11.2h1.33a7.31,7.31,0,0,0,2.83-.49,5.61,5.61,0,0,0,1.94-1.28,5,5,0,0,0,1.12-1.8,6,6,0,0,0,.36-2,5.48,5.48,0,0,0-.42-2.14A5.38,5.38,0,0,0,150.13,35.83Z"/><path class="cls-1" d="M116.43,28.55V49.93h54.85V28.55Zm14.08,18.1a7.46,7.46,0,0,1-3.5.8,6.91,6.91,0,0,1-2.66-.54A7.36,7.36,0,0,1,122,45.38,7.45,7.45,0,0,1,120.36,43a7.84,7.84,0,0,1-.63-3.2,8.13,8.13,0,0,1,.55-3,7.35,7.35,0,0,1,1.52-2.44,7,7,0,0,1,2.33-1.63,7.43,7.43,0,0,1,3-.59,7.52,7.52,0,0,1,3.3.63,6.44,6.44,0,0,1,2.19,1.69l-1.5,1.34a5.68,5.68,0,0,0-1.75-1.23,5.4,5.4,0,0,0-2.2-.44,5.28,5.28,0,0,0-2,.41,5.15,5.15,0,0,0-1.69,1.14,5.39,5.39,0,0,0-1.14,1.77,6.67,6.67,0,0,0,.07,4.84A5.86,5.86,0,0,0,123.58,44a5.43,5.43,0,0,0,1.69,1.07,4.94,4.94,0,0,0,1.79.35,6,6,0,0,0,2.23-.46,5.64,5.64,0,0,0,2.12-1.59l1.47,1.26A6.5,6.5,0,0,1,130.51,46.65ZM140,40.43h-5.75L138,35.67a2.81,2.81,0,0,0,.48-.81,2.22,2.22,0,0,0,.09-.57,1.55,1.55,0,0,0-.17-.76,1.34,1.34,0,0,0-.41-.47,1.53,1.53,0,0,0-.52-.24,1.93,1.93,0,0,0-.5-.07,1.8,1.8,0,0,0-.73.13,1.39,1.39,0,0,0-.8.91,2.3,2.3,0,0,0-.09.64h-1.14a3.32,3.32,0,0,1,.22-1.22,2.48,2.48,0,0,1,.59-.88,2.22,2.22,0,0,1,.87-.53,3.24,3.24,0,0,1,1.09-.18,3.5,3.5,0,0,1,1,.15,2.46,2.46,0,0,1,.89.47,2.42,2.42,0,0,1,.64.82,2.87,2.87,0,0,1,.24,1.23,3,3,0,0,1-.17,1,3.19,3.19,0,0,1-.58,1l-2.48,3H140Zm13.33,2.21A6.89,6.89,0,0,1,151.7,45a7.61,7.61,0,0,1-2.56,1.59,9.15,9.15,0,0,1-3.42.59h-3.6V32.34h3.79a9.33,9.33,0,0,1,3.37.58,7.15,7.15,0,0,1,2.5,1.59,7,7,0,0,1,1.54,2.35,8,8,0,0,1,0,5.78Zm14.19,4.56h-2V40.81h-7.13V47.2h-2V32.34h2v6.54h7.13V32.34h2Z"/></g></svg>
