<?xml version="1.0" encoding="UTF-8"?>
<svg id="Logos" xmlns="http://www.w3.org/2000/svg" version="1.1" viewBox="0 0 258.29 85.28">
  <!-- Generator: Adobe Illustrator 30.1.0, SVG Export Plug-In . SVG Version: 2.1.1 Build 136)  -->
  <defs>
    <style>
      .st0 {
        fill: #fff;
      }
    </style>
  </defs>
  <g>
    <path class="st0" d="M123.93,31.53s-.05-.07-.05-.11v-8.84s.02-.08.05-.11c.03-.03.07-.05.11-.05h1.2s.08.02.11.05c.03.03.05.07.05.11v7.62s.02.07.07.07h4.38s.08.02.11.05.05.07.05.11v.99s-.02.08-.05.11-.07.05-.11.05h-5.8s-.08-.02-.11-.05Z"/>
    <path class="st0" d="M135.18,24.94s.07-.05.11-.05h1.19s.08.02.11.05c.03.03.05.07.05.11v6.37s-.02.08-.05.11c-.03.03-.07.05-.11.05h-1.19s-.08-.02-.11-.05-.05-.07-.05-.11v-.42s0-.04-.03-.05-.03,0-.05.03c-.36.46-.89.69-1.61.69-.66,0-1.22-.19-1.67-.58-.45-.38-.67-.93-.67-1.63v-4.41s.02-.08.05-.11.07-.05.11-.05h1.2s.08.02.11.05.05.07.05.11v3.97c0,.41.11.74.32.98.21.24.51.37.89.37s.71-.12.94-.37c.23-.24.35-.57.35-.98v-3.97s.02-.08.05-.11Z"/>
    <path class="st0" d="M137.77,31.51s-.02-.09.02-.14l2.12-3.11s.02-.05,0-.08l-2.12-3.1s-.03-.07-.03-.09c0-.07.04-.1.13-.1h1.28c.08,0,.14.04.18.1l1.36,2.01s.03.03.05.03.03,0,.04-.03l1.36-2.01c.04-.07.1-.1.18-.1h1.37c.06,0,.1.02.12.06.02.04.02.09-.02.14l-2.12,3.1s0,.05,0,.08l2.12,3.11s.03.07.03.09c0,.07-.04.1-.13.1h-1.28c-.08,0-.14-.03-.18-.1l-1.36-2.01s-.02-.03-.04-.03-.04,0-.05.03l-1.36,2.01c-.04.07-.1.1-.18.1h-1.37c-.06,0-.1-.02-.12-.06Z"/>
    <path class="st0" d="M150.26,28.21v.41c-.01.1-.07.16-.17.16h-4.09s-.07.02-.07.07c.03.29.07.48.12.59.21.63.72.95,1.53.95.59,0,1.06-.24,1.41-.73.04-.05.08-.08.13-.08.03,0,.06.01.09.04l.81.67c.08.06.09.13.04.21-.27.38-.63.68-1.08.89-.45.21-.95.31-1.5.31-.68,0-1.26-.15-1.73-.46-.48-.3-.82-.73-1.04-1.28-.2-.47-.3-1.12-.3-1.96,0-.5.05-.92.16-1.23.17-.61.5-1.09.99-1.44.48-.35,1.07-.53,1.75-.53,1.72,0,2.68.9,2.9,2.69.04.22.05.46.05.73ZM146.5,26.34c-.21.16-.36.39-.45.67-.05.15-.09.34-.1.57-.02.04,0,.07.05.07h2.65s.07-.02.07-.07c-.02-.22-.05-.38-.08-.5-.08-.31-.23-.56-.46-.73s-.52-.26-.87-.26c-.32,0-.59.08-.8.24Z"/>
    <path class="st0" d="M160.36,25.39c.38.41.57.97.57,1.69v4.33s-.02.08-.05.11-.07.05-.11.05h-1.19s-.08-.02-.11-.05-.05-.07-.05-.11v-4.01c0-.4-.11-.72-.32-.95s-.5-.35-.86-.35-.65.12-.87.35-.34.55-.34.94v4.03s-.01.08-.05.11-.07.05-.11.05h-1.19s-.08-.02-.11-.05-.05-.07-.05-.11v-4.01c0-.4-.11-.72-.33-.95-.22-.24-.5-.35-.86-.35-.33,0-.6.1-.82.29-.21.19-.34.45-.37.78v4.25s-.01.08-.05.11-.07.05-.11.05h-1.2s-.08-.02-.11-.05-.05-.07-.05-.11v-6.37s.02-.08.05-.11.07-.05.11-.05h1.2s.08.02.11.05.05.07.05.11v.43s0,.04.03.05c.02,0,.04,0,.05-.03.19-.24.43-.42.71-.54.28-.12.6-.18.95-.18.43,0,.8.09,1.12.26.32.17.57.43.75.76.03.04.06.04.09,0,.19-.35.46-.61.8-.77.34-.17.72-.25,1.14-.25.67,0,1.19.2,1.57.61Z"/>
    <path class="st0" d="M168.3,28.21c0,.62-.08,1.16-.25,1.63-.19.57-.5,1.02-.93,1.35-.43.32-.95.48-1.57.48s-1.11-.23-1.5-.69c-.02-.03-.04-.03-.05-.03s-.03.03-.03.05v.41s-.02.08-.05.11-.07.05-.11.05h-1.2s-.08-.02-.11-.05-.05-.07-.05-.11v-8.84s.01-.08.05-.11c.03-.03.07-.05.11-.05h1.2s.08.02.11.05c.03.03.05.07.05.11v2.84s0,.04.03.05.04,0,.05-.01c.37-.44.87-.67,1.49-.67s1.18.16,1.6.48.73.77.93,1.35c.15.49.22,1.02.22,1.6ZM166.75,28.24c0-.68-.13-1.21-.39-1.59-.23-.37-.58-.55-1.05-.55-.43,0-.75.19-.98.57-.22.36-.33.88-.33,1.56s.1,1.18.3,1.52c.23.42.57.63,1.02.63.24,0,.46-.05.65-.16.19-.11.34-.26.46-.46.21-.37.31-.87.31-1.5Z"/>
    <path class="st0" d="M170.75,31.15c-.49-.35-.84-.83-1.04-1.45-.15-.47-.22-.97-.22-1.49,0-.56.07-1.05.21-1.49.2-.61.55-1.08,1.05-1.42.5-.34,1.09-.51,1.79-.51s1.24.17,1.72.51c.48.34.83.81,1.03,1.41.16.42.24.92.24,1.49s-.07,1.05-.22,1.49c-.2.62-.55,1.1-1.03,1.46-.49.35-1.07.53-1.74.53s-1.28-.17-1.77-.52ZM173.35,30.09c.23-.18.4-.44.5-.77.09-.29.13-.65.13-1.1,0-.47-.05-.84-.13-1.1-.09-.33-.26-.59-.5-.76-.23-.18-.52-.27-.86-.27s-.6.09-.84.27c-.24.18-.41.43-.51.76-.09.31-.13.67-.13,1.1s.04.79.13,1.1c.09.33.26.59.5.77.24.18.53.27.87.27s.6-.09.83-.27Z"/>
    <path class="st0" d="M180.94,24.94s.07-.05.11-.05h1.19s.08.02.11.05.05.07.05.11v6.37s-.01.08-.05.11-.07.05-.11.05h-1.19s-.08-.02-.11-.05-.05-.07-.05-.11v-.42s0-.04-.03-.05-.03,0-.05.03c-.36.46-.89.69-1.61.69-.66,0-1.22-.19-1.67-.58-.45-.38-.67-.93-.67-1.63v-4.41s.01-.08.05-.11.07-.05.11-.05h1.2s.08.02.11.05.05.07.05.11v3.97c0,.41.11.74.32.98.21.24.51.37.9.37s.71-.12.94-.37c.23-.24.35-.57.35-.98v-3.97s.01-.08.05-.11Z"/>
    <path class="st0" d="M187.85,24.98c.07.04.1.1.08.2l-.22,1.18c0,.1-.07.14-.18.09-.13-.04-.28-.07-.46-.07-.11,0-.2,0-.26.01-.37.02-.67.15-.92.39-.24.24-.37.55-.37.93v3.7s-.01.08-.05.11-.07.05-.11.05h-1.2s-.08-.02-.11-.05-.05-.07-.05-.11v-6.37s.02-.08.05-.11.07-.05.11-.05h1.2s.08.02.11.05.05.07.05.11v.59s0,.05.02.06c.01,0,.03,0,.05-.03.37-.57.87-.85,1.53-.85.28,0,.52.06.73.17Z"/>
    <path class="st0" d="M192.79,24.94s.07-.05.11-.05h1.2s.08.02.11.05c.03.03.05.07.05.11v6.08c0,1.09-.31,1.87-.93,2.33-.62.47-1.44.7-2.45.7-.27,0-.54-.01-.8-.04-.1,0-.14-.07-.14-.17l.04-1.07c0-.1.06-.14.18-.14.25.03.48.04.68.04.65,0,1.14-.13,1.44-.39.31-.26.46-.69.46-1.3v-.1s0-.04-.03-.05c-.02,0-.04,0-.05.02-.36.38-.86.57-1.52.57-.57,0-1.08-.14-1.56-.43-.47-.29-.8-.73-.98-1.32-.11-.41-.17-.94-.17-1.58,0-.72.07-1.28.21-1.66.17-.53.47-.96.9-1.27.43-.32.93-.48,1.5-.48.69,0,1.23.2,1.61.6.02.03.04.03.05.03.02,0,.03-.03.03-.05v-.31s.01-.08.05-.11ZM192.73,28.92c.01-.15.02-.4.02-.74s0-.57-.02-.71-.04-.29-.09-.42c-.07-.29-.21-.52-.42-.69s-.49-.26-.82-.26c-.31,0-.58.09-.8.26-.22.17-.37.41-.47.69-.1.24-.16.63-.16,1.15s.04.92.13,1.14c.09.28.25.51.48.69.23.18.51.27.83.27.34,0,.61-.09.82-.26s.35-.4.42-.68c.04-.13.06-.27.07-.42Z"/>
    <path class="st0" d="M199.9,31.29c-.5-.26-.88-.62-1.15-1.08-.27-.46-.41-1-.41-1.61v-3.23c0-.61.14-1.15.41-1.61.27-.46.65-.82,1.15-1.07s1.07-.38,1.73-.38,1.22.12,1.71.37c.5.24.88.59,1.15,1.03s.41.96.41,1.54c0,.04-.02.08-.05.11-.03.03-.07.05-.11.05l-1.2.07c-.1,0-.16-.05-.16-.14,0-.51-.16-.93-.48-1.24-.32-.31-.74-.47-1.27-.47s-.96.16-1.28.47c-.32.31-.48.73-.48,1.24v3.33c0,.5.16.92.48,1.23.32.31.75.47,1.28.47s.96-.15,1.27-.46c.32-.31.48-.72.48-1.24,0-.1.05-.14.16-.14l1.2.05s.08.01.11.04c.03.03.05.06.05.09,0,.59-.14,1.11-.41,1.56-.27.45-.65.8-1.15,1.04s-1.07.37-1.71.37-1.23-.13-1.73-.39Z"/>
    <path class="st0" d="M212.03,28.21v.41c-.01.1-.06.16-.17.16h-4.09s-.06.02-.06.07c.03.29.06.48.12.59.21.63.72.95,1.53.95.59,0,1.06-.24,1.41-.73.03-.05.08-.08.13-.08.04,0,.07.01.09.04l.81.67c.08.06.09.13.04.21-.27.38-.63.68-1.08.89s-.95.31-1.5.31c-.68,0-1.26-.15-1.73-.46-.48-.3-.82-.73-1.04-1.28-.2-.47-.3-1.12-.3-1.96,0-.5.05-.92.16-1.23.18-.61.5-1.09.99-1.44s1.06-.53,1.74-.53c1.72,0,2.68.9,2.9,2.69.03.22.05.46.05.73ZM208.27,26.34c-.21.16-.36.39-.45.67-.05.15-.09.34-.1.57-.02.04,0,.07.05.07h2.65s.07-.02.07-.07c-.02-.22-.04-.38-.08-.5-.08-.31-.23-.56-.46-.73-.23-.17-.52-.26-.87-.26-.32,0-.59.08-.8.24Z"/>
    <path class="st0" d="M218.3,25.41c.42.42.63.99.63,1.71v4.29s-.01.08-.05.11-.07.05-.11.05h-1.2s-.08-.02-.11-.05-.05-.07-.05-.11v-3.97c0-.4-.11-.73-.34-.97s-.53-.37-.9-.37-.68.12-.91.37c-.23.24-.35.57-.35.97v3.99s-.02.08-.05.11-.07.05-.11.05h-1.2s-.08-.02-.11-.05-.05-.07-.05-.11v-6.37s.01-.08.05-.11.07-.05.11-.05h1.2s.08.02.11.05.05.07.05.11v.42s0,.04.03.05.03,0,.04-.03c.36-.47.9-.71,1.62-.71s1.27.21,1.69.63Z"/>
    <path class="st0" d="M224,26.08s-.07.05-.11.05h-1.33s-.06.02-.06.07v3.15c0,.33.07.57.22.72.14.15.37.22.69.22h.39s.08.02.11.05c.03.03.05.07.05.11v.98c0,.1-.05.15-.16.17h-.68c-.69.01-1.2-.1-1.54-.34-.34-.24-.51-.68-.52-1.33v-3.73s-.02-.07-.07-.07h-.74s-.08-.01-.11-.05-.05-.07-.05-.11v-.92s.01-.08.05-.11.07-.05.11-.05h.74s.07-.02.07-.07v-1.53s.01-.08.05-.11.07-.05.11-.05h1.14s.08.02.11.05.05.07.05.11v1.53s.02.07.06.07h1.33s.08.02.11.05.05.07.05.11v.92s-.01.08-.05.11Z"/>
    <path class="st0" d="M229.22,24.98c.07.04.1.1.08.2l-.22,1.18c0,.1-.07.14-.18.09-.13-.04-.28-.07-.46-.07-.11,0-.2,0-.26.01-.37.02-.67.15-.92.39-.24.24-.37.55-.37.93v3.7s-.01.08-.05.11-.07.05-.11.05h-1.2s-.08-.02-.11-.05-.05-.07-.05-.11v-6.37s.02-.08.05-.11.07-.05.11-.05h1.2s.08.02.11.05.05.07.05.11v.59s0,.05.02.06c.01,0,.03,0,.05-.03.37-.57.87-.85,1.53-.85.28,0,.52.06.73.17Z"/>
    <path class="st0" d="M235.83,28.21v.41c-.01.1-.06.16-.17.16h-4.09s-.06.02-.06.07c.03.29.06.48.12.59.21.63.72.95,1.53.95.59,0,1.06-.24,1.41-.73.03-.05.08-.08.13-.08.04,0,.07.01.09.04l.81.67c.08.06.09.13.04.21-.27.38-.63.68-1.08.89s-.95.31-1.5.31c-.68,0-1.26-.15-1.73-.46-.48-.3-.82-.73-1.04-1.28-.2-.47-.3-1.12-.3-1.96,0-.5.05-.92.16-1.23.18-.61.5-1.09.99-1.44s1.06-.53,1.74-.53c1.72,0,2.68.9,2.9,2.69.03.22.05.46.05.73ZM232.08,26.34c-.21.16-.36.39-.45.67-.05.15-.09.34-.1.57-.02.04,0,.07.05.07h2.65s.07-.02.07-.07c-.02-.22-.04-.38-.08-.5-.08-.31-.23-.56-.46-.73-.23-.17-.52-.26-.87-.26-.32,0-.59.08-.8.24Z"/>
    <path class="st0" d="M127.33,40.51s.05.07.05.11v1.03s-.02.08-.05.11-.07.05-.11.05h-1.29s-.07.02-.07.07v5.12s-.02.08-.05.11-.07.05-.11.05h-1.2s-.08-.02-.11-.05-.05-.07-.05-.11v-5.12s-.02-.07-.07-.07h-.81s-.08-.02-.11-.05-.05-.07-.05-.11v-1.03s.02-.08.05-.11.07-.05.11-.05h.81s.07-.02.07-.07v-.24c0-.57.07-1,.22-1.31.15-.31.39-.53.73-.66.34-.13.82-.19,1.44-.18h.46s.08.02.11.05c.03.03.05.07.05.11v.92s-.02.08-.05.11-.07.05-.11.05h-.34c-.37,0-.63.07-.78.22-.14.15-.22.42-.22.81v.13s.02.07.07.07h1.29s.08.02.11.05Z"/>
    <path class="st0" d="M129.24,46.74c-.49-.35-.84-.83-1.04-1.45-.15-.47-.22-.97-.22-1.49,0-.56.07-1.05.21-1.49.2-.61.55-1.08,1.05-1.42.5-.34,1.09-.51,1.79-.51s1.24.17,1.72.51c.48.34.83.81,1.03,1.41.16.42.24.92.24,1.49s-.07,1.05-.22,1.49c-.2.62-.55,1.1-1.03,1.46s-1.07.53-1.74.53-1.28-.17-1.77-.52ZM131.84,45.68c.23-.18.4-.44.5-.77.09-.29.13-.65.13-1.1,0-.47-.04-.84-.13-1.1-.1-.33-.26-.59-.5-.76-.23-.18-.52-.27-.86-.27-.32,0-.6.09-.84.27-.24.18-.41.43-.51.76-.09.31-.13.67-.13,1.1s.04.79.13,1.1c.1.33.26.59.5.77.24.18.53.27.87.27.32,0,.6-.09.83-.27Z"/>
    <path class="st0" d="M139.27,40.57c.07.04.1.1.08.2l-.22,1.18c0,.1-.07.14-.18.09-.13-.04-.28-.07-.46-.07-.11,0-.2,0-.26.01-.37.02-.67.15-.92.39s-.37.55-.37.93v3.7s-.02.08-.05.11-.07.05-.11.05h-1.2s-.08-.02-.11-.05-.05-.07-.05-.11v-6.37s.02-.08.05-.11.07-.05.11-.05h1.2s.08.02.11.05.05.07.05.11v.59s0,.05.02.06c.01,0,.03,0,.05-.03.37-.57.88-.85,1.53-.85.28,0,.52.06.73.17Z"/>
    <path class="st0" d="M144.41,46.88c-.5-.26-.88-.62-1.15-1.08-.27-.46-.41-1-.41-1.61v-3.23c0-.61.14-1.15.41-1.61.27-.46.65-.82,1.15-1.07s1.07-.38,1.73-.38,1.22.12,1.71.37c.5.24.88.59,1.15,1.03.27.44.41.96.41,1.54,0,.04-.02.08-.05.11s-.07.05-.11.05l-1.2.07c-.1,0-.16-.05-.16-.14,0-.51-.16-.93-.48-1.24-.32-.31-.74-.47-1.27-.47s-.96.16-1.28.47c-.32.31-.48.73-.48,1.24v3.33c0,.5.16.92.48,1.23s.75.47,1.28.47.96-.15,1.27-.46c.32-.31.48-.72.48-1.24,0-.1.05-.14.16-.14l1.2.05s.08.01.11.04c.03.03.05.06.05.09,0,.59-.14,1.11-.41,1.56-.27.45-.65.8-1.15,1.04s-1.07.37-1.71.37-1.23-.13-1.73-.39Z"/>
    <path class="st0" d="M151.92,46.74c-.49-.35-.84-.83-1.04-1.45-.15-.47-.22-.97-.22-1.49,0-.56.07-1.05.21-1.49.2-.61.55-1.08,1.05-1.42.5-.34,1.09-.51,1.79-.51s1.24.17,1.72.51c.48.34.82.81,1.03,1.41.16.42.23.92.23,1.49s-.07,1.05-.22,1.49c-.2.62-.55,1.1-1.03,1.46-.49.35-1.07.53-1.74.53s-1.28-.17-1.77-.52ZM154.52,45.68c.23-.18.4-.44.5-.77.09-.29.13-.65.13-1.1,0-.47-.04-.84-.13-1.1-.1-.33-.26-.59-.5-.76-.23-.18-.52-.27-.86-.27-.32,0-.6.09-.84.27-.23.18-.41.43-.51.76-.09.31-.13.67-.13,1.1s.04.79.13,1.1c.1.33.26.59.5.77.24.18.53.27.87.27.32,0,.6-.09.83-.27Z"/>
    <path class="st0" d="M163,41c.42.42.64.99.64,1.71v4.29s-.02.08-.05.11-.07.05-.11.05h-1.2s-.08-.02-.11-.05-.05-.07-.05-.11v-3.97c0-.4-.11-.73-.34-.97s-.53-.37-.9-.37-.68.12-.91.37c-.23.24-.35.57-.35.97v3.99s-.01.08-.05.11-.07.05-.11.05h-1.2s-.08-.02-.11-.05-.05-.07-.05-.11v-6.37s.02-.08.05-.11.07-.05.11-.05h1.2s.08.02.11.05.05.07.05.11v.42s0,.04.03.05c.02,0,.03,0,.04-.03.36-.47.9-.71,1.62-.71s1.27.21,1.69.63Z"/>
    <path class="st0" d="M168.7,41.66s-.07.05-.11.05h-1.33s-.06.02-.06.07v3.15c0,.33.07.57.22.72.14.15.37.22.69.22h.39s.08.02.11.05c.03.03.05.07.05.11v.98c0,.1-.05.15-.16.17h-.68c-.69.01-1.2-.1-1.54-.34-.34-.24-.51-.68-.52-1.33v-3.73s-.02-.07-.07-.07h-.74s-.08-.01-.11-.05-.05-.07-.05-.11v-.92s.01-.08.05-.11.07-.05.11-.05h.74s.07-.02.07-.07v-1.53s.01-.08.05-.11.07-.05.11-.05h1.14s.08.02.11.05.05.07.05.11v1.53s.02.07.06.07h1.33s.08.02.11.05.05.07.05.11v.92s-.01.08-.05.11Z"/>
    <path class="st0" d="M175.64,43.8v.41c-.01.1-.07.16-.17.16h-4.09s-.07.02-.07.07c.03.29.07.48.12.59.21.63.72.95,1.53.95.59,0,1.06-.24,1.41-.73.04-.05.08-.08.13-.08.03,0,.06.01.09.04l.81.67c.08.06.09.13.04.21-.27.38-.63.68-1.08.89s-.95.31-1.5.31c-.68,0-1.26-.15-1.73-.46-.47-.3-.82-.73-1.04-1.28-.2-.47-.3-1.12-.3-1.96,0-.5.05-.92.16-1.23.17-.61.5-1.09.99-1.44.48-.35,1.07-.53,1.75-.53,1.72,0,2.68.9,2.9,2.69.04.22.05.46.05.73ZM171.88,41.92c-.21.16-.37.39-.45.67-.05.15-.09.34-.1.57-.02.04,0,.07.05.07h2.65s.07-.02.07-.07c-.02-.22-.05-.38-.08-.5-.08-.31-.23-.56-.46-.73-.23-.17-.52-.26-.87-.26-.32,0-.59.08-.8.24Z"/>
    <path class="st0" d="M185.73,40.98c.38.41.57.97.57,1.69v4.33s-.02.08-.05.11-.07.05-.11.05h-1.19s-.08-.02-.11-.05-.05-.07-.05-.11v-4.01c0-.4-.11-.72-.32-.95s-.5-.35-.86-.35-.65.12-.87.35-.34.55-.34.94v4.03s-.01.08-.05.11-.07.05-.11.05h-1.19s-.08-.02-.11-.05-.05-.07-.05-.11v-4.01c0-.4-.11-.72-.33-.95-.22-.24-.5-.35-.86-.35-.33,0-.6.1-.82.29-.21.19-.34.45-.37.78v4.25s-.01.08-.05.11-.07.05-.11.05h-1.2s-.08-.02-.11-.05-.05-.07-.05-.11v-6.37s.02-.08.05-.11.07-.05.11-.05h1.2s.08.02.11.05.05.07.05.11v.43s0,.04.03.05c.02,0,.04,0,.05-.03.19-.24.43-.42.71-.54.28-.12.6-.18.95-.18.43,0,.8.09,1.12.26.32.17.57.43.75.76.03.04.06.04.09,0,.19-.35.46-.61.8-.77.34-.17.72-.25,1.14-.25.67,0,1.19.2,1.57.61Z"/>
    <path class="st0" d="M193.73,43.84c0,.62-.07,1.15-.22,1.59-.19.57-.5,1.02-.92,1.35-.42.32-.96.48-1.6.48s-1.12-.22-1.49-.67c-.02-.02-.04-.02-.05-.01-.02,0-.03.03-.03.05v2.84s-.01.08-.05.11-.07.05-.11.05h-1.2s-.08-.02-.11-.05-.05-.07-.05-.11v-8.84s.02-.08.05-.11.07-.05.11-.05h1.2s.08.02.11.05.05.07.05.11v.39s0,.04.03.05c.02,0,.03,0,.05-.03.38-.45.88-.68,1.5-.68s1.14.16,1.57.48c.43.32.74.77.93,1.35.16.44.23.99.23,1.63ZM192.19,43.81c0-.64-.1-1.14-.31-1.5-.24-.43-.62-.64-1.11-.64-.45,0-.79.21-1.02.63-.2.34-.3.85-.3,1.52s.11,1.21.33,1.57c.23.38.55.57.98.57.46,0,.81-.18,1.05-.55.26-.4.39-.93.39-1.59Z"/>
    <path class="st0" d="M196.19,46.74c-.49-.35-.84-.83-1.04-1.45-.15-.47-.22-.97-.22-1.49,0-.56.07-1.05.21-1.49.2-.61.55-1.08,1.05-1.42.5-.34,1.09-.51,1.79-.51s1.24.17,1.72.51c.48.34.82.81,1.03,1.41.16.42.23.92.23,1.49s-.07,1.05-.22,1.49c-.2.62-.55,1.1-1.03,1.46-.49.35-1.07.53-1.74.53s-1.28-.17-1.77-.52ZM198.79,45.68c.23-.18.4-.44.5-.77.09-.29.13-.65.13-1.1,0-.47-.04-.84-.13-1.1-.1-.33-.26-.59-.5-.76-.23-.18-.52-.27-.86-.27-.32,0-.6.09-.84.27-.23.18-.41.43-.51.76-.09.31-.13.67-.13,1.1s.04.79.13,1.1c.1.33.26.59.5.77.24.18.53.27.87.27.32,0,.6-.09.83-.27Z"/>
    <path class="st0" d="M206.23,40.57c.07.04.1.1.08.2l-.22,1.18c0,.1-.07.14-.18.09-.13-.04-.28-.07-.46-.07-.11,0-.2,0-.26.01-.37.02-.67.15-.92.39-.24.24-.37.55-.37.93v3.7s-.01.08-.05.11-.07.05-.11.05h-1.2s-.08-.02-.11-.05-.05-.07-.05-.11v-6.37s.02-.08.05-.11.07-.05.11-.05h1.2s.08.02.11.05.05.07.05.11v.59s0,.05.02.06c.01,0,.03,0,.05-.03.37-.57.87-.85,1.53-.85.28,0,.52.06.73.17Z"/>
    <path class="st0" d="M211.22,40.66c.42.19.74.46.97.79.23.34.34.72.34,1.14v4.41s-.01.08-.05.11-.07.05-.11.05h-1.2s-.08-.02-.11-.05c-.03-.03-.05-.07-.05-.11v-.42s0-.04-.03-.05c-.02,0-.04,0-.05.02-.43.47-1.05.71-1.86.71-.65,0-1.19-.17-1.61-.5s-.63-.82-.63-1.48.24-1.21.71-1.59c.47-.38,1.14-.57,2.01-.57h1.4s.07-.02.07-.07v-.31c0-.34-.1-.6-.3-.79s-.5-.28-.9-.28c-.33,0-.6.06-.8.18-.2.12-.33.28-.38.49-.03.1-.09.15-.18.13l-1.27-.16s-.08-.02-.11-.05-.04-.05-.03-.09c.07-.53.36-.97.86-1.31.5-.34,1.13-.51,1.89-.51.55,0,1.03.1,1.45.29ZM210.55,45.72c.3-.23.46-.51.46-.86v-.61s-.02-.07-.07-.07h-1.1c-.46,0-.83.09-1.09.26-.27.17-.4.42-.4.75,0,.28.1.49.31.65s.47.23.79.23c.43,0,.79-.11,1.1-.34Z"/>
    <path class="st0" d="M217.87,40.57c.07.04.09.1.08.2l-.22,1.18c0,.1-.07.14-.18.09-.13-.04-.28-.07-.46-.07-.11,0-.2,0-.26.01-.37.02-.67.15-.92.39-.24.24-.37.55-.37.93v3.7s-.02.08-.05.11-.07.05-.11.05h-1.2s-.08-.02-.11-.05-.05-.07-.05-.11v-6.37s.01-.08.05-.11.07-.05.11-.05h1.2s.08.02.11.05.05.07.05.11v.59s0,.05.02.06c.01,0,.03,0,.05-.03.37-.57.88-.85,1.53-.85.28,0,.52.06.73.17Z"/>
    <path class="st0" d="M218.96,49.71s-.03-.07-.03-.11v-.94s.01-.08.05-.11.07-.05.11-.05h.01c.36,0,.64-.05.84-.11.2-.07.37-.19.5-.37s.25-.46.35-.82c0-.02,0-.04,0-.08l-2.16-6.47s-.01-.04-.01-.07c0-.08.04-.12.13-.12h1.28c.09,0,.16.04.18.13l1.31,4.6s.02.04.04.04.03-.01.04-.04l1.31-4.6c.03-.09.09-.13.18-.13h1.24c.05,0,.09.02.11.05.02.03.02.08,0,.14l-2.3,6.88c-.22.62-.43,1.08-.64,1.39-.21.3-.49.52-.86.65-.36.13-.87.2-1.54.2h-.09s-.05-.02-.07-.05Z"/>
    <path class="st0" d="M127.74,56.25c.42.19.74.46.97.79.23.34.34.72.34,1.14v4.41s-.02.08-.05.11-.07.05-.11.05h-1.2s-.08-.02-.11-.05c-.03-.03-.05-.07-.05-.11v-.42s0-.04-.03-.05c-.02,0-.03,0-.05.02-.43.47-1.05.71-1.86.71-.65,0-1.19-.17-1.61-.5-.42-.33-.63-.82-.63-1.48s.24-1.21.71-1.59c.48-.38,1.14-.57,2.01-.57h1.4s.07-.02.07-.07v-.31c0-.34-.1-.6-.3-.79-.2-.19-.5-.28-.9-.28-.33,0-.6.06-.8.18-.21.12-.33.28-.39.49-.03.1-.09.15-.18.13l-1.27-.16s-.08-.02-.11-.05-.04-.05-.03-.09c.07-.53.36-.97.86-1.31.5-.34,1.13-.51,1.89-.51.55,0,1.03.1,1.45.29ZM127.07,61.31c.3-.23.46-.51.46-.86v-.61s-.02-.07-.07-.07h-1.1c-.46,0-.83.09-1.09.26-.27.17-.4.42-.4.75,0,.28.1.49.31.65.21.15.47.23.79.23.43,0,.79-.11,1.1-.34Z"/>
    <path class="st0" d="M135.45,56.59c.42.42.63.99.63,1.71v4.29s-.02.08-.05.11-.07.05-.11.05h-1.2s-.08-.02-.11-.05-.05-.07-.05-.11v-3.97c0-.4-.11-.73-.34-.97s-.53-.37-.9-.37-.68.12-.91.37c-.23.24-.35.57-.35.97v3.99s-.02.08-.05.11-.07.05-.11.05h-1.2s-.08-.02-.11-.05-.05-.07-.05-.11v-6.37s.02-.08.05-.11.07-.05.11-.05h1.2s.08.02.11.05.05.07.05.11v.42s0,.04.03.05c.02,0,.03,0,.04-.03.36-.47.9-.71,1.62-.71s1.27.21,1.69.63Z"/>
    <path class="st0" d="M141.79,53.64s.07-.05.11-.05h1.2s.08.02.11.05c.03.03.05.07.05.11v8.84s-.02.08-.05.11c-.03.03-.07.05-.11.05h-1.2s-.08-.02-.11-.05c-.03-.03-.05-.07-.05-.11v-.39s0-.04-.03-.05-.03,0-.05.03c-.38.45-.88.68-1.5.68s-1.14-.16-1.57-.48c-.43-.32-.74-.77-.93-1.35-.16-.49-.23-1.03-.23-1.63s.07-1.15.22-1.6c.19-.57.5-1.02.93-1.35s.96-.48,1.61-.48c.6,0,1.09.22,1.48.65.02.02.03.02.05.02.02,0,.03-.02.03-.05v-2.84s.01-.08.05-.11ZM141.73,59.4c0-.68-.11-1.2-.33-1.56-.24-.38-.57-.57-.99-.57s-.79.18-1.05.55c-.26.38-.39.92-.39,1.59,0,.61.1,1.11.31,1.5.24.42.61.63,1.11.63.44,0,.79-.21,1.03-.63.2-.36.3-.86.3-1.52Z"/>
    <path class="st0" d="M147.68,62.7s-.05-.07-.05-.11v-8.84s.02-.08.05-.11c.03-.03.07-.05.11-.05h3.19c.62,0,1.16.11,1.63.33.47.22.83.53,1.09.93s.39.88.39,1.42v3.79c0,.54-.13,1.01-.39,1.42s-.62.72-1.09.94c-.47.22-1.01.33-1.63.33h-3.19s-.08-.02-.11-.05ZM149.22,61.44h1.83c.46,0,.83-.15,1.1-.44.27-.29.41-.68.42-1.17v-3.31c0-.5-.14-.89-.42-1.18-.28-.29-.65-.44-1.12-.44h-1.82s-.07.02-.07.07v6.41s.02.07.07.07Z"/>
    <path class="st0" d="M155.75,54.89c-.18-.17-.26-.4-.26-.67s.09-.49.26-.67c.17-.17.4-.26.67-.26s.49.09.67.26c.17.17.26.4.26.67s-.09.49-.26.67c-.18.17-.4.26-.67.26s-.49-.09-.67-.26ZM155.68,62.7s-.05-.07-.05-.11v-6.38s.01-.08.05-.11.07-.05.11-.05h1.2s.08.02.11.05.05.07.05.11v6.38s-.01.08-.05.11-.07.05-.11.05h-1.2s-.08-.02-.11-.05Z"/>
    <path class="st0" d="M163.02,56.11s.07-.05.11-.05h1.2s.08.02.11.05c.03.03.05.07.05.11v6.08c0,1.09-.31,1.87-.93,2.33-.62.47-1.44.7-2.45.7-.27,0-.54-.01-.8-.04-.1,0-.14-.07-.14-.17l.04-1.07c0-.1.06-.14.18-.14.25.03.48.04.68.04.65,0,1.14-.13,1.44-.39.31-.26.46-.69.46-1.3v-.1s0-.04-.03-.05c-.02,0-.04,0-.05.02-.36.38-.86.57-1.52.57-.57,0-1.08-.14-1.56-.43-.47-.29-.8-.73-.98-1.32-.11-.41-.17-.94-.17-1.58,0-.72.07-1.28.21-1.66.17-.53.47-.96.9-1.27.43-.32.93-.48,1.5-.48.69,0,1.23.2,1.61.6.02.03.04.03.05.03.02,0,.03-.03.03-.05v-.31s.01-.08.05-.11ZM162.95,60.1c.01-.15.02-.4.02-.74s0-.57-.02-.71-.04-.29-.09-.42c-.07-.29-.21-.52-.42-.69s-.49-.26-.82-.26c-.31,0-.58.09-.8.26-.22.17-.37.41-.47.69-.1.24-.16.63-.16,1.15s.04.92.13,1.14c.09.28.25.51.48.69.23.18.51.27.83.27.34,0,.61-.09.82-.26s.35-.4.42-.68c.04-.13.06-.27.07-.42Z"/>
    <path class="st0" d="M166.24,54.89c-.17-.17-.26-.4-.26-.67s.09-.49.26-.67c.18-.17.4-.26.67-.26s.49.09.67.26c.18.17.26.4.26.67s-.09.49-.26.67c-.17.17-.4.26-.67.26s-.49-.09-.67-.26ZM166.16,62.7s-.05-.07-.05-.11v-6.38s.01-.08.05-.11.07-.05.11-.05h1.2s.08.02.11.05c.03.03.05.07.05.11v6.38s-.02.08-.05.11c-.03.03-.07.05-.11.05h-1.2s-.08-.02-.11-.05Z"/>
    <path class="st0" d="M172.86,57.25s-.07.05-.11.05h-1.33s-.07.02-.07.07v3.15c0,.33.07.57.22.72.14.15.37.22.69.22h.39s.08.02.11.05c.03.03.05.07.05.11v.98c0,.1-.05.15-.16.17h-.68c-.69.01-1.2-.1-1.54-.34-.34-.24-.51-.68-.52-1.33v-3.73s-.02-.07-.07-.07h-.74s-.08-.01-.11-.05-.05-.07-.05-.11v-.92s.02-.08.05-.11.07-.05.11-.05h.74s.07-.02.07-.07v-1.53s.01-.08.05-.11.07-.05.11-.05h1.14s.08.02.11.05.05.07.05.11v1.53s.02.07.07.07h1.33s.08.02.11.05.05.07.05.11v.92s-.02.08-.05.11Z"/>
    <path class="st0" d="M178.24,56.25c.42.19.74.46.97.79.23.34.34.72.34,1.14v4.41s-.01.08-.05.11-.07.05-.11.05h-1.2s-.08-.02-.11-.05c-.03-.03-.05-.07-.05-.11v-.42s0-.04-.03-.05c-.02,0-.04,0-.05.02-.43.47-1.05.71-1.86.71-.65,0-1.19-.17-1.61-.5s-.63-.82-.63-1.48.24-1.21.71-1.59c.47-.38,1.14-.57,2.01-.57h1.4s.07-.02.07-.07v-.31c0-.34-.1-.6-.3-.79s-.5-.28-.9-.28c-.33,0-.6.06-.8.18-.2.12-.33.28-.38.49-.03.1-.09.15-.18.13l-1.27-.16s-.08-.02-.11-.05-.04-.05-.03-.09c.07-.53.36-.97.86-1.31.5-.34,1.13-.51,1.89-.51.55,0,1.03.1,1.45.29ZM177.57,61.31c.3-.23.46-.51.46-.86v-.61s-.02-.07-.07-.07h-1.1c-.46,0-.83.09-1.09.26-.27.17-.4.42-.4.75,0,.28.1.49.31.65s.47.23.79.23c.43,0,.79-.11,1.1-.34Z"/>
    <path class="st0" d="M181.09,62.7s-.05-.07-.05-.11v-8.84s.01-.08.05-.11c.03-.03.07-.05.11-.05h1.2s.08.02.11.05c.03.03.05.07.05.11v8.84s-.02.08-.05.11-.07.05-.11.05h-1.2s-.08-.02-.11-.05Z"/>
    <path class="st0" d="M191.93,53.64s.07-.05.11-.05h1.2s.08.02.11.05c.03.03.05.07.05.11v8.84s-.02.08-.05.11-.07.05-.11.05h-1.2s-.08-.02-.11-.05-.05-.07-.05-.11v-3.74s-.02-.07-.07-.07h-3.33s-.06.02-.06.07v3.74s-.02.08-.05.11-.07.05-.11.05h-1.2s-.08-.02-.11-.05-.05-.07-.05-.11v-8.84s.01-.08.05-.11c.03-.03.07-.05.11-.05h1.2s.08.02.11.05c.03.03.05.07.05.11v3.66s.02.07.06.07h3.33s.07-.02.07-.07v-3.66s.01-.08.05-.11Z"/>
    <path class="st0" d="M195.27,54.89c-.18-.17-.26-.4-.26-.67s.09-.49.26-.67c.17-.17.4-.26.67-.26s.49.09.67.26c.17.17.26.4.26.67s-.09.49-.26.67c-.18.17-.4.26-.67.26s-.49-.09-.67-.26ZM195.2,62.7s-.05-.07-.05-.11v-6.38s.01-.08.05-.11.07-.05.11-.05h1.2s.08.02.11.05.05.07.05.11v6.38s-.01.08-.05.11-.07.05-.11.05h-1.2s-.08-.02-.11-.05Z"/>
    <path class="st0" d="M199.43,62.58c-.41-.16-.73-.38-.96-.67s-.34-.6-.34-.95v-.12s.01-.08.05-.11c.03-.03.07-.05.11-.05h1.15s.08.02.11.05c.03.03.05.07.05.11v.03c0,.22.12.41.36.57.24.16.54.24.91.24.35,0,.63-.07.85-.22.22-.14.33-.32.33-.54,0-.2-.09-.35-.27-.45-.18-.1-.47-.21-.87-.32l-.5-.16c-.44-.13-.82-.27-1.12-.42-.31-.15-.56-.35-.77-.61-.21-.26-.31-.59-.31-.99,0-.61.24-1.1.72-1.46.48-.36,1.11-.54,1.9-.54.53,0,1,.08,1.4.25.4.17.71.41.93.71.22.3.33.64.33,1.03,0,.04-.01.08-.05.11s-.07.05-.11.05h-1.11s-.08-.02-.11-.05-.05-.07-.05-.11c0-.23-.11-.42-.33-.57-.22-.15-.53-.23-.91-.23-.34,0-.62.06-.83.19-.21.13-.32.3-.32.53,0,.21.1.37.31.48.2.11.55.23,1.03.36l.29.08c.46.14.85.28,1.16.43s.58.34.8.6c.22.26.33.59.33,1,0,.62-.24,1.1-.73,1.46-.49.35-1.14.53-1.95.53-.55,0-1.03-.08-1.45-.24Z"/>
    <path class="st0" d="M208.31,57.25s-.07.05-.11.05h-1.33s-.07.02-.07.07v3.15c0,.33.07.57.22.72.14.15.37.22.69.22h.39s.08.02.11.05c.03.03.05.07.05.11v.98c0,.1-.05.15-.16.17h-.68c-.69.01-1.2-.1-1.54-.34-.34-.24-.51-.68-.52-1.33v-3.73s-.02-.07-.07-.07h-.74s-.08-.01-.11-.05-.05-.07-.05-.11v-.92s.02-.08.05-.11.07-.05.11-.05h.74s.07-.02.07-.07v-1.53s.01-.08.05-.11.07-.05.11-.05h1.14s.08.02.11.05.05.07.05.11v1.53s.02.07.07.07h1.33s.08.02.11.05.05.07.05.11v.92s-.02.08-.05.11Z"/>
    <path class="st0" d="M210.62,62.33c-.49-.35-.84-.83-1.04-1.45-.15-.47-.22-.97-.22-1.49,0-.56.07-1.05.21-1.49.2-.61.55-1.08,1.05-1.42.5-.34,1.09-.51,1.79-.51s1.24.17,1.72.51c.48.34.82.81,1.03,1.41.16.42.23.92.23,1.49s-.07,1.05-.22,1.49c-.2.62-.55,1.1-1.03,1.46-.49.35-1.07.53-1.74.53s-1.28-.17-1.77-.52ZM213.23,61.27c.23-.18.4-.44.5-.77.09-.29.13-.65.13-1.1,0-.47-.04-.84-.13-1.1-.1-.33-.26-.59-.5-.76-.23-.18-.52-.27-.86-.27-.32,0-.6.09-.84.27-.23.18-.41.43-.51.76-.09.31-.13.67-.13,1.1s.04.79.13,1.1c.1.33.26.59.5.77.24.18.53.27.87.27.32,0,.6-.09.83-.27Z"/>
    <path class="st0" d="M220.66,56.16c.07.04.1.1.08.2l-.22,1.18c0,.1-.07.14-.18.09-.13-.04-.28-.07-.46-.07-.11,0-.2,0-.26.01-.37.02-.67.15-.92.39-.24.24-.37.55-.37.93v3.7s-.01.08-.05.11-.07.05-.11.05h-1.2s-.08-.02-.11-.05-.05-.07-.05-.11v-6.37s.02-.08.05-.11.07-.05.11-.05h1.2s.08.02.11.05.05.07.05.11v.59s0,.05.02.06c.01,0,.03,0,.05-.03.37-.57.87-.85,1.53-.85.28,0,.52.06.73.17Z"/>
    <path class="st0" d="M221.74,65.3s-.03-.07-.03-.11v-.94s.01-.08.05-.11.07-.05.11-.05h.01c.36,0,.64-.05.84-.11.2-.07.37-.19.5-.37s.25-.46.35-.82c0-.02,0-.04,0-.08l-2.16-6.47s-.01-.04-.01-.07c0-.08.04-.12.13-.12h1.28c.09,0,.16.04.18.13l1.31,4.6s.02.04.04.04.03-.01.04-.04l1.31-4.6c.03-.09.09-.13.18-.13h1.24c.05,0,.09.02.11.05.02.03.02.08,0,.14l-2.3,6.88c-.22.62-.43,1.08-.64,1.39-.21.3-.49.52-.86.65-.36.13-.87.2-1.54.2h-.09s-.05-.02-.07-.05Z"/>
  </g>
  <g>
    <path class="st0" d="M29.66,62.82h0c-4.09,0-7.4-3.32-7.4-7.4v-18.51c0-2.04,1.66-3.7,3.7-3.7s3.7,1.66,3.7,3.7v25.92Z"/>
    <path class="st0" d="M102.47,62.82h0c-4.09,0-7.4-3.32-7.4-7.4v-18.51c0-2.04,1.66-3.7,3.7-3.7s3.7,1.66,3.7,3.7v25.92Z"/>
    <path class="st0" d="M56.81,62.82h0c-2.04,0-3.7-1.66-3.7-3.7v-25.92c4.09,0,7.4,3.32,7.4,7.4v18.51c0,2.04-1.66,3.7-3.7,3.7"/>
    <path class="st0" d="M87.66,62.82h0c-2.04,0-3.7-1.66-3.7-3.7V25.78c0-2.04,1.66-3.7,3.7-3.7s3.7,1.66,3.7,3.7v33.34c0,2.04-1.66,3.7-3.7,3.7"/>
    <path class="st0" d="M67.92,62.82h0c-2.04,0-3.7-1.66-3.7-3.7v-22.21c0-2.04,1.66-3.7,3.7-3.7s3.7,1.66,3.7,3.7v22.21c0,2.04-1.66,3.7-3.7,3.7"/>
    <path class="st0" d="M77.79,62.82h0c-2.04,0-3.7-1.67-3.7-3.7s1.67-3.7,3.7-3.7,3.7,1.67,3.7,3.7-1.67,3.7-3.7,3.7"/>
    <path class="st0" d="M110.81,61.91c.49.52,1.02.89,1.53.89v-25.76c0-2.03-1.56-3.8-3.59-3.85-2.1-.06-3.82,1.62-3.82,3.7v25.91c.64,0,1.25-.4,1.79-.95,1.13-1.16,2.97-1.12,4.08.06"/>
    <path class="st0" d="M67.92,29.48h0c-2.04,0-3.7-1.67-3.7-3.7s1.67-3.7,3.7-3.7,3.7,1.67,3.7,3.7-1.67,3.7-3.7,3.7"/>
    <path class="st0" d="M38,61.93c.49.52,1.02.89,1.53.89v-25.76c0-2.03-1.56-3.79-3.59-3.85-2.1-.06-3.82,1.62-3.82,3.7v25.91c.64,0,1.25-.4,1.79-.95,1.13-1.16,2.97-1.12,4.08.06"/>
    <path class="st0" d="M44.77,34.09c-.49-.52-1.02-.89-1.53-.89v25.76c0,2.03,1.56,3.8,3.59,3.85,2.1.06,3.82-1.62,3.82-3.7v-25.91c-.64,0-1.25.4-1.79.95-1.13,1.16-2.97,1.12-4.08-.06"/>
  </g>
</svg>