<?xml version="1.0" encoding="UTF-8" standalone="no"?>
<svg
   xmlnsSvg="http://www.w3.org/2000/svg"
   xmlns="http://www.w3.org/2000/svg"
   version="1.1"
   width="705.90625"
   height="379.96875"
   id="svg3246">
  <defs
     id="defs3248" />
  <g
     transform="translate(-104.18973,-348.09209)"
     id="layer1">
    <path
       d="m 105.18973,349.09209 0,377.96875 189.125,0 0,-377.96875 -189.125,0 z m 403.15625,46.1875 c -13.847,0 -23.96875,10.66171 -23.96875,23.65625 l 0,0.125 c 0,13.51343 9.79137,23.5 24.03125,23.5 8.35416,0 14.83898,-3.26195 19.53125,-7.25 l 0,-19.84375 -19.875,0 0,8.6875 10.125,0 0,6.53125 c -2.54998,1.82353 -5.80686,2.75 -9.46875,2.75 -8.0873,0 -13.84375,-6.13843 -13.84375,-14.5 l 0,-0.125 c 0,-7.77597 5.82505,-14.25 13.15625,-14.25 5.28528,0 8.40904,1.71339 11.9375,4.65625 l 6.34375,-7.65625 c -4.77381,-4.04736 -9.74802,-6.28125 -17.96875,-6.28125 z m -135.0625,0.78125 0,45.71875 17.84375,0 c 14.36589,0 24.28125,-9.97523 24.28125,-22.84375 l 0,-0.125 c 0,-12.86852 -9.91536,-22.75 -24.28125,-22.75 l -17.84375,0 z m 49.78125,0 0,45.71875 34.8125,0 0,-8.9375 -24.8125,0 0,-9.59375 21.53125,0 0,-8.9375 -21.53125,0 0,-9.28125 24.46875,0 0,-8.96875 -34.46875,0 z m 115.84375,0 0,45.71875 10.03125,0 0,-14.625 7.90625,0 9.8125,14.625 11.75,0 -11.1875,-16.3125 c 5.819,-2.15711 9.8125,-6.80441 9.8125,-14.1875 l 0,-0.125 c 0,-9.40677 -6.47929,-15.09375 -17.25,-15.09375 l -20.875,0 z m 46.46875,0 0,26.125 c 0,13.44671 7.537,20.3125 19.8125,20.3125 12.2755,0 20.03125,-6.78541 20.03125,-20.625 l 0,-25.8125 -10.0625,0 0,26.1875 c 0,7.24966 -3.706,10.96875 -9.84375,10.96875 -6.13775,0 -9.875,-3.83144 -9.875,-11.28125 l 0,-25.875 -10.0625,0 z m 46.71875,0 17.53125,27.6875 0,18.03125 10.09375,0 0,-18.21875 17.5625,-27.5 -11.4375,0 -11.09375,18.375 -10.90625,-18.375 -11.75,0 z m 49.5,0 0,9.28125 13.875,0 0,36.4375 10.0625,0 0,-36.4375 13.9375,0 0,-9.28125 -37.875,0 z m 44.25,0 0,45.71875 34.8125,0 0,-8.9375 -24.8125,0 0,-9.59375 21.5625,0 0,-8.9375 -21.5625,0 0,-9.28125 24.46875,0 0,-8.96875 -34.46875,0 z m 43.75,0 0,45.71875 10.0625,0 0,-14.625 7.90625,0 9.8125,14.625 11.71875,0 -11.15625,-16.3125 c 5.819,-2.15711 9.8125,-6.80441 9.8125,-14.1875 l 0,-0.125 c 0,-9.40677 -6.47929,-15.09375 -17.25,-15.09375 l -20.90625,0 z m -386.25,9.09375 7.78125,0 c 8.22814,0 13.78125,5.68654 13.78125,13.78125 l 0,0.125 c 0,8.09471 -5.55311,13.65625 -13.78125,13.65625 l -7.78125,0 0,-27.5625 z m 165.59375,0 10,0 c 4.90723,0 7.90625,2.22445 7.90625,6.53125 l 0,0.125 c 0,3.85463 -2.82634,6.46875 -7.71875,6.46875 l -10.1875,0 0,-13.125 z m 230.71875,0 10,0 c 4.90724,0 7.875,2.22445 7.875,6.53125 l 0,0.125 c 0,3.85463 -2.79509,6.46875 -7.6875,6.46875 l -10.1875,0 0,-13.125 z"
       id="path96"
       style="fill:#ffffff;fill-opacity:1;fill-rule:nonzero;stroke:none" />
    <path
       d="m 152.84617,396.38564 0,47.28582 18.46619,0 c 14.85514,0 25.11094,-10.33704 25.11094,-23.6429 l 0,-0.15454 c 0,-13.30585 -10.2558,-23.48838 -25.11094,-23.48838 l -18.46619,0 z m 58.5664,0 0,47.28582 36.00522,0 0,-9.27173 -25.65177,0 0,-9.96711 22.25213,0 0,-9.19446 -22.25213,0 0,-9.58079 25.26546,0 0,-9.27173 -35.61891,0 z m -48.13571,9.34899 8.0355,0 c 8.50984,0 14.21665,5.91753 14.21665,14.29393 l 0,0.0771 c 0,8.36897 -5.70681,14.13938 -14.21665,14.13938 l -8.0355,0 0,-28.51056 z m -10.81701,80.50951 0,9.349 94.57163,0 0,-9.349 -94.57163,0 z m 49.99006,51.92168 c -33.99483,0.22993 -62.42964,29.71722 -62.42964,64.43851 0,35.6108 28.43481,63.27956 62.42964,63.27956 21.22268,0 41.73424,-12.92038 48.21299,-22.63849 l 0,-29.36046 16.14825,0 0,-4.7904 -59.10726,0 0,4.7904 21.7113,0 0,39.63664 c -5.21856,3.06146 -14.91216,7.1856 -26.96528,7.1856 -27.16029,0 -37.78229,-16.73204 -37.78229,-58.6437 0,-41.8968 11.13976,-58.45838 37.93683,-58.64368 12.12722,0.0743 19.38376,2.71631 25.72904,8.11277 5.21113,6.04882 11.19452,14.12353 13.90759,24.33828 l 2.54971,0 0,-34.61446 -2.85876,0 c -0.57079,1.34914 -1.17239,2.27744 -1.85435,2.78154 -0.67455,0.51149 -1.82074,0.77264 -3.39965,0.77264 -1.47511,0 -3.2662,-0.32248 -5.4085,-1.00444 -2.14969,-0.68198 -4.62706,-1.42214 -7.34011,-2.16341 -2.71306,-0.73387 -5.6429,-1.40418 -8.80814,-2.08614 -1.47514,-0.31133 -2.96174,-0.53229 -4.48134,-0.69538 -2.57963,-0.42251 -5.29166,-0.71758 -8.19003,-0.69538 z"
       id="path98"
       style="fill:#000000;fill-opacity:1;fill-rule:nonzero;stroke:none" />
  </g>
</svg>
