<svg id="Ebene_1" data-name="Ebene 1" xmlns="http://www.w3.org/2000/svg" viewBox="0 0 100.43 51.02"><defs><style>.cls-1{fill:#231f20;}.cls-2{fill:#fff;}</style></defs><polygon class="cls-1" points="0 0 0 51.02 25.51 51.02 25.51 0 0 0 0 0"/><polygon class="cls-2" points="6.38 18.5 6.38 19.77 19.13 19.77 19.13 18.5 6.38 18.5 6.38 18.5"/><path class="cls-2" d="M35.3,27.46v0a3.17,3.17,0,0,0-3.39-3.17H29.43v6.37h2.48a3.19,3.19,0,0,0,3.39-3.18Zm-1.46,0a1.83,1.83,0,0,1-1.93,1.91H30.83V25.53h1.08a1.84,1.84,0,0,1,1.93,1.93Zm8.34,3.17V29.4H38.72V28.06h3V26.81h-3V25.52h3.42V24.27H37.33v6.37Z" transform="translate(-23 -17.89)"/><path class="cls-2" d="M39.76,53.62V59a7.46,7.46,0,0,1-3.64,1c-3.67,0-5.1-2.25-5.1-7.91s1.51-7.88,5.12-7.91a4.89,4.89,0,0,1,3.47,1.1,8.26,8.26,0,0,1,1.88,3.28h.34V43.81h-.39a.83.83,0,0,1-.25.38.75.75,0,0,1-.45.1,2.56,2.56,0,0,1-.74-.13c-.29-.1-.61-.19-1-.29l-1.19-.29a6,6,0,0,0-.61-.09,6.36,6.36,0,0,0-1.1-.09,8.69,8.69,0,0,0-8.42,8.69,8.47,8.47,0,0,0,8.42,8.54,8.71,8.71,0,0,0,6.5-3.06v-4H44.8V53h-8v.65Z" transform="translate(-23 -17.89)"/><path class="cls-1" d="M64.87,27.37v0a3.09,3.09,0,0,0-3.29-3.08H59.17v6.19h2.41a3.1,3.1,0,0,0,3.29-3.09Zm-1.42,0a1.77,1.77,0,0,1-1.87,1.85h-1V25.5h1a1.78,1.78,0,0,1,1.87,1.87Zm7.16,3.08V29.25H67.25V28h2.92V26.74H67.25V25.49h3.32V24.27H65.9v6.19Zm9.66-.88V26.9H77.59v1.17H79V29a2.24,2.24,0,0,1-1.28.37,1.86,1.86,0,0,1-1.88-2v0a1.87,1.87,0,0,1,1.78-1.93,2.27,2.27,0,0,1,1.62.63l.85-1a3.36,3.36,0,0,0-2.42-.85,3.18,3.18,0,0,0-3.25,3.2h0a3.1,3.1,0,0,0,3.25,3.19,4,4,0,0,0,2.64-1Zm6.65.88-1.51-2.21a1.92,1.92,0,0,0,1.33-1.92h0c0-1.28-.88-2.05-2.34-2.05H81.58v6.19h1.36v-2H84l1.32,2ZM85.36,26.4c0,.53-.38.88-1,.88H82.94V25.5h1.35c.66,0,1.07.3,1.07.89Zm7.9,1.37v-3.5H91.9v3.55c0,1-.51,1.48-1.34,1.48s-1.33-.52-1.33-1.53v-3.5H87.87v3.54a2.45,2.45,0,0,0,2.67,2.75,2.49,2.49,0,0,0,2.72-2.79Zm6.75-3.5H98.46L97,26.76l-1.48-2.49H93.89L96.27,28v2.44h1.36V28L100,24.27Zm5.71,1.26V24.27h-5.13v1.26h1.88v4.93h1.36V25.53Zm5.57,4.93V29.25h-3.36V28h2.92V26.74h-2.92V25.49h3.32V24.27h-4.67v6.19Zm6.56,0-1.51-2.21a1.91,1.91,0,0,0,1.32-1.92h0c0-1.28-.87-2.05-2.33-2.05H112.5v6.19h1.36v-2h1.07l1.33,2Zm-1.56-4.06c0,.53-.39.88-1.05.88h-1.38V25.5h1.35c.67,0,1.08.3,1.08.89Z" transform="translate(-23 -17.89)"/><path class="cls-1" d="M58.84,36.11h0A3.13,3.13,0,0,1,62,32.91a3.09,3.09,0,0,1,3.13,3.17v0a3.15,3.15,0,1,1-6.29,0Zm5.57,0h0A2.45,2.45,0,0,0,62,33.55a2.42,2.42,0,0,0-2.41,2.53v0a2.42,2.42,0,1,0,4.84,0Z" transform="translate(-23 -17.89)"/><path class="cls-1" d="M66.42,33h.7v5.52h3.47v.65H66.42Z" transform="translate(-23 -17.89)"/><path class="cls-1" d="M71.87,33H74a3.07,3.07,0,0,1,3.27,3.07v0A3.09,3.09,0,0,1,74,39.18H71.87Zm.69.65v4.87H74a2.38,2.38,0,0,0,2.55-2.42h0A2.39,2.39,0,0,0,74,33.66Z" transform="translate(-23 -17.89)"/><path class="cls-1" d="M78.71,33h4.45v.64H79.4v2.1h3.36v.64H79.4v2.15h3.81v.64h-4.5Z" transform="translate(-23 -17.89)"/><path class="cls-1" d="M84.62,33h.65L89.15,38V33h.68v6.17h-.55l-4-5.06v5.06h-.68Z" transform="translate(-23 -17.89)"/><path class="cls-1" d="M91.57,33h2.62a2.31,2.31,0,0,1,1.62.55,1.38,1.38,0,0,1,.39,1h0a1.49,1.49,0,0,1-1,1.43c.74.22,1.32.64,1.32,1.49v0c0,1-.88,1.68-2.23,1.68H91.57Zm3.93,1.63c0-.6-.49-1-1.37-1H92.26v2.12h1.82c.84,0,1.42-.38,1.42-1.1Zm-1.3,1.74H92.26v2.17h2.07c.93,0,1.51-.41,1.51-1.1v0C95.84,36.76,95.28,36.38,94.2,36.38Z" transform="translate(-23 -17.89)"/><path class="cls-1" d="M97.48,36.11h0a3.14,3.14,0,1,1,6.28,0v0a3.14,3.14,0,1,1-6.28,0Zm5.56,0h0a2.45,2.45,0,0,0-2.43-2.55,2.42,2.42,0,0,0-2.41,2.53v0a2.45,2.45,0,0,0,2.43,2.54A2.42,2.42,0,0,0,103,36.11Z" transform="translate(-23 -17.89)"/><path class="cls-1" d="M105,36.6V33h.7v3.54c0,1.33.71,2.08,1.88,2.08a1.77,1.77,0,0,0,1.86-2V33h.7v3.53a2.57,2.57,0,1,1-5.14.06Z" transform="translate(-23 -17.89)"/><path class="cls-1" d="M111.73,33h2.65a2.4,2.4,0,0,1,1.75.62,1.7,1.7,0,0,1,.48,1.21v0a1.82,1.82,0,0,1-1.68,1.8l1.9,2.52H116l-1.78-2.4h-1.76v2.4h-.7Zm2.59,3.15c.92,0,1.58-.48,1.58-1.27v0c0-.76-.58-1.21-1.57-1.21h-1.9v2.5Z" transform="translate(-23 -17.89)"/><path class="cls-1" d="M117.82,36.11h0a3.09,3.09,0,0,1,3.09-3.19,3.26,3.26,0,0,1,2.3.82l-.45.52a2.66,2.66,0,0,0-1.88-.7,2.41,2.41,0,0,0-2.34,2.53v0A2.38,2.38,0,0,0,121,38.66a2.93,2.93,0,0,0,1.78-.62V36.51h-1.88v-.63h2.55v2.46a3.75,3.75,0,0,1-2.48.94A3,3,0,0,1,117.82,36.11Z" transform="translate(-23 -17.89)"/></svg>